SeanSlab-WideBlack.ufo
<glyph name="quotedbl" format="1">
  <advance width="532"/>
  <unicode hex="0022"/>
  <outline>
    <contour>
      <point x="224" y="612" type="line"/>
      <point x="234" y="846" type="line"/>
      <point x="61" y="846" type="line"/>
      <point x="70" y="612" type="line"/>
    </contour>
    <contour>
      <point x="462" y="612" type="line"/>
      <point x="472" y="846" type="line"/>
      <point x="298" y="846" type="line"/>
      <point x="308" y="612" type="line"/>
    </contour>
  </outline>
</glyph>
<glyph name="numbersign" format="1">
  <advance width="844"/>
  <unicode hex="0023"/>
  <outline>
    <contour>
      <point x="45" y="215" type="line"/>
      <point x="667" y="215" type="line"/>
      <point x="713" y="329" type="line"/>
      <point x="93" y="329" type="line"/>
    </contour>
    <contour>
      <point x="126" y="427" type="line"/>
      <point x="754" y="427" type="line"/>
      <point x="798" y="541" type="line"/>
      <point x="171" y="541" type="line"/>
    </contour>
    <contour>
      <point x="531" y="39" type="line"/>
      <point x="801" y="722" type="line"/>
      <point x="644" y="722" type="line"/>
      <point x="374" y="39" type="line"/>
    </contour>
    <contour>
      <point x="200" y="46" type="line"/>
      <point x="468" y="722" type="line"/>
      <point x="312" y="722" type="line"/>
      <point x="51" y="46" type="line"/>
    </contour>
  </outline>
</glyph>
<glyph name="dollar" format="1">
  <advance width="732"/>
  <unicode hex="0024"/>
  <outline>
    <contour>
      <point x="184" y="91" type="curve"/>
      <point x="184" y="211"/>
      <point x="184" y="118"/>
      <point x="184" y="238" type="curve"/>
      <point x="65" y="238"/>
      <point x="184" y="238"/>
      <point x="65" y="238" type="curve"/>
      <point x="65" y="118"/>
      <point x="65" y="211"/>
      <point x="65" y="91" type="curve"/>
      <point x="184" y="91"/>
      <point x="65" y="91"/>
    </contour>
    <contour>
      <point x="517" y="636" type="curve"/>
      <point x="517" y="516"/>
      <point x="517" y="609"/>
      <point x="517" y="489" type="curve"/>
      <point x="636" y="489"/>
      <point x="517" y="489"/>
      <point x="636" y="489" type="curve"/>
      <point x="636" y="609"/>
      <point x="636" y="516"/>
      <point x="636" y="636" type="curve"/>
      <point x="517" y="636"/>
      <point x="636" y="636"/>
    </contour>
    <contour>
      <point x="421" y="-38" type="curve"/>
      <point x="421" y="-9"/>
      <point x="421" y="69"/>
      <point x="421" y="99" type="curve"/>
      <point x="265" y="99"/>
      <point x="421" y="99"/>
      <point x="265" y="99" type="curve"/>
      <point x="265" y="69"/>
      <point x="265" y="-9"/>
      <point x="265" y="-38" type="curve"/>
      <point x="421" y="-38"/>
      <point x="265" y="-38"/>
    </contour>
    <contour>
      <point x="435" y="630" type="curve"/>
      <point x="435" y="659"/>
      <point x="435" y="744"/>
      <point x="435" y="773" type="curve"/>
      <point x="280" y="773"/>
      <point x="435" y="773"/>
      <point x="280" y="773" type="curve"/>
      <point x="280" y="744"/>
      <point x="280" y="659"/>
      <point x="280" y="630" type="curve"/>
      <point x="435" y="630"/>
      <point x="280" y="630"/>
    </contour>
    <contour>
      <point x="65" y="91" type="curve"/>
      <point x="142" y="64"/>
      <point x="233" y="41"/>
      <point x="335" y="41" type="curve"/>
      <point x="524" y="41"/>
      <point x="688" y="76"/>
      <point x="688" y="222" type="curve"/>
      <point x="688" y="349"/>
      <point x="549" y="382"/>
      <point x="407" y="425" type="curve"/>
      <point x="317" y="451"/>
      <point x="223" y="462"/>
      <point x="223" y="519" type="curve"/>
      <point x="223" y="569"/>
      <point x="288" y="574"/>
      <point x="360" y="574" type="curve"/>
      <point x="436" y="574"/>
      <point x="490" y="565"/>
      <point x="558" y="539" type="curve"/>
      <point x="636" y="636"/>
      <point x="558" y="539"/>
      <point x="636" y="636" type="curve"/>
      <point x="543" y="670"/>
      <point x="470" y="688"/>
      <point x="368" y="688" type="curve"/>
      <point x="203" y="688"/>
      <point x="66" y="649"/>
      <point x="66" y="519" type="curve"/>
      <point x="66" y="399"/>
      <point x="180" y="362"/>
      <point x="315" y="322" type="curve"/>
      <point x="414" y="293"/>
      <point x="532" y="284"/>
      <point x="532" y="217" type="curve"/>
      <point x="532" y="152"/>
      <point x="443" y="156"/>
      <point x="350" y="156" type="curve"/>
      <point x="274" y="156"/>
      <point x="207" y="174"/>
      <point x="149" y="193" type="curve"/>
      <point x="65" y="90"/>
      <point x="149" y="194"/>
    </contour>
  </outline>
</glyph>
<glyph name="percent" format="1">
  <advance width="1314"/>
  <unicode hex="0025"/>
  <outline>
    <contour>
      <point x="466" y="-33" type="line"/>
      <point x="996" y="704" type="line"/>
      <point x="854" y="704" type="line"/>
      <point x="323" y="-33" type="line"/>
    </contour>
    <contour>
      <point x="189" y="483" type="curve"/>
      <point x="189" y="551"/>
      <point x="230" y="594"/>
      <point x="298" y="594" type="curve"/>
      <point x="367" y="595"/>
      <point x="409" y="551"/>
      <point x="409" y="481" type="curve"/>
      <point x="409" y="412"/>
      <point x="372" y="366"/>
      <point x="306" y="366" type="curve"/>
      <point x="234" y="366"/>
      <point x="189" y="410"/>
      <point x="189" y="483" type="curve"/>
      <point x="134" y="483"/>
      <point x="97" y="483"/>
      <point x="42" y="483" type="curve"/>
      <point x="42" y="335"/>
      <point x="145" y="253"/>
      <point x="299" y="253" type="curve"/>
      <point x="456" y="253"/>
      <point x="563" y="335"/>
      <point x="563" y="487" type="curve"/>
      <point x="563" y="631"/>
      <point x="457" y="707"/>
      <point x="305" y="707" type="curve"/>
      <point x="149" y="707"/>
      <point x="42" y="630"/>
      <point x="42" y="483" type="curve"/>
      <point x="97" y="483"/>
      <point x="134" y="483"/>
    </contour>
    <contour>
      <point x="900" y="190" type="curve"/>
      <point x="900" y="258"/>
      <point x="940" y="301"/>
      <point x="1008" y="301" type="curve"/>
      <point x="1078" y="302"/>
      <point x="1119" y="258"/>
      <point x="1119" y="188" type="curve"/>
      <point x="1119" y="119"/>
      <point x="1083" y="73"/>
      <point x="1017" y="73" type="curve"/>
      <point x="944" y="73"/>
      <point x="900" y="117"/>
      <point x="900" y="190" type="curve"/>
      <point x="845" y="190"/>
      <point x="807" y="190"/>
      <point x="752" y="190" type="curve"/>
      <point x="752" y="42"/>
      <point x="856" y="-40"/>
      <point x="1009" y="-40" type="curve"/>
      <point x="1166" y="-40"/>
      <point x="1273" y="42"/>
      <point x="1273" y="194" type="curve"/>
      <point x="1273" y="338"/>
      <point x="1167" y="414"/>
      <point x="1015" y="414" type="curve"/>
      <point x="860" y="414"/>
      <point x="752" y="337"/>
      <point x="752" y="190" type="curve"/>
      <point x="807" y="190"/>
      <point x="845" y="190"/>
    </contour>
  </outline>
</glyph>
<glyph name="ampersand" format="1">
  <advance width="879"/>
  <unicode hex="0026"/>
  <outline>
    <contour>
      <point x="853" y="81" type="line"/>
      <point x="732" y="170"/>
      <point x="584" y="284"/>
      <point x="459" y="379" type="curve"/>
      <point x="391" y="432"/>
      <point x="300" y="460"/>
      <point x="300" y="548" type="curve"/>
      <point x="300" y="590"/>
      <point x="334" y="613"/>
      <point x="379" y="613" type="curve"/>
      <point x="434" y="613"/>
      <point x="481" y="598"/>
      <point x="481" y="550" type="curve"/>
      <point x="481" y="469"/>
      <point x="400" y="453"/>
      <point x="321" y="421" type="curve"/>
      <point x="191" y="368"/>
      <point x="60" y="336"/>
      <point x="60" y="201" type="curve"/>
      <point x="60" y="51"/>
      <point x="204" y="-5"/>
      <point x="373" y="-5" type="curve"/>
      <point x="596" y="-5"/>
      <point x="752" y="107"/>
      <point x="843" y="311" type="curve"/>
      <point x="708" y="341"/>
      <point x="843" y="311"/>
      <point x="708" y="341" type="curve"/>
      <point x="642" y="195"/>
      <point x="537" y="109"/>
      <point x="380" y="109" type="curve"/>
      <point x="293" y="109"/>
      <point x="216" y="126"/>
      <point x="216" y="201" type="curve"/>
      <point x="216" y="286"/>
      <point x="303" y="297"/>
      <point x="385" y="330" type="curve"/>
      <point x="512" y="382"/>
      <point x="635" y="419"/>
      <point x="637" y="550" type="curve"/>
      <point x="637" y="675"/>
      <point x="524" y="727"/>
      <point x="387" y="727" type="curve"/>
      <point x="252" y="727"/>
      <point x="145" y="670"/>
      <point x="145" y="548" type="curve"/>
      <point x="145" y="430"/>
      <point x="256" y="380"/>
      <point x="352" y="311" type="curve"/>
      <point x="477" y="212"/>
      <point x="652" y="80"/>
      <point x="773" y="-13" type="curve"/>
    </contour>
  </outline>
</glyph>
<glyph name="parenleft" format="1">
  <advance width="475"/>
  <unicode hex="0028"/>
  <outline>
    <contour>
      <point x="472" y="-203" type="curve"/>
      <point x="292" y="-59"/>
      <point x="199" y="95"/>
      <point x="199" y="326" type="curve"/>
      <point x="199" y="558"/>
      <point x="291" y="711"/>
      <point x="471" y="859" type="curve"/>
      <point x="378" y="932"/>
      <point x="471" y="859"/>
      <point x="378" y="932" type="curve"/>
      <point x="167" y="765"/>
      <point x="45" y="597"/>
      <point x="45" y="326" type="curve"/>
      <point x="45" y="54"/>
      <point x="167" y="-113"/>
      <point x="379" y="-283" type="curve"/>
      <point x="472" y="-203"/>
      <point x="379" y="-283"/>
    </contour>
  </outline>
</glyph>
<glyph name="parenright" format="1">
  <advance width="482"/>
  <unicode hex="0029"/>
  <outline>
    <contour>
      <point x="87" y="-296" type="curve"/>
      <point x="303" y="-119"/>
      <point x="437" y="48"/>
      <point x="437" y="329" type="curve"/>
      <point x="437" y="603"/>
      <point x="310" y="769"/>
      <point x="92" y="935" type="curve"/>
      <point x="-1" y="855"/>
      <point x="92" y="935"/>
      <point x="-1" y="855" type="curve"/>
      <point x="184" y="709"/>
      <point x="284" y="558"/>
      <point x="284" y="324" type="curve"/>
      <point x="284" y="85"/>
      <point x="175" y="-66"/>
      <point x="-5" y="-223" type="curve"/>
      <point x="87" y="-296"/>
      <point x="-5" y="-223"/>
    </contour>
  </outline>
</glyph>
<glyph name="asterisk" format="1">
  <advance width="588"/>
  <unicode hex="002A"/>
  <outline>
    <contour>
      <point x="347" y="604" type="line"/>
      <point x="354" y="837" type="line"/>
      <point x="233" y="837" type="line"/>
      <point x="240" y="604" type="line"/>
    </contour>
    <contour>
      <point x="315" y="551" type="line"/>
      <point x="536" y="624" type="line"/>
      <point x="495" y="739" type="line"/>
      <point x="277" y="653" type="line"/>
    </contour>
    <contour>
      <point x="254" y="565" type="line"/>
      <point x="399" y="382" type="line"/>
      <point x="491" y="460" type="line"/>
      <point x="336" y="634" type="line"/>
    </contour>
    <contour>
      <point x="251" y="634" type="line"/>
      <point x="96" y="460" type="line"/>
      <point x="190" y="382" type="line"/>
      <point x="334" y="565" type="line"/>
    </contour>
    <contour>
      <point x="310" y="653" type="line"/>
      <point x="93" y="739" type="line"/>
      <point x="52" y="625" type="line"/>
      <point x="273" y="552" type="line"/>
    </contour>
  </outline>
</glyph>
<glyph name="plus" format="1">
  <advance width="724"/>
  <unicode hex="002B"/>
  <outline>
    <contour>
      <point x="45" y="251" type="curve"/>
      <point x="678" y="251" type="line"/>
      <point x="678" y="376"/>
      <point x="678" y="251"/>
      <point x="678" y="376" type="curve"/>
      <point x="45" y="376" type="line"/>
      <point x="45" y="251"/>
      <point x="45" y="376"/>
    </contour>
    <contour>
      <point x="439" y="22" type="curve"/>
      <point x="439" y="587" type="line"/>
      <point x="283" y="587"/>
      <point x="449" y="587"/>
      <point x="293" y="587" type="curve"/>
      <point x="293" y="22" type="line"/>
      <point x="449" y="22"/>
      <point x="283" y="22"/>
    </contour>
  </outline>
</glyph>
<glyph name="hyphen" format="1">
  <advance width="516"/>
  <unicode hex="002D"/>
  <outline>
    <contour>
      <point x="76" y="221" type="curve"/>
      <point x="197" y="221"/>
      <point x="318" y="221"/>
      <point x="439" y="221" type="curve"/>
      <point x="439" y="347"/>
      <point x="439" y="221"/>
      <point x="439" y="347" type="curve"/>
      <point x="318" y="347"/>
      <point x="197" y="347"/>
      <point x="76" y="347" type="curve"/>
      <point x="76" y="221"/>
      <point x="76" y="347"/>
    </contour>
  </outline>
</glyph>
<glyph name="slash" format="1">
  <advance width="745"/>
  <unicode hex="002F"/>
  <outline>
    <contour>
      <point x="185" y="-11" type="curve"/>
      <point x="361" y="253"/>
      <point x="539" y="516"/>
      <point x="716" y="779" type="curve"/>
      <point x="559" y="779"/>
      <point x="716" y="779"/>
      <point x="559" y="779" type="curve"/>
      <point x="382" y="516"/>
      <point x="206" y="253"/>
      <point x="29" y="-11" type="curve"/>
      <point x="185" y="-11"/>
      <point x="29" y="-11"/>
    </contour>
  </outline>
</glyph>
<glyph name="zero" format="1">
  <advance width="941"/>
  <unicode hex="0030"/>
  <outline>
    <contour>
      <point x="220" y="360" type="curve"/>
      <point x="220" y="516"/>
      <point x="311" y="607"/>
      <point x="465" y="607" type="curve"/>
      <point x="621" y="607"/>
      <point x="720" y="520"/>
      <point x="720" y="363" type="curve"/>
      <point x="720" y="207"/>
      <point x="629" y="115"/>
      <point x="478" y="115" type="curve"/>
      <point x="319" y="115"/>
      <point x="220" y="202"/>
      <point x="220" y="360" type="curve"/>
      <point x="61" y="360"/>
      <point x="220" y="360"/>
      <point x="61" y="360" type="curve"/>
      <point x="61" y="122"/>
      <point x="224" y="-5"/>
      <point x="471" y="-5" type="curve"/>
      <point x="719" y="-5"/>
      <point x="880" y="123"/>
      <point x="880" y="363" type="curve"/>
      <point x="880" y="599"/>
      <point x="722" y="727"/>
      <point x="480" y="727" type="curve"/>
      <point x="228" y="727"/>
      <point x="61" y="601"/>
      <point x="61" y="360" type="curve"/>
      <point x="220" y="360"/>
      <point x="61" y="360"/>
    </contour>
  </outline>
</glyph>
<glyph name="one" format="1">
  <advance width="567"/>
  <unicode hex="0031"/>
  <outline>
    <contour>
      <point x="333" y="0" type="curve"/>
      <point x="395" y="0"/>
      <point x="458" y="0"/>
      <point x="521" y="0" type="curve"/>
      <point x="521" y="115"/>
      <point x="521" y="0"/>
      <point x="521" y="115" type="curve"/>
      <point x="333" y="115"/>
      <point x="521" y="115"/>
      <point x="333" y="115" type="curve"/>
      <point x="333" y="0"/>
      <point x="333" y="115"/>
    </contour>
    <contour>
      <point x="333" y="115" type="curve"/>
      <point x="145" y="115"/>
      <point x="333" y="115"/>
      <point x="145" y="115" type="curve"/>
      <point x="145" y="0"/>
      <point x="145" y="115"/>
      <point x="145" y="0" type="curve"/>
      <point x="207" y="0"/>
      <point x="270" y="0"/>
      <point x="333" y="0" type="curve"/>
      <point x="333" y="115"/>
      <point x="333" y="0"/>
    </contour>
    <contour>
      <point x="87" y="465" type="curve"/>
      <point x="367" y="645"/>
      <point x="87" y="465"/>
      <point x="367" y="645" type="curve"/>
      <point x="252" y="722"/>
      <point x="367" y="645"/>
      <point x="252" y="722" type="curve"/>
      <point x="20" y="570"/>
      <point x="252" y="722"/>
      <point x="20" y="570" type="curve"/>
      <point x="87" y="465"/>
      <point x="20" y="570"/>
    </contour>
    <contour>
      <point x="408" y="0" type="curve"/>
      <point x="408" y="241"/>
      <point x="408" y="481"/>
      <point x="408" y="722" type="curve"/>
      <point x="252" y="722"/>
      <point x="408" y="722"/>
      <point x="252" y="722" type="curve"/>
      <point x="252" y="481"/>
      <point x="252" y="241"/>
      <point x="252" y="0" type="curve"/>
      <point x="408" y="0"/>
      <point x="252" y="0"/>
    </contour>
  </outline>
</glyph>
<glyph name="two" format="1">
  <advance width="776"/>
  <unicode hex="0032"/>
  <outline>
    <contour>
      <point x="710" y="114" type="curve"/>
      <point x="710" y="232"/>
      <point x="710" y="113"/>
      <point x="710" y="230" type="curve"/>
      <point x="590" y="230"/>
      <point x="710" y="230"/>
      <point x="590" y="230" type="curve"/>
      <point x="590" y="113"/>
      <point x="590" y="232"/>
      <point x="590" y="114" type="curve"/>
      <point x="710" y="114"/>
      <point x="590" y="114"/>
    </contour>
    <contour>
      <point x="54" y="0" type="curve"/>
      <point x="315" y="0"/>
      <point x="525" y="0"/>
      <point x="710" y="0" type="curve"/>
      <point x="710" y="114"/>
      <point x="710" y="0"/>
      <point x="710" y="114" type="curve"/>
      <point x="500" y="114"/>
      <point x="265" y="115"/>
      <point x="54" y="115" type="curve"/>
      <point x="54" y="0"/>
      <point x="54" y="114"/>
    </contour>
    <contour>
      <point x="163" y="505" type="curve"/>
      <point x="232" y="573"/>
      <point x="284" y="608"/>
      <point x="366" y="608" type="curve"/>
      <point x="451" y="608"/>
      <point x="516" y="582"/>
      <point x="516" y="502" type="curve"/>
      <point x="516" y="403"/>
      <point x="425" y="352"/>
      <point x="327" y="291" type="curve"/>
      <point x="236" y="232"/>
      <point x="146" y="174"/>
      <point x="54" y="115" type="curve"/>
      <point x="54" y="0"/>
      <point x="54" y="114"/>
      <point x="54" y="0" type="curve"/>
      <point x="232" y="66"/>
      <point x="326" y="134"/>
      <point x="426" y="200" type="curve"/>
      <point x="560" y="283"/>
      <point x="660" y="352"/>
      <point x="660" y="507" type="curve"/>
      <point x="660" y="665"/>
      <point x="542" y="727"/>
      <point x="373" y="727" type="curve"/>
      <point x="239" y="727"/>
      <point x="135" y="682"/>
      <point x="61" y="576" type="curve"/>
      <point x="163" y="505"/>
      <point x="61" y="576"/>
    </contour>
  </outline>
</glyph>
<glyph name="three" format="1">
  <advance width="694"/>
  <unicode hex="0033"/>
  <outline>
    <contour>
      <point x="47" y="54" type="curve"/>
      <point x="102" y="21"/>
      <point x="192" y="-5"/>
      <point x="292" y="-5" type="curve"/>
      <point x="485" y="-5"/>
      <point x="634" y="42"/>
      <point x="634" y="225" type="curve"/>
      <point x="634" y="377"/>
      <point x="446" y="420"/>
      <point x="199" y="420" type="curve"/>
      <point x="199" y="323"/>
      <point x="199" y="420"/>
      <point x="199" y="323" type="curve"/>
      <point x="338" y="323"/>
      <point x="485" y="306"/>
      <point x="485" y="220" type="curve"/>
      <point x="485" y="121"/>
      <point x="389" y="115"/>
      <point x="297" y="115" type="curve"/>
      <point x="249" y="115"/>
      <point x="178" y="127"/>
      <point x="114" y="153" type="curve"/>
      <point x="47" y="54"/>
      <point x="114" y="153"/>
    </contour>
    <contour>
      <point x="124" y="554" type="curve"/>
      <point x="161" y="581"/>
      <point x="229" y="608"/>
      <point x="289" y="608" type="curve"/>
      <point x="375" y="608"/>
      <point x="444" y="599"/>
      <point x="444" y="522" type="curve"/>
      <point x="444" y="444"/>
      <point x="322" y="430"/>
      <point x="199" y="430" type="curve"/>
      <point x="199" y="333"/>
      <point x="199" y="430"/>
      <point x="199" y="333" type="curve"/>
      <point x="412" y="333"/>
      <point x="593" y="376"/>
      <point x="593" y="528" type="curve"/>
      <point x="593" y="678"/>
      <point x="465" y="727"/>
      <point x="300" y="727" type="curve"/>
      <point x="194" y="727"/>
      <point x="95" y="688"/>
      <point x="47" y="642" type="curve"/>
      <point x="124" y="554"/>
      <point x="47" y="642"/>
    </contour>
  </outline>
</glyph>
<glyph name="four" format="1">
  <advance width="763"/>
  <unicode hex="0034"/>
  <outline>
    <contour>
      <point x="476" y="114" type="line"/>
      <point x="325" y="114" type="line"/>
      <point x="325" y="0" type="line"/>
      <point x="476" y="0" type="line"/>
    </contour>
    <contour>
      <point x="476" y="0" type="line"/>
      <point x="627" y="0" type="line"/>
      <point x="627" y="114" type="line"/>
      <point x="476" y="114" type="line"/>
    </contour>
    <contour>
      <point x="92" y="236" type="line"/>
      <point x="520" y="648" type="line"/>
      <point x="399" y="696" type="line"/>
      <point x="37" y="350" type="line"/>
    </contour>
    <contour>
      <point x="722" y="350" type="line"/>
      <point x="37" y="350" type="line"/>
      <point x="37" y="224" type="line"/>
      <point x="722" y="224" type="line"/>
    </contour>
    <contour>
      <point x="555" y="49" type="line"/>
      <point x="555" y="696" type="line"/>
      <point x="400" y="696" type="line"/>
      <point x="400" y="49" type="line"/>
    </contour>
  </outline>
</glyph>
<glyph name="five" format="1">
  <advance width="696"/>
  <unicode hex="0035"/>
  <outline>
    <contour>
      <point x="89" y="722" type="curve"/>
      <point x="89" y="628"/>
      <point x="89" y="516"/>
      <point x="89" y="371" type="curve"/>
      <point x="238" y="336"/>
      <point x="89" y="371"/>
      <point x="238" y="336" type="curve"/>
      <point x="238" y="420"/>
      <point x="238" y="524"/>
      <point x="238" y="608" type="curve"/>
      <point x="89" y="722"/>
      <point x="238" y="608"/>
    </contour>
    <contour>
      <point x="238" y="336" type="curve"/>
      <point x="260" y="355"/>
      <point x="307" y="364"/>
      <point x="333" y="364" type="curve"/>
      <point x="429" y="364"/>
      <point x="487" y="328"/>
      <point x="487" y="243" type="curve"/>
      <point x="487" y="156"/>
      <point x="404" y="114"/>
      <point x="307" y="114" type="curve"/>
      <point x="243" y="114"/>
      <point x="190" y="121"/>
      <point x="120" y="146" type="curve"/>
      <point x="52" y="43"/>
      <point x="120" y="146"/>
      <point x="52" y="43" type="curve"/>
      <point x="136" y="10"/>
      <point x="210" y="-5"/>
      <point x="300" y="-5" type="curve"/>
      <point x="485" y="-5"/>
      <point x="643" y="75"/>
      <point x="643" y="243" type="curve"/>
      <point x="643" y="403"/>
      <point x="516" y="486"/>
      <point x="340" y="486" type="curve"/>
      <point x="257" y="486"/>
      <point x="154" y="456"/>
      <point x="89" y="372" type="curve"/>
      <point x="238" y="336"/>
      <point x="89" y="372"/>
    </contour>
    <contour>
      <point x="602" y="722" type="curve"/>
      <point x="416" y="722"/>
      <point x="250" y="722"/>
      <point x="89" y="722" type="curve"/>
      <point x="238" y="608"/>
      <point x="89" y="722"/>
      <point x="238" y="608" type="curve"/>
      <point x="350" y="608"/>
      <point x="465" y="608"/>
      <point x="602" y="608" type="curve"/>
      <point x="602" y="722"/>
      <point x="602" y="608"/>
    </contour>
  </outline>
</glyph>
<glyph name="six" format="1">
  <advance width="773"/>
  <unicode hex="0036"/>
  <outline>
    <contour>
      <point x="183" y="222" type="curve"/>
      <point x="232" y="305"/>
      <point x="307" y="332"/>
      <point x="409" y="332" type="curve"/>
      <point x="496" y="332"/>
      <point x="562" y="307"/>
      <point x="562" y="226" type="curve"/>
      <point x="562" y="146"/>
      <point x="493" y="122"/>
      <point x="408" y="122" type="curve"/>
      <point x="293" y="122"/>
      <point x="206" y="162"/>
      <point x="206" y="261" type="curve"/>
      <point x="206" y="495"/>
      <point x="432" y="557"/>
      <point x="683" y="612" type="curve"/>
      <point x="649" y="727"/>
      <point x="683" y="612"/>
      <point x="649" y="727" type="curve"/>
      <point x="358" y="673"/>
      <point x="57" y="566"/>
      <point x="57" y="255" type="curve"/>
      <point x="57" y="71"/>
      <point x="201" y="-12"/>
      <point x="400" y="-12" type="curve"/>
      <point x="584" y="-12"/>
      <point x="719" y="60"/>
      <point x="719" y="226" type="curve"/>
      <point x="719" y="388"/>
      <point x="590" y="453"/>
      <point x="420" y="453" type="curve"/>
      <point x="270" y="453"/>
      <point x="155" y="374"/>
      <point x="80" y="277" type="curve"/>
      <point x="183" y="222"/>
      <point x="80" y="277"/>
    </contour>
  </outline>
</glyph>
<glyph name="seven" format="1">
  <advance width="685"/>
  <unicode hex="0037"/>
  <outline>
    <contour>
      <point x="176" y="491" type="line"/>
      <point x="176" y="608" type="line"/>
      <point x="56" y="608" type="line"/>
      <point x="56" y="491" type="line"/>
    </contour>
    <contour>
      <point x="56" y="608" type="line"/>
      <point x="662" y="608" type="line"/>
      <point x="662" y="722" type="line"/>
      <point x="56" y="722" type="line"/>
    </contour>
    <contour>
      <point x="568" y="722" type="line"/>
      <point x="88" y="0" type="line"/>
      <point x="266" y="0" type="line"/>
      <point x="662" y="608" type="line"/>
    </contour>
  </outline>
</glyph>
<glyph name="nine" format="1">
  <advance width="775"/>
  <unicode hex="0039"/>
  <outline>
    <contour>
      <point x="591" y="497" type="curve"/>
      <point x="542" y="416"/>
      <point x="476" y="390"/>
      <point x="381" y="390" type="curve"/>
      <point x="285" y="390"/>
      <point x="210" y="416"/>
      <point x="210" y="501" type="curve"/>
      <point x="210" y="577"/>
      <point x="280" y="598"/>
      <point x="366" y="598" type="curve"/>
      <point x="480" y="598"/>
      <point x="567" y="564"/>
      <point x="567" y="461" type="curve"/>
      <point x="567" y="228"/>
      <point x="350" y="171"/>
      <point x="92" y="114" type="curve"/>
      <point x="127" y="-6"/>
      <point x="91" y="114"/>
      <point x="127" y="-6" type="curve"/>
      <point x="444" y="45"/>
      <point x="717" y="156"/>
      <point x="717" y="467" type="curve"/>
      <point x="717" y="651"/>
      <point x="572" y="734"/>
      <point x="373" y="734" type="curve"/>
      <point x="189" y="734"/>
      <point x="55" y="662"/>
      <point x="55" y="496" type="curve"/>
      <point x="55" y="334"/>
      <point x="189" y="269"/>
      <point x="366" y="269" type="curve"/>
      <point x="516" y="269"/>
      <point x="605" y="330"/>
      <point x="666" y="458" type="curve"/>
      <point x="591" y="497"/>
      <point x="666" y="458"/>
    </contour>
  </outline>
</glyph>
<glyph name="colon" format="1">
  <advance width="336"/>
  <unicode hex="003A"/>
  <outline>
    <contour>
      <point x="260" y="369" type="curve"/>
      <point x="260" y="420"/>
      <point x="220" y="443"/>
      <point x="167" y="443" type="curve"/>
      <point x="114" y="443"/>
      <point x="78" y="417"/>
      <point x="78" y="369" type="curve"/>
      <point x="259" y="369"/>
      <point x="78" y="369"/>
      <point x="260" y="369" type="curve"/>
      <point x="260" y="317"/>
      <point x="220" y="295"/>
      <point x="166" y="295" type="curve"/>
      <point x="113" y="295"/>
      <point x="78" y="320"/>
      <point x="78" y="369" type="curve"/>
      <point x="259" y="369"/>
      <point x="78" y="369"/>
    </contour>
    <contour>
      <point x="259" y="72" type="curve"/>
      <point x="259" y="122"/>
      <point x="219" y="146"/>
      <point x="166" y="146" type="curve"/>
      <point x="113" y="146"/>
      <point x="77" y="119"/>
      <point x="77" y="72" type="curve"/>
      <point x="258" y="72"/>
      <point x="77" y="72"/>
      <point x="259" y="72" type="curve"/>
      <point x="259" y="20"/>
      <point x="219" y="-2"/>
      <point x="165" y="-2" type="curve"/>
      <point x="112" y="-2"/>
      <point x="77" y="23"/>
      <point x="77" y="72" type="curve"/>
      <point x="258" y="72"/>
      <point x="77" y="72"/>
    </contour>
  </outline>
</glyph>
<glyph name="semicolon" format="1">
  <advance width="351"/>
  <unicode hex="003B"/>
  <outline>
    <contour>
      <point x="77" y="-174" type="line"/>
      <point x="197" y="-174"/>
      <point x="281" y="-100"/>
      <point x="281" y="8" type="curve"/>
      <point x="281" y="89"/>
      <point x="239" y="151"/>
      <point x="172" y="151" type="curve"/>
      <point x="121" y="151"/>
      <point x="82" y="126"/>
      <point x="82" y="77" type="curve"/>
      <point x="82" y="27"/>
      <point x="121" y="1"/>
      <point x="177" y="1" type="curve"/>
      <point x="175" y="-45"/>
      <point x="158" y="-85"/>
      <point x="77" y="-94" type="curve"/>
    </contour>
    <contour>
      <point x="258" y="376" type="curve"/>
      <point x="258" y="427"/>
      <point x="219" y="451"/>
      <point x="166" y="451" type="curve"/>
      <point x="113" y="451"/>
      <point x="76" y="424"/>
      <point x="76" y="376" type="curve"/>
      <point x="258" y="376"/>
      <point x="77" y="376"/>
      <point x="258" y="376" type="curve"/>
      <point x="258" y="324"/>
      <point x="219" y="303"/>
      <point x="165" y="303" type="curve"/>
      <point x="112" y="303"/>
      <point x="76" y="327"/>
      <point x="76" y="376" type="curve"/>
      <point x="258" y="376"/>
      <point x="77" y="376"/>
    </contour>
  </outline>
</glyph>
<glyph name="less" format="1">
  <advance width="884"/>
  <unicode hex="003C"/>
  <outline>
    <contour>
      <point x="801" y="633" type="curve"/>
      <point x="548" y="543"/>
      <point x="295" y="453"/>
      <point x="42" y="363" type="curve"/>
      <point x="42" y="237"/>
      <point x="42" y="363"/>
      <point x="42" y="237" type="curve"/>
      <point x="295" y="327"/>
      <point x="548" y="417"/>
      <point x="801" y="507" type="curve"/>
      <point x="801" y="633"/>
      <point x="801" y="507"/>
    </contour>
    <contour>
      <point x="814" y="99" type="curve"/>
      <point x="557" y="187"/>
      <point x="300" y="275"/>
      <point x="42" y="363" type="curve"/>
      <point x="42" y="237"/>
      <point x="42" y="363"/>
      <point x="42" y="237" type="curve"/>
      <point x="300" y="149"/>
      <point x="557" y="61"/>
      <point x="814" y="-27" type="curve"/>
      <point x="814" y="99"/>
      <point x="814" y="-27"/>
    </contour>
  </outline>
</glyph>
<glyph name="equal" format="1">
  <advance width="949"/>
  <unicode hex="003D"/>
  <outline>
    <contour>
      <point x="83" y="157" type="curve"/>
      <point x="344" y="157"/>
      <point x="606" y="157"/>
      <point x="866" y="157" type="curve"/>
      <point x="866" y="278"/>
      <point x="866" y="157"/>
      <point x="866" y="278" type="curve"/>
      <point x="606" y="278"/>
      <point x="344" y="278"/>
      <point x="83" y="278" type="curve"/>
      <point x="83" y="157"/>
      <point x="83" y="278"/>
    </contour>
    <contour>
      <point x="83" y="379" type="curve"/>
      <point x="344" y="379"/>
      <point x="606" y="379"/>
      <point x="866" y="379" type="curve"/>
      <point x="866" y="500"/>
      <point x="866" y="379"/>
      <point x="866" y="500" type="curve"/>
      <point x="606" y="500"/>
      <point x="344" y="500"/>
      <point x="83" y="500" type="curve"/>
      <point x="83" y="379"/>
      <point x="83" y="500"/>
    </contour>
  </outline>
</glyph>
<glyph name="greater" format="1">
  <advance width="886"/>
  <unicode hex="003E"/>
  <outline>
    <contour>
      <point x="85" y="-27" type="curve"/>
      <point x="338" y="63"/>
      <point x="591" y="153"/>
      <point x="844" y="243" type="curve"/>
      <point x="844" y="369"/>
      <point x="844" y="243"/>
      <point x="844" y="369" type="curve"/>
      <point x="591" y="279"/>
      <point x="338" y="189"/>
      <point x="85" y="99" type="curve"/>
      <point x="85" y="-27"/>
      <point x="85" y="99"/>
    </contour>
    <contour>
      <point x="72" y="507" type="curve"/>
      <point x="329" y="419"/>
      <point x="587" y="331"/>
      <point x="844" y="243" type="curve"/>
      <point x="844" y="369"/>
      <point x="844" y="243"/>
      <point x="844" y="369" type="curve"/>
      <point x="587" y="457"/>
      <point x="329" y="545"/>
      <point x="72" y="633" type="curve"/>
      <point x="72" y="507"/>
      <point x="72" y="633"/>
    </contour>
  </outline>
</glyph>
<glyph name="question" format="1">
  <advance width="655"/>
  <unicode hex="003F"/>
  <outline>
    <contour>
      <point x="213" y="383" type="curve"/>
      <point x="213" y="346"/>
      <point x="213" y="258"/>
      <point x="213" y="221" type="curve"/>
      <point x="367" y="221"/>
      <point x="213" y="221"/>
      <point x="367" y="221" type="curve"/>
      <point x="367" y="258"/>
      <point x="367" y="346"/>
      <point x="367" y="383" type="curve"/>
      <point x="213" y="383"/>
      <point x="367" y="383"/>
    </contour>
    <contour>
      <point x="117" y="563" type="line"/>
      <point x="157" y="602"/>
      <point x="223" y="637"/>
      <point x="296" y="637" type="curve"/>
      <point x="384" y="637"/>
      <point x="455" y="602"/>
      <point x="455" y="519" type="curve"/>
      <point x="455" y="425"/>
      <point x="356" y="383"/>
      <point x="230" y="383" type="curve"/>
      <point x="230" y="341"/>
      <point x="230" y="311"/>
      <point x="230" y="269" type="curve"/>
      <point x="441" y="269"/>
      <point x="604" y="350"/>
      <point x="604" y="519" type="curve"/>
      <point x="604" y="677"/>
      <point x="474" y="756"/>
      <point x="304" y="756" type="curve"/>
      <point x="196" y="756"/>
      <point x="113" y="722"/>
      <point x="38" y="650" type="curve"/>
    </contour>
    <contour>
      <point x="383" y="22" type="curve"/>
      <point x="383" y="73"/>
      <point x="344" y="97"/>
      <point x="291" y="97" type="curve"/>
      <point x="238" y="97"/>
      <point x="202" y="70"/>
      <point x="202" y="22" type="curve"/>
      <point x="383" y="22"/>
      <point x="202" y="22"/>
      <point x="383" y="22" type="curve"/>
      <point x="383" y="-30"/>
      <point x="344" y="-51"/>
      <point x="290" y="-51" type="curve"/>
      <point x="237" y="-51"/>
      <point x="202" y="-27"/>
      <point x="202" y="22" type="curve"/>
      <point x="383" y="22"/>
      <point x="202" y="22"/>
    </contour>
  </outline>
</glyph>
<glyph name="at" format="1">
  <advance width="1079"/>
  <unicode hex="0040"/>
  <outline>
    <contour>
      <point x="733" y="4" type="curve"/>
      <point x="667" y="-17"/>
      <point x="621" y="-26"/>
      <point x="557" y="-26" type="curve"/>
      <point x="354" y="-26"/>
      <point x="203" y="35"/>
      <point x="203" y="215" type="curve"/>
      <point x="203" y="390"/>
      <point x="353" y="444"/>
      <point x="548" y="444" type="curve"/>
      <point x="733" y="444"/>
      <point x="872" y="382"/>
      <point x="872" y="215" type="curve"/>
      <point x="872" y="169"/>
      <point x="867" y="131"/>
      <point x="831" y="131" type="curve"/>
      <point x="789" y="131"/>
      <point x="775" y="169"/>
      <point x="775" y="220" type="curve"/>
      <point x="775" y="350"/>
      <point x="678" y="414"/>
      <point x="539" y="414" type="curve"/>
      <point x="385" y="414"/>
      <point x="278" y="355"/>
      <point x="278" y="215" type="curve"/>
      <point x="278" y="77"/>
      <point x="375" y="10"/>
      <point x="521" y="10" type="curve"/>
      <point x="647" y="10"/>
      <point x="725" y="75"/>
      <point x="753" y="198" type="curve"/>
      <point x="654" y="222"/>
      <point x="753" y="198"/>
      <point x="654" y="222" type="curve"/>
      <point x="634" y="161"/>
      <point x="603" y="124"/>
      <point x="542" y="124" type="curve"/>
      <point x="473" y="124"/>
      <point x="425" y="155"/>
      <point x="425" y="221" type="curve"/>
      <point x="425" y="277"/>
      <point x="467" y="300"/>
      <point x="525" y="300" type="curve"/>
      <point x="590" y="300"/>
      <point x="633" y="274"/>
      <point x="633" y="214" type="curve"/>
      <point x="633" y="96"/>
      <point x="700" y="23"/>
      <point x="818" y="23" type="curve"/>
      <point x="944" y="23"/>
      <point x="1019" y="96"/>
      <point x="1019" y="220" type="curve"/>
      <point x="1019" y="464"/>
      <point x="822" y="564"/>
      <point x="556" y="564" type="curve"/>
      <point x="268" y="564"/>
      <point x="55" y="469"/>
      <point x="55" y="209" type="curve"/>
      <point x="55" y="-46"/>
      <point x="265" y="-141"/>
      <point x="549" y="-141" type="curve"/>
      <point x="643" y="-141"/>
      <point x="721" y="-120"/>
      <point x="784" y="-92" type="curve"/>
      <point x="733" y="4"/>
      <point x="784" y="-92"/>
    </contour>
  </outline>
</glyph>
<glyph name="D" format="1">
  <advance width="1002"/>
  <unicode hex="0044"/>
  <outline>
    <contour>
      <point x="238" y="114" type="curve"/>
      <point x="77" y="114"/>
      <point x="238" y="114"/>
      <point x="77" y="114" type="curve"/>
      <point x="77" y="0"/>
      <point x="77" y="114"/>
      <point x="77" y="0" type="curve"/>
      <point x="130" y="0"/>
      <point x="184" y="0"/>
      <point x="238" y="0" type="curve"/>
      <point x="238" y="114"/>
      <point x="238" y="0"/>
    </contour>
    <contour>
      <point x="238" y="722" type="curve"/>
      <point x="184" y="722"/>
      <point x="130" y="722"/>
      <point x="77" y="722" type="curve"/>
      <point x="77" y="608"/>
      <point x="77" y="722"/>
      <point x="77" y="608" type="curve"/>
      <point x="238" y="608"/>
      <point x="77" y="608"/>
      <point x="238" y="608" type="curve"/>
      <point x="238" y="722"/>
      <point x="238" y="608"/>
    </contour>
    <contour>
      <point x="157" y="722" type="curve"/>
      <point x="157" y="481"/>
      <point x="157" y="241"/>
      <point x="157" y="0" type="curve"/>
      <point x="313" y="0"/>
      <point x="157" y="0"/>
      <point x="313" y="0" type="curve"/>
      <point x="313" y="241"/>
      <point x="313" y="481"/>
      <point x="313" y="722" type="curve"/>
      <point x="157" y="722"/>
      <point x="313" y="722"/>
    </contour>
    <contour>
      <point x="238" y="0" type="curve"/>
      <point x="319" y="0"/>
      <point x="400" y="0"/>
      <point x="481" y="0" type="curve"/>
      <point x="761" y="0"/>
      <point x="943" y="96"/>
      <point x="943" y="354" type="curve"/>
      <point x="943" y="619"/>
      <point x="759" y="722"/>
      <point x="474" y="722" type="curve"/>
      <point x="395" y="722"/>
      <point x="317" y="722"/>
      <point x="238" y="722" type="curve"/>
      <point x="238" y="608"/>
      <point x="238" y="722"/>
      <point x="238" y="608" type="curve"/>
      <point x="314" y="608"/>
      <point x="390" y="608"/>
      <point x="466" y="608" type="curve"/>
      <point x="663" y="608"/>
      <point x="788" y="533"/>
      <point x="788" y="349" type="curve"/>
      <point x="788" y="182"/>
      <point x="673" y="114"/>
      <point x="493" y="114" type="curve"/>
      <point x="408" y="114"/>
      <point x="323" y="114"/>
      <point x="238" y="114" type="curve"/>
      <point x="238" y="0"/>
      <point x="238" y="114"/>
    </contour>
    <contour>
      <point x="466" y="781" type="move" name="top"/>
    </contour>
  </outline>
</glyph>
<glyph name="E" format="1">
  <advance width="816"/>
  <unicode hex="0045"/>
  <outline>
    <contour>
      <point x="771" y="57" type="curve"/>
      <point x="771" y="177"/>
      <point x="771" y="57"/>
      <point x="771" y="177" type="curve"/>
      <point x="651" y="177"/>
      <point x="771" y="177"/>
      <point x="651" y="177" type="curve"/>
      <point x="651" y="57"/>
      <point x="651" y="177"/>
      <point x="651" y="57" type="curve"/>
      <point x="771" y="57"/>
      <point x="651" y="57"/>
    </contour>
    <contour>
      <point x="609" y="665" type="curve"/>
      <point x="609" y="545"/>
      <point x="609" y="665"/>
      <point x="609" y="545" type="curve"/>
      <point x="729" y="545"/>
      <point x="609" y="545"/>
      <point x="729" y="545" type="curve"/>
      <point x="729" y="665"/>
      <point x="729" y="545"/>
      <point x="729" y="665" type="curve"/>
      <point x="609" y="665"/>
      <point x="729" y="665"/>
    </contour>
    <contour>
      <point x="238" y="114" type="curve"/>
      <point x="77" y="114"/>
      <point x="238" y="114"/>
      <point x="77" y="114" type="curve"/>
      <point x="77" y="0"/>
      <point x="77" y="114"/>
      <point x="77" y="0" type="curve"/>
      <point x="130" y="0"/>
      <point x="184" y="0"/>
      <point x="238" y="0" type="curve"/>
      <point x="238" y="114"/>
      <point x="238" y="0"/>
    </contour>
    <contour>
      <point x="238" y="722" type="curve"/>
      <point x="184" y="722"/>
      <point x="130" y="722"/>
      <point x="77" y="722" type="curve"/>
      <point x="77" y="608"/>
      <point x="77" y="722"/>
      <point x="77" y="608" type="curve"/>
      <point x="238" y="608"/>
      <point x="77" y="608"/>
      <point x="238" y="608" type="curve"/>
      <point x="238" y="722"/>
      <point x="238" y="608"/>
    </contour>
    <contour>
      <point x="242" y="315" type="curve"/>
      <point x="378" y="315"/>
      <point x="514" y="315"/>
      <point x="650" y="315" type="curve"/>
      <point x="650" y="430"/>
      <point x="650" y="315"/>
      <point x="650" y="430" type="curve"/>
      <point x="514" y="430"/>
      <point x="378" y="430"/>
      <point x="242" y="430" type="curve"/>
      <point x="242" y="315"/>
      <point x="242" y="430"/>
    </contour>
    <contour>
      <point x="223" y="608" type="curve"/>
      <point x="391" y="608"/>
      <point x="560" y="608"/>
      <point x="729" y="608" type="curve"/>
      <point x="729" y="722"/>
      <point x="729" y="608"/>
      <point x="729" y="722" type="curve"/>
      <point x="560" y="722"/>
      <point x="391" y="722"/>
      <point x="223" y="722" type="curve"/>
      <point x="223" y="608"/>
      <point x="223" y="722"/>
    </contour>
    <contour>
      <point x="315" y="0" type="curve"/>
      <point x="315" y="722" type="line"/>
      <point x="158" y="722"/>
      <point x="315" y="722"/>
      <point x="158" y="722" type="curve"/>
      <point x="158" y="481"/>
      <point x="158" y="241"/>
      <point x="158" y="0" type="curve"/>
      <point x="315" y="0"/>
      <point x="158" y="0"/>
    </contour>
    <contour>
      <point x="223" y="0" type="curve"/>
      <point x="406" y="0"/>
      <point x="588" y="0"/>
      <point x="771" y="0" type="curve"/>
      <point x="771" y="114"/>
      <point x="771" y="0"/>
      <point x="771" y="114" type="curve"/>
      <point x="588" y="114"/>
      <point x="406" y="114"/>
      <point x="223" y="114" type="curve"/>
      <point x="223" y="0"/>
      <point x="223" y="114"/>
    </contour>
    <contour>
      <point x="411" y="781" type="move" name="top"/>
    </contour>
    <contour>
      <point x="694" y="13" type="move" name="bottom"/>
    </contour>
  </outline>
</glyph>
<glyph name="F" format="1">
  <advance width="762"/>
  <unicode hex="0046"/>
  <outline>
    <contour>
      <point x="236" y="0" type="curve"/>
      <point x="290" y="0"/>
      <point x="236" y="0"/>
      <point x="398" y="0" type="curve"/>
      <point x="398" y="114"/>
      <point x="398" y="0"/>
      <point x="398" y="114" type="curve"/>
      <point x="236" y="114"/>
      <point x="398" y="114"/>
      <point x="236" y="114" type="curve"/>
      <point x="236" y="0"/>
      <point x="236" y="114"/>
    </contour>
    <contour>
      <point x="236" y="722" type="curve"/>
      <point x="183" y="722"/>
      <point x="129" y="722"/>
      <point x="75" y="722" type="curve"/>
      <point x="75" y="608"/>
      <point x="75" y="722"/>
      <point x="75" y="608" type="curve"/>
      <point x="236" y="608"/>
      <point x="75" y="608"/>
      <point x="236" y="608" type="curve"/>
      <point x="236" y="722"/>
      <point x="236" y="608"/>
    </contour>
    <contour>
      <point x="236" y="114" type="curve"/>
      <point x="75" y="114"/>
      <point x="236" y="114"/>
      <point x="75" y="114" type="curve"/>
      <point x="75" y="0"/>
      <point x="75" y="114"/>
      <point x="75" y="0" type="curve"/>
      <point x="129" y="0"/>
      <point x="183" y="0"/>
      <point x="236" y="0" type="curve"/>
      <point x="236" y="114"/>
      <point x="236" y="0"/>
    </contour>
    <contour>
      <point x="614" y="665" type="curve"/>
      <point x="614" y="545"/>
      <point x="614" y="665"/>
      <point x="614" y="545" type="curve"/>
      <point x="734" y="545"/>
      <point x="614" y="545"/>
      <point x="734" y="545" type="curve"/>
      <point x="734" y="665"/>
      <point x="734" y="545"/>
      <point x="734" y="665" type="curve"/>
      <point x="614" y="665"/>
      <point x="734" y="665"/>
    </contour>
    <contour>
      <point x="242" y="315" type="curve"/>
      <point x="375" y="315"/>
      <point x="509" y="315"/>
      <point x="643" y="315" type="curve"/>
      <point x="643" y="430"/>
      <point x="643" y="315"/>
      <point x="643" y="430" type="curve"/>
      <point x="509" y="430"/>
      <point x="375" y="430"/>
      <point x="242" y="430" type="curve"/>
      <point x="242" y="315"/>
      <point x="242" y="430"/>
    </contour>
    <contour>
      <point x="315" y="0" type="curve"/>
      <point x="315" y="722" type="line"/>
      <point x="158" y="722"/>
      <point x="315" y="722"/>
      <point x="158" y="722" type="curve"/>
      <point x="158" y="481"/>
      <point x="158" y="241"/>
      <point x="158" y="0" type="curve"/>
      <point x="315" y="0"/>
      <point x="158" y="0"/>
    </contour>
    <contour>
      <point x="223" y="608" type="curve"/>
      <point x="393" y="608"/>
      <point x="563" y="608"/>
      <point x="734" y="608" type="curve"/>
      <point x="734" y="722"/>
      <point x="734" y="608"/>
      <point x="734" y="722" type="curve"/>
      <point x="563" y="722"/>
      <point x="393" y="722"/>
      <point x="223" y="722" type="curve"/>
      <point x="223" y="608"/>
      <point x="223" y="722"/>
    </contour>
  </outline>
</glyph>
<glyph name="G" format="1">
  <advance width="1000"/>
  <unicode hex="0047"/>
  <outline>
    <contour>
      <point x="788" y="646" type="curve"/>
      <point x="788" y="524"/>
      <point x="788" y="611"/>
      <point x="788" y="489" type="curve"/>
      <point x="907" y="489"/>
      <point x="788" y="489"/>
      <point x="907" y="489" type="curve"/>
      <point x="907" y="611"/>
      <point x="907" y="524"/>
      <point x="907" y="646" type="curve"/>
      <point x="788" y="646"/>
      <point x="907" y="646"/>
    </contour>
    <contour>
      <point x="886" y="373" type="curve"/>
      <point x="795" y="373"/>
      <point x="703" y="373"/>
      <point x="612" y="373" type="curve"/>
      <point x="612" y="258"/>
      <point x="612" y="373"/>
      <point x="612" y="258" type="curve"/>
      <point x="703" y="258"/>
      <point x="795" y="258"/>
      <point x="886" y="258" type="curve"/>
      <point x="886" y="373"/>
      <point x="886" y="258"/>
    </contour>
    <contour>
      <point x="929" y="79" type="curve"/>
      <point x="929" y="177"/>
      <point x="929" y="274"/>
      <point x="929" y="373" type="curve"/>
      <point x="787" y="373"/>
      <point x="929" y="373"/>
      <point x="787" y="373" type="curve"/>
      <point x="787" y="274"/>
      <point x="787" y="177"/>
      <point x="787" y="79" type="curve"/>
      <point x="929" y="79"/>
      <point x="787" y="79"/>
    </contour>
    <contour>
      <point x="907" y="646" type="curve"/>
      <point x="780" y="704"/>
      <point x="670" y="727"/>
      <point x="532" y="727" type="curve"/>
      <point x="255" y="727"/>
      <point x="58" y="617"/>
      <point x="58" y="359" type="curve"/>
      <point x="58" y="99"/>
      <point x="263" y="-5"/>
      <point x="545" y="-5" type="curve"/>
      <point x="694" y="-5"/>
      <point x="790" y="23"/>
      <point x="929" y="79" type="curve"/>
      <point x="850" y="164"/>
      <point x="929" y="79"/>
      <point x="850" y="164" type="curve"/>
      <point x="742" y="121"/>
      <point x="661" y="114"/>
      <point x="545" y="114" type="curve"/>
      <point x="351" y="114"/>
      <point x="215" y="190"/>
      <point x="215" y="371" type="curve"/>
      <point x="215" y="540"/>
      <point x="347" y="608"/>
      <point x="532" y="608" type="curve"/>
      <point x="641" y="608"/>
      <point x="728" y="594"/>
      <point x="829" y="548" type="curve"/>
      <point x="907" y="646"/>
      <point x="829" y="548"/>
    </contour>
    <contour>
      <point x="531" y="781" type="move" name="top"/>
    </contour>
    <contour>
      <point x="595" y="14" type="move" name="bottom"/>
    </contour>
  </outline>
</glyph>
<glyph name="H" format="1">
  <advance width="1044"/>
  <unicode hex="0048"/>
  <outline>
    <contour>
      <point x="837" y="608" type="curve"/>
      <point x="1025" y="608"/>
      <point x="810" y="608"/>
      <point x="998" y="608" type="curve"/>
      <point x="998" y="722"/>
      <point x="998" y="608"/>
      <point x="998" y="722" type="curve"/>
      <point x="935" y="722"/>
      <point x="900" y="722"/>
      <point x="837" y="722" type="curve"/>
      <point x="837" y="608"/>
      <point x="837" y="722"/>
    </contour>
    <contour>
      <point x="837" y="0" type="curve"/>
      <point x="900" y="0"/>
      <point x="935" y="0"/>
      <point x="998" y="0" type="curve"/>
      <point x="998" y="114"/>
      <point x="998" y="0"/>
      <point x="998" y="114" type="curve"/>
      <point x="810" y="114"/>
      <point x="1025" y="114"/>
      <point x="837" y="114" type="curve"/>
      <point x="837" y="0"/>
      <point x="837" y="114"/>
    </contour>
    <contour>
      <point x="837" y="114" type="curve"/>
      <point x="649" y="114"/>
      <point x="863" y="114"/>
      <point x="676" y="114" type="curve"/>
      <point x="676" y="0"/>
      <point x="676" y="114"/>
      <point x="676" y="0" type="curve"/>
      <point x="738" y="0"/>
      <point x="774" y="0"/>
      <point x="837" y="0" type="curve"/>
      <point x="837" y="114"/>
      <point x="837" y="0"/>
    </contour>
    <contour>
      <point x="837" y="722" type="curve"/>
      <point x="774" y="722"/>
      <point x="738" y="722"/>
      <point x="676" y="722" type="curve"/>
      <point x="676" y="608"/>
      <point x="676" y="722"/>
      <point x="676" y="608" type="curve"/>
      <point x="863" y="608"/>
      <point x="649" y="608"/>
      <point x="837" y="608" type="curve"/>
      <point x="837" y="722"/>
      <point x="837" y="608"/>
    </contour>
    <contour>
      <point x="207" y="608" type="curve"/>
      <point x="395" y="608"/>
      <point x="181" y="608"/>
      <point x="369" y="608" type="curve"/>
      <point x="369" y="722"/>
      <point x="369" y="608"/>
      <point x="369" y="722" type="curve"/>
      <point x="307" y="722"/>
      <point x="270" y="722"/>
      <point x="207" y="722" type="curve"/>
      <point x="207" y="608"/>
      <point x="207" y="722"/>
    </contour>
    <contour>
      <point x="207" y="722" type="curve"/>
      <point x="145" y="722"/>
      <point x="109" y="722"/>
      <point x="46" y="722" type="curve"/>
      <point x="46" y="608"/>
      <point x="46" y="722"/>
      <point x="46" y="608" type="curve"/>
      <point x="234" y="608"/>
      <point x="19" y="608"/>
      <point x="207" y="608" type="curve"/>
      <point x="207" y="722"/>
      <point x="207" y="608"/>
    </contour>
    <contour>
      <point x="207" y="0" type="curve"/>
      <point x="270" y="0"/>
      <point x="181" y="0"/>
      <point x="369" y="0" type="curve"/>
      <point x="369" y="114"/>
      <point x="369" y="0"/>
      <point x="369" y="114" type="curve"/>
      <point x="181" y="114"/>
      <point x="395" y="114"/>
      <point x="207" y="114" type="curve"/>
      <point x="207" y="0"/>
      <point x="207" y="114"/>
    </contour>
    <contour>
      <point x="207" y="114" type="curve"/>
      <point x="19" y="114"/>
      <point x="234" y="114"/>
      <point x="46" y="114" type="curve"/>
      <point x="46" y="0"/>
      <point x="46" y="114"/>
      <point x="46" y="0" type="curve"/>
      <point x="109" y="0"/>
      <point x="145" y="0"/>
      <point x="207" y="0" type="curve"/>
      <point x="207" y="114"/>
      <point x="207" y="0"/>
    </contour>
    <contour>
      <point x="286" y="0" type="curve"/>
      <point x="286" y="722" type="line"/>
      <point x="130" y="722"/>
      <point x="286" y="722"/>
      <point x="130" y="722" type="curve"/>
      <point x="130" y="481"/>
      <point x="130" y="241"/>
      <point x="130" y="0" type="curve"/>
      <point x="286" y="0"/>
      <point x="130" y="0"/>
    </contour>
    <contour>
      <point x="833" y="420" type="curve"/>
      <point x="624" y="420"/>
      <point x="416" y="420"/>
      <point x="207" y="420" type="curve"/>
      <point x="207" y="305"/>
      <point x="207" y="420"/>
      <point x="207" y="305" type="curve"/>
      <point x="416" y="305"/>
      <point x="624" y="305"/>
      <point x="833" y="305" type="curve"/>
      <point x="833" y="420"/>
      <point x="833" y="305"/>
    </contour>
    <contour>
      <point x="914" y="49" type="curve"/>
      <point x="914" y="257"/>
      <point x="914" y="465"/>
      <point x="914" y="673" type="curve"/>
      <point x="758" y="673"/>
      <point x="914" y="673"/>
      <point x="758" y="673" type="curve"/>
      <point x="758" y="49" type="line"/>
      <point x="914" y="49"/>
      <point x="758" y="49"/>
    </contour>
  </outline>
</glyph>
<glyph name="J" format="1">
  <advance width="575"/>
  <unicode hex="004A"/>
  <outline>
    <contour>
      <point x="387" y="722" type="curve"/>
      <point x="326" y="722"/>
      <point x="289" y="722"/>
      <point x="227" y="722" type="curve"/>
      <point x="227" y="608"/>
      <point x="227" y="722"/>
      <point x="227" y="608" type="curve"/>
      <point x="414" y="608"/>
      <point x="200" y="608"/>
      <point x="387" y="608" type="curve"/>
      <point x="387" y="722"/>
      <point x="387" y="608"/>
    </contour>
    <contour>
      <point x="387" y="608" type="curve"/>
      <point x="575" y="608"/>
      <point x="361" y="608"/>
      <point x="548" y="608" type="curve"/>
      <point x="548" y="722"/>
      <point x="548" y="608"/>
      <point x="548" y="722" type="curve"/>
      <point x="486" y="722"/>
      <point x="450" y="722"/>
      <point x="387" y="722" type="curve"/>
      <point x="387" y="608"/>
      <point x="387" y="722"/>
    </contour>
    <contour>
      <point x="-4" y="45" type="curve"/>
      <point x="38" y="22"/>
      <point x="98" y="-5"/>
      <point x="171" y="-5" type="curve"/>
      <point x="349" y="-5"/>
      <point x="464" y="73"/>
      <point x="464" y="246" type="curve"/>
      <point x="464" y="404"/>
      <point x="464" y="565"/>
      <point x="464" y="722" type="curve"/>
      <point x="309" y="722"/>
      <point x="464" y="722"/>
      <point x="309" y="722" type="curve"/>
      <point x="309" y="565"/>
      <point x="309" y="404"/>
      <point x="309" y="246" type="curve"/>
      <point x="309" y="160"/>
      <point x="258" y="109"/>
      <point x="171" y="109" type="curve"/>
      <point x="130" y="109"/>
      <point x="102" y="120"/>
      <point x="67" y="136" type="curve"/>
      <point x="-4" y="45"/>
      <point x="67" y="136"/>
    </contour>
  </outline>
</glyph>
<glyph name="K" format="1">
  <advance width="914"/>
  <unicode hex="004B"/>
  <outline>
    <contour>
      <point x="717" y="722" type="curve"/>
      <point x="652" y="722"/>
      <point x="499" y="722"/>
      <point x="433" y="722" type="curve"/>
      <point x="433" y="608"/>
      <point x="433" y="722"/>
      <point x="433" y="608" type="curve"/>
      <point x="627" y="608"/>
      <point x="523" y="608"/>
      <point x="717" y="608" type="curve"/>
      <point x="717" y="722"/>
      <point x="717" y="608"/>
    </contour>
    <contour>
      <point x="725" y="0" type="curve"/>
      <point x="789" y="0"/>
      <point x="795" y="0"/>
      <point x="860" y="0" type="curve"/>
      <point x="860" y="114"/>
      <point x="860" y="0"/>
      <point x="860" y="114" type="curve"/>
      <point x="666" y="114"/>
      <point x="918" y="114"/>
      <point x="725" y="114" type="curve"/>
      <point x="725" y="0"/>
      <point x="725" y="114"/>
    </contour>
    <contour>
      <point x="714" y="608" type="curve"/>
      <point x="894" y="608"/>
      <point x="635" y="608"/>
      <point x="815" y="608" type="curve"/>
      <point x="815" y="722"/>
      <point x="815" y="608"/>
      <point x="815" y="722" type="curve"/>
      <point x="755" y="722"/>
      <point x="773" y="722"/>
      <point x="714" y="722" type="curve"/>
      <point x="714" y="608"/>
      <point x="714" y="722"/>
    </contour>
    <contour>
      <point x="207" y="722" type="curve"/>
      <point x="144" y="722"/>
      <point x="109" y="722"/>
      <point x="46" y="722" type="curve"/>
      <point x="46" y="608"/>
      <point x="46" y="722"/>
      <point x="46" y="608" type="curve"/>
      <point x="233" y="608"/>
      <point x="19" y="608"/>
      <point x="207" y="608" type="curve"/>
      <point x="207" y="722"/>
      <point x="207" y="608"/>
    </contour>
    <contour>
      <point x="207" y="608" type="curve"/>
      <point x="374" y="608"/>
      <point x="188" y="608"/>
      <point x="355" y="608" type="curve"/>
      <point x="355" y="722"/>
      <point x="355" y="608"/>
      <point x="355" y="722" type="curve"/>
      <point x="299" y="722"/>
      <point x="263" y="722"/>
      <point x="207" y="722" type="curve"/>
      <point x="207" y="608"/>
      <point x="207" y="722"/>
    </contour>
    <contour>
      <point x="207" y="0" type="curve"/>
      <point x="270" y="0"/>
      <point x="177" y="0"/>
      <point x="366" y="0" type="curve"/>
      <point x="366" y="114"/>
      <point x="366" y="0"/>
      <point x="366" y="114" type="curve"/>
      <point x="177" y="114"/>
      <point x="396" y="114"/>
      <point x="207" y="114" type="curve"/>
      <point x="207" y="0"/>
      <point x="207" y="114"/>
    </contour>
    <contour>
      <point x="207" y="114" type="curve"/>
      <point x="19" y="114"/>
      <point x="233" y="114"/>
      <point x="46" y="114" type="curve"/>
      <point x="46" y="0"/>
      <point x="46" y="114"/>
      <point x="46" y="0" type="curve"/>
      <point x="109" y="0"/>
      <point x="144" y="0"/>
      <point x="207" y="0" type="curve"/>
      <point x="207" y="114"/>
      <point x="207" y="0"/>
    </contour>
    <contour>
      <point x="646" y="722" type="curve"/>
      <point x="233" y="380" type="line"/>
      <point x="430" y="380"/>
      <point x="229" y="380"/>
      <point x="426" y="380" type="curve"/>
      <point x="788" y="673" type="line"/>
      <point x="566" y="673"/>
      <point x="869" y="722"/>
    </contour>
    <contour>
      <point x="285" y="0" type="curve"/>
      <point x="285" y="722" type="line"/>
      <point x="129" y="722"/>
      <point x="285" y="722"/>
      <point x="129" y="722" type="curve"/>
      <point x="129" y="481"/>
      <point x="129" y="241"/>
      <point x="129" y="0" type="curve"/>
      <point x="285" y="0"/>
      <point x="129" y="0"/>
    </contour>
    <contour>
      <point x="826" y="52" type="curve"/>
      <point x="426" y="380" type="line"/>
      <point x="229" y="380"/>
      <point x="430" y="380"/>
      <point x="233" y="380" type="curve"/>
      <point x="673" y="0" type="line"/>
      <point x="903" y="0"/>
      <point x="595" y="52"/>
    </contour>
    <contour>
      <point x="498" y="5" type="move" name="bottom"/>
    </contour>
  </outline>
</glyph>
<glyph name="M" format="1">
  <advance width="1203"/>
  <unicode hex="004D"/>
  <outline>
    <contour>
      <point x="1023" y="0" type="curve"/>
      <point x="1085" y="0"/>
      <point x="1121" y="0"/>
      <point x="1183" y="0" type="curve"/>
      <point x="1183" y="114"/>
      <point x="1183" y="0"/>
      <point x="1183" y="114" type="curve"/>
      <point x="997" y="114"/>
      <point x="1209" y="114"/>
      <point x="1023" y="114" type="curve"/>
      <point x="1023" y="0"/>
      <point x="1023" y="114"/>
    </contour>
    <contour>
      <point x="1023" y="114" type="curve"/>
      <point x="837" y="114"/>
      <point x="1050" y="114"/>
      <point x="864" y="114" type="curve"/>
      <point x="864" y="0"/>
      <point x="864" y="114"/>
      <point x="864" y="0" type="curve"/>
      <point x="925" y="0"/>
      <point x="961" y="0"/>
      <point x="1023" y="0" type="curve"/>
      <point x="1023" y="114"/>
      <point x="1023" y="0"/>
    </contour>
    <contour>
      <point x="183" y="114" type="curve"/>
      <point x="-4" y="114"/>
      <point x="210" y="114"/>
      <point x="23" y="114" type="curve"/>
      <point x="23" y="0"/>
      <point x="23" y="114"/>
      <point x="23" y="0" type="curve"/>
      <point x="85" y="0"/>
      <point x="120" y="0"/>
      <point x="183" y="0" type="curve"/>
      <point x="183" y="114"/>
      <point x="183" y="0"/>
    </contour>
    <contour>
      <point x="248" y="722" type="curve"/>
      <point x="185" y="722"/>
      <point x="149" y="722"/>
      <point x="88" y="722" type="curve"/>
      <point x="87" y="608"/>
      <point x="88" y="722"/>
      <point x="87" y="608" type="curve"/>
      <point x="274" y="608"/>
      <point x="61" y="608"/>
      <point x="248" y="608" type="curve"/>
      <point x="248" y="722"/>
      <point x="248" y="608"/>
    </contour>
    <contour>
      <point x="956" y="608" type="curve"/>
      <point x="1143" y="608"/>
      <point x="930" y="608"/>
      <point x="1117" y="608" type="curve"/>
      <point x="1117" y="722"/>
      <point x="1117" y="608"/>
      <point x="1117" y="722" type="curve"/>
      <point x="1054" y="722"/>
      <point x="1019" y="722"/>
      <point x="956" y="722" type="curve"/>
      <point x="956" y="608"/>
      <point x="956" y="722"/>
    </contour>
    <contour>
      <point x="183" y="0" type="curve"/>
      <point x="244" y="0"/>
      <point x="157" y="0"/>
      <point x="342" y="0" type="curve"/>
      <point x="342" y="114"/>
      <point x="342" y="0"/>
      <point x="342" y="114" type="curve"/>
      <point x="157" y="114"/>
      <point x="369" y="114"/>
      <point x="183" y="114" type="curve"/>
      <point x="183" y="0"/>
      <point x="183" y="114"/>
    </contour>
    <contour>
      <point x="1110" y="0" type="curve"/>
      <point x="1085" y="241"/>
      <point x="1053" y="481"/>
      <point x="1027" y="722" type="curve"/>
      <point x="885" y="722"/>
      <point x="1027" y="722"/>
      <point x="885" y="722" type="curve"/>
      <point x="910" y="482"/>
      <point x="929" y="240"/>
      <point x="954" y="0" type="curve"/>
      <point x="1110" y="0"/>
      <point x="954" y="0"/>
    </contour>
    <contour>
      <point x="250" y="0" type="curve"/>
      <point x="274" y="241"/>
      <point x="297" y="481"/>
      <point x="321" y="722" type="curve"/>
      <point x="169" y="722"/>
      <point x="321" y="722"/>
      <point x="169" y="722" type="curve"/>
      <point x="144" y="481"/>
      <point x="120" y="241"/>
      <point x="96" y="0" type="curve"/>
      <point x="250" y="0"/>
      <point x="96" y="0"/>
    </contour>
    <contour>
      <point x="674" y="0" type="curve"/>
      <point x="558" y="241"/>
      <point x="441" y="481"/>
      <point x="324" y="722" type="curve"/>
      <point x="171" y="722"/>
      <point x="324" y="722"/>
      <point x="171" y="722" type="curve"/>
      <point x="288" y="481"/>
      <point x="404" y="241"/>
      <point x="521" y="0" type="curve"/>
      <point x="674" y="0"/>
      <point x="521" y="0"/>
    </contour>
    <contour>
      <point x="686" y="0" type="curve"/>
      <point x="800" y="241"/>
      <point x="914" y="481"/>
      <point x="1029" y="722" type="curve"/>
      <point x="877" y="722"/>
      <point x="1029" y="722"/>
      <point x="876" y="722" type="curve"/>
      <point x="761" y="481"/>
      <point x="646" y="241"/>
      <point x="531" y="0" type="curve"/>
      <point x="686" y="0"/>
      <point x="531" y="0"/>
    </contour>
  </outline>
</glyph>
<glyph name="P" format="1">
  <advance width="804"/>
  <unicode hex="0050"/>
  <outline>
    <contour>
      <point x="237" y="722" type="curve"/>
      <point x="184" y="722"/>
      <point x="130" y="722"/>
      <point x="76" y="722" type="curve"/>
      <point x="76" y="608"/>
      <point x="76" y="722"/>
      <point x="76" y="608" type="curve"/>
      <point x="237" y="608"/>
      <point x="76" y="608"/>
      <point x="237" y="608" type="curve"/>
      <point x="237" y="722"/>
      <point x="237" y="608"/>
    </contour>
    <contour>
      <point x="237" y="114" type="curve"/>
      <point x="76" y="114"/>
      <point x="237" y="114"/>
      <point x="76" y="114" type="curve"/>
      <point x="76" y="0"/>
      <point x="76" y="114"/>
      <point x="76" y="0" type="curve"/>
      <point x="130" y="0"/>
      <point x="184" y="0"/>
      <point x="237" y="0" type="curve"/>
      <point x="237" y="114"/>
      <point x="237" y="0"/>
    </contour>
    <contour>
      <point x="237" y="0" type="curve"/>
      <point x="291" y="0"/>
      <point x="237" y="0"/>
      <point x="399" y="0" type="curve"/>
      <point x="399" y="114"/>
      <point x="399" y="0"/>
      <point x="399" y="114" type="curve"/>
      <point x="237" y="114"/>
      <point x="399" y="114"/>
      <point x="237" y="114" type="curve"/>
      <point x="237" y="0"/>
      <point x="237" y="114"/>
    </contour>
    <contour>
      <point x="215" y="289" type="curve"/>
      <point x="286" y="262"/>
      <point x="376" y="244"/>
      <point x="454" y="244" type="curve"/>
      <point x="640" y="247"/>
      <point x="766" y="311"/>
      <point x="766" y="482" type="curve"/>
      <point x="766" y="654"/>
      <point x="605" y="722"/>
      <point x="410" y="722" type="curve"/>
      <point x="353" y="722"/>
      <point x="297" y="722"/>
      <point x="241" y="722" type="curve"/>
      <point x="241" y="608"/>
      <point x="241" y="722"/>
      <point x="241" y="608" type="curve"/>
      <point x="290" y="608"/>
      <point x="339" y="608"/>
      <point x="388" y="608" type="curve"/>
      <point x="508" y="608"/>
      <point x="611" y="581"/>
      <point x="611" y="485" type="curve"/>
      <point x="611" y="392"/>
      <point x="532" y="358"/>
      <point x="439" y="358" type="curve"/>
      <point x="373" y="358"/>
      <point x="325" y="369"/>
      <point x="264" y="391" type="curve"/>
      <point x="215" y="289"/>
      <point x="264" y="391"/>
    </contour>
    <contour>
      <point x="314" y="0" type="curve"/>
      <point x="314" y="241"/>
      <point x="314" y="481"/>
      <point x="314" y="722" type="curve"/>
      <point x="158" y="722"/>
      <point x="314" y="722"/>
      <point x="158" y="722" type="curve"/>
      <point x="158" y="481"/>
      <point x="158" y="241"/>
      <point x="158" y="0" type="curve"/>
      <point x="314" y="0"/>
      <point x="158" y="0"/>
    </contour>
  </outline>
</glyph>
<glyph name="Q" format="1">
  <advance width="991"/>
  <unicode hex="0051"/>
  <outline>
    <contour>
      <point x="431" y="27" type="curve"/>
      <point x="586" y="-170"/>
      <point x="746" y="-210"/>
      <point x="983" y="-210" type="curve"/>
      <point x="983" y="-90"/>
      <point x="983" y="-210"/>
      <point x="983" y="-90" type="curve"/>
      <point x="805" y="-90"/>
      <point x="684" y="-65"/>
      <point x="565" y="85" type="curve"/>
      <point x="431" y="27"/>
      <point x="565" y="85"/>
    </contour>
    <contour>
      <point x="213" y="360" type="curve"/>
      <point x="213" y="517"/>
      <point x="328" y="603"/>
      <point x="486" y="603" type="curve"/>
      <point x="650" y="603"/>
      <point x="762" y="520"/>
      <point x="762" y="360" type="curve"/>
      <point x="762" y="202"/>
      <point x="652" y="114"/>
      <point x="493" y="114" type="curve"/>
      <point x="328" y="114"/>
      <point x="213" y="200"/>
      <point x="213" y="360" type="curve"/>
      <point x="57" y="360"/>
      <point x="213" y="360"/>
      <point x="57" y="360" type="curve"/>
      <point x="57" y="121"/>
      <point x="238" y="-5"/>
      <point x="485" y="-5" type="curve"/>
      <point x="737" y="-5"/>
      <point x="918" y="124"/>
      <point x="918" y="366" type="curve"/>
      <point x="918" y="605"/>
      <point x="742" y="732"/>
      <point x="494" y="732" type="curve"/>
      <point x="241" y="732"/>
      <point x="57" y="603"/>
      <point x="57" y="360" type="curve"/>
      <point x="213" y="360"/>
      <point x="57" y="360"/>
    </contour>
  </outline>
</glyph>
<glyph name="T" format="1">
  <advance width="824"/>
  <unicode hex="0054"/>
  <outline>
    <contour>
      <point x="26" y="664" type="curve"/>
      <point x="26" y="544"/>
      <point x="26" y="664"/>
      <point x="26" y="544" type="curve"/>
      <point x="145" y="544"/>
      <point x="26" y="544"/>
      <point x="145" y="544" type="curve"/>
      <point x="145" y="664"/>
      <point x="145" y="544"/>
      <point x="145" y="664" type="curve"/>
      <point x="26" y="664"/>
      <point x="145" y="664"/>
    </contour>
    <contour>
      <point x="678" y="664" type="curve"/>
      <point x="678" y="544"/>
      <point x="678" y="664"/>
      <point x="678" y="544" type="curve"/>
      <point x="798" y="544"/>
      <point x="678" y="544"/>
      <point x="798" y="544" type="curve"/>
      <point x="798" y="664"/>
      <point x="798" y="544"/>
      <point x="798" y="664" type="curve"/>
      <point x="678" y="664"/>
      <point x="798" y="664"/>
    </contour>
    <contour>
      <point x="411" y="0" type="curve"/>
      <point x="464" y="0"/>
      <point x="518" y="0"/>
      <point x="572" y="0" type="curve"/>
      <point x="572" y="114"/>
      <point x="572" y="0"/>
      <point x="572" y="114" type="curve"/>
      <point x="411" y="114"/>
      <point x="572" y="114"/>
      <point x="411" y="114" type="curve"/>
      <point x="411" y="0"/>
      <point x="411" y="114"/>
    </contour>
    <contour>
      <point x="411" y="114" type="curve"/>
      <point x="250" y="114"/>
      <point x="411" y="114"/>
      <point x="250" y="114" type="curve"/>
      <point x="250" y="0"/>
      <point x="250" y="114"/>
      <point x="250" y="0" type="curve"/>
      <point x="303" y="0"/>
      <point x="357" y="0"/>
      <point x="411" y="0" type="curve"/>
      <point x="411" y="114"/>
      <point x="411" y="0"/>
    </contour>
    <contour>
      <point x="490" y="0" type="curve"/>
      <point x="490" y="237"/>
      <point x="490" y="473"/>
      <point x="490" y="710" type="curve"/>
      <point x="334" y="710"/>
      <point x="490" y="710"/>
      <point x="334" y="710" type="curve"/>
      <point x="334" y="473"/>
      <point x="334" y="237"/>
      <point x="334" y="0" type="curve"/>
      <point x="490" y="0"/>
      <point x="334" y="0"/>
    </contour>
    <contour>
      <point x="26" y="601" type="curve"/>
      <point x="283" y="601"/>
      <point x="541" y="601"/>
      <point x="798" y="601" type="curve"/>
      <point x="798" y="727"/>
      <point x="798" y="596"/>
      <point x="798" y="722" type="curve"/>
      <point x="541" y="722"/>
      <point x="283" y="722"/>
      <point x="26" y="722" type="curve"/>
      <point x="26" y="596"/>
      <point x="26" y="727"/>
    </contour>
    <contour>
      <point x="408" y="781" type="move" name="top"/>
    </contour>
    <contour>
      <point x="454" y="5" type="move" name="bottom"/>
    </contour>
  </outline>
</glyph>
<glyph name="V" format="1">
  <advance width="951"/>
  <unicode hex="0056"/>
  <outline>
    <contour>
      <point x="785" y="722" type="curve"/>
      <point x="726" y="722"/>
      <point x="666" y="722"/>
      <point x="608" y="722" type="curve"/>
      <point x="608" y="608"/>
      <point x="608" y="722"/>
      <point x="608" y="608" type="curve"/>
      <point x="785" y="608"/>
      <point x="608" y="608"/>
      <point x="785" y="608" type="curve"/>
      <point x="785" y="722"/>
      <point x="785" y="608"/>
    </contour>
    <contour>
      <point x="145" y="722" type="curve"/>
      <point x="98" y="722"/>
      <point x="51" y="722"/>
      <point x="3" y="722" type="curve"/>
      <point x="3" y="608"/>
      <point x="3" y="722"/>
      <point x="3" y="608" type="curve"/>
      <point x="145" y="608"/>
      <point x="3" y="608"/>
      <point x="145" y="608" type="curve"/>
      <point x="145" y="722"/>
      <point x="145" y="608"/>
    </contour>
    <contour>
      <point x="803" y="608" type="curve"/>
      <point x="945" y="608"/>
      <point x="803" y="608"/>
      <point x="945" y="608" type="curve"/>
      <point x="945" y="722"/>
      <point x="945" y="608"/>
      <point x="945" y="722" type="curve"/>
      <point x="898" y="722"/>
      <point x="850" y="722"/>
      <point x="803" y="722" type="curve"/>
      <point x="803" y="608"/>
      <point x="803" y="722"/>
    </contour>
    <contour>
      <point x="164" y="608" type="curve"/>
      <point x="340" y="608"/>
      <point x="164" y="608"/>
      <point x="340" y="608" type="curve"/>
      <point x="340" y="722"/>
      <point x="340" y="608"/>
      <point x="340" y="722" type="curve"/>
      <point x="282" y="722"/>
      <point x="222" y="722"/>
      <point x="164" y="722" type="curve"/>
      <point x="164" y="608"/>
      <point x="164" y="722"/>
    </contour>
    <contour>
      <point x="748" y="722" type="curve"/>
      <point x="632" y="481"/>
      <point x="518" y="241"/>
      <point x="403" y="0" type="curve"/>
      <point x="562" y="0"/>
      <point x="402" y="0"/>
      <point x="560" y="0" type="curve"/>
      <point x="675" y="241"/>
      <point x="790" y="481"/>
      <point x="906" y="722" type="curve"/>
      <point x="748" y="722"/>
      <point x="906" y="722"/>
    </contour>
    <contour>
      <point x="42" y="722" type="curve"/>
      <point x="159" y="481"/>
      <point x="277" y="241"/>
      <point x="394" y="0" type="curve"/>
      <point x="553" y="0"/>
      <point x="393" y="0"/>
      <point x="551" y="0" type="curve"/>
      <point x="435" y="241"/>
      <point x="318" y="481"/>
      <point x="202" y="722" type="curve"/>
      <point x="42" y="722"/>
      <point x="202" y="722"/>
    </contour>
  </outline>
</glyph>
<glyph name="W" format="1">
  <advance width="1222"/>
  <unicode hex="0057"/>
  <outline>
    <contour>
      <point x="174" y="608" type="curve"/>
      <point x="323" y="608"/>
      <point x="174" y="608"/>
      <point x="323" y="608" type="curve"/>
      <point x="323" y="722"/>
      <point x="323" y="608"/>
      <point x="323" y="722" type="curve"/>
      <point x="273" y="722"/>
      <point x="223" y="722"/>
      <point x="174" y="722" type="curve"/>
      <point x="174" y="608"/>
      <point x="174" y="722"/>
    </contour>
    <contour>
      <point x="173" y="722" type="curve"/>
      <point x="119" y="722"/>
      <point x="66" y="722"/>
      <point x="13" y="722" type="curve"/>
      <point x="13" y="608"/>
      <point x="13" y="722"/>
      <point x="13" y="608" type="curve"/>
      <point x="173" y="608"/>
      <point x="13" y="608"/>
      <point x="173" y="608" type="curve"/>
      <point x="173" y="722"/>
      <point x="173" y="608"/>
    </contour>
    <contour>
      <point x="1053" y="722" type="curve"/>
      <point x="1003" y="722"/>
      <point x="954" y="722"/>
      <point x="904" y="722" type="curve"/>
      <point x="904" y="608"/>
      <point x="904" y="722"/>
      <point x="904" y="608" type="curve"/>
      <point x="1053" y="608"/>
      <point x="904" y="608"/>
      <point x="1053" y="608" type="curve"/>
      <point x="1053" y="722"/>
      <point x="1053" y="608"/>
    </contour>
    <contour>
      <point x="1054" y="608" type="curve"/>
      <point x="1213" y="608"/>
      <point x="1054" y="608"/>
      <point x="1213" y="608" type="curve"/>
      <point x="1213" y="722"/>
      <point x="1213" y="608"/>
      <point x="1213" y="722" type="curve"/>
      <point x="1161" y="722"/>
      <point x="1107" y="722"/>
      <point x="1054" y="722" type="curve"/>
      <point x="1054" y="608"/>
      <point x="1054" y="722"/>
    </contour>
    <contour>
      <point x="443" y="0" type="curve"/>
      <point x="526" y="241"/>
      <point x="605" y="481"/>
      <point x="688" y="722" type="curve"/>
      <point x="535" y="722"/>
      <point x="693" y="722"/>
      <point x="539" y="722" type="curve"/>
      <point x="463" y="480"/>
      <point x="387" y="241"/>
      <point x="309" y="0" type="curve"/>
      <point x="458" y="0"/>
      <point x="295" y="0"/>
    </contour>
    <contour>
      <point x="557" y="722" type="curve"/>
      <point x="632" y="481"/>
      <point x="698" y="241"/>
      <point x="773" y="0" type="curve"/>
      <point x="922" y="0"/>
      <point x="759" y="0"/>
      <point x="907" y="0" type="curve"/>
      <point x="840" y="241"/>
      <point x="774" y="480"/>
      <point x="701" y="722" type="curve"/>
      <point x="549" y="722"/>
      <point x="709" y="722"/>
    </contour>
    <contour>
      <point x="62" y="722" type="curve"/>
      <point x="137" y="481"/>
      <point x="213" y="241"/>
      <point x="287" y="0" type="curve"/>
      <point x="436" y="0"/>
      <point x="279" y="0"/>
      <point x="428" y="0" type="curve"/>
      <point x="355" y="241"/>
      <point x="289" y="481"/>
      <point x="216" y="722" type="curve"/>
      <point x="62" y="722"/>
      <point x="216" y="722"/>
    </contour>
    <contour>
      <point x="1010" y="722" type="curve"/>
      <point x="936" y="481"/>
      <point x="867" y="241"/>
      <point x="794" y="0" type="curve"/>
      <point x="942" y="0"/>
      <point x="781" y="0"/>
      <point x="929" y="0" type="curve"/>
      <point x="1008" y="241"/>
      <point x="1086" y="481"/>
      <point x="1164" y="722" type="curve"/>
      <point x="1010" y="722"/>
      <point x="1164" y="722"/>
    </contour>
  </outline>
</glyph>
<glyph name="X" format="1">
  <advance width="890"/>
  <unicode hex="0058"/>
  <outline>
    <contour>
      <point x="188" y="0" type="curve"/>
      <point x="251" y="0"/>
      <point x="188" y="0"/>
      <point x="375" y="0" type="curve"/>
      <point x="375" y="114"/>
      <point x="375" y="0"/>
      <point x="375" y="114" type="curve"/>
      <point x="188" y="114"/>
      <point x="375" y="114"/>
      <point x="188" y="114" type="curve"/>
      <point x="188" y="0"/>
      <point x="188" y="114"/>
    </contour>
    <contour>
      <point x="187" y="114" type="curve"/>
      <point x="18" y="114"/>
      <point x="187" y="114"/>
      <point x="18" y="114" type="curve"/>
      <point x="18" y="0"/>
      <point x="18" y="114"/>
      <point x="18" y="0" type="curve"/>
      <point x="74" y="0"/>
      <point x="131" y="0"/>
      <point x="187" y="0" type="curve"/>
      <point x="187" y="114"/>
      <point x="187" y="0"/>
    </contour>
    <contour>
      <point x="698" y="0" type="curve"/>
      <point x="754" y="0"/>
      <point x="811" y="0"/>
      <point x="866" y="0" type="curve"/>
      <point x="866" y="114"/>
      <point x="866" y="0"/>
      <point x="866" y="114" type="curve"/>
      <point x="698" y="114"/>
      <point x="867" y="114"/>
      <point x="698" y="114" type="curve"/>
      <point x="698" y="0"/>
      <point x="698" y="114"/>
    </contour>
    <contour>
      <point x="696" y="114" type="curve"/>
      <point x="509" y="114"/>
      <point x="696" y="114"/>
      <point x="510" y="114" type="curve"/>
      <point x="510" y="0"/>
      <point x="510" y="114"/>
      <point x="510" y="0" type="curve"/>
      <point x="572" y="0"/>
      <point x="634" y="0"/>
      <point x="696" y="0" type="curve"/>
      <point x="696" y="114"/>
      <point x="696" y="0"/>
    </contour>
    <contour>
      <point x="664" y="608" type="curve"/>
      <point x="833" y="608"/>
      <point x="664" y="608"/>
      <point x="833" y="608" type="curve"/>
      <point x="833" y="722"/>
      <point x="833" y="608"/>
      <point x="833" y="722" type="curve"/>
      <point x="777" y="722"/>
      <point x="720" y="722"/>
      <point x="664" y="722" type="curve"/>
      <point x="664" y="608"/>
      <point x="664" y="722"/>
    </contour>
    <contour>
      <point x="666" y="722" type="curve"/>
      <point x="604" y="722"/>
      <point x="541" y="722"/>
      <point x="478" y="722" type="curve"/>
      <point x="478" y="608"/>
      <point x="478" y="722"/>
      <point x="478" y="608" type="curve"/>
      <point x="666" y="608"/>
      <point x="478" y="608"/>
      <point x="666" y="608" type="curve"/>
      <point x="666" y="722"/>
      <point x="666" y="608"/>
    </contour>
    <contour>
      <point x="232" y="722" type="curve"/>
      <point x="177" y="722"/>
      <point x="120" y="722"/>
      <point x="64" y="722" type="curve"/>
      <point x="64" y="608"/>
      <point x="64" y="722"/>
      <point x="64" y="608" type="curve"/>
      <point x="232" y="608"/>
      <point x="64" y="608"/>
      <point x="232" y="608" type="curve"/>
      <point x="232" y="722"/>
      <point x="232" y="608"/>
    </contour>
    <contour>
      <point x="231" y="608" type="curve"/>
      <point x="419" y="608"/>
      <point x="231" y="608"/>
      <point x="419" y="608" type="curve"/>
      <point x="419" y="722"/>
      <point x="419" y="608"/>
      <point x="419" y="722" type="curve"/>
      <point x="357" y="722"/>
      <point x="294" y="722"/>
      <point x="231" y="722" type="curve"/>
      <point x="231" y="608"/>
      <point x="231" y="722"/>
    </contour>
    <contour>
      <point x="656" y="722" type="curve"/>
      <point x="461" y="495"/>
      <point x="261" y="272"/>
      <point x="66" y="45" type="curve"/>
      <point x="218" y="45"/>
      <point x="66" y="0"/>
      <point x="218" y="0" type="curve"/>
      <point x="413" y="227"/>
      <point x="603" y="457"/>
      <point x="797" y="684" type="curve"/>
      <point x="656" y="684"/>
      <point x="797" y="722"/>
    </contour>
    <contour>
      <point x="100" y="683" type="curve"/>
      <point x="293" y="456"/>
      <point x="481" y="227"/>
      <point x="673" y="0" type="curve"/>
      <point x="828" y="0"/>
      <point x="673" y="30"/>
      <point x="828" y="30" type="curve"/>
      <point x="631" y="261"/>
      <point x="434" y="491"/>
      <point x="238" y="722" type="curve"/>
      <point x="100" y="722"/>
      <point x="238" y="683"/>
    </contour>
  </outline>
</glyph>
<glyph name="bracketleft" format="1">
  <advance width="396"/>
  <unicode hex="005B"/>
  <outline>
    <contour>
      <point x="342" y="769" type="curve"/>
      <point x="278" y="769"/>
      <point x="215" y="769"/>
      <point x="152" y="769" type="curve"/>
      <point x="132" y="769"/>
      <point x="101" y="769"/>
      <point x="82" y="769" type="curve"/>
      <point x="82" y="753"/>
      <point x="82" y="728"/>
      <point x="82" y="711" type="curve"/>
      <point x="82" y="455"/>
      <point x="82" y="199"/>
      <point x="82" y="-57" type="curve"/>
      <point x="82" y="-73"/>
      <point x="82" y="-96"/>
      <point x="82" y="-112" type="curve"/>
      <point x="100" y="-112"/>
      <point x="130" y="-112"/>
      <point x="151" y="-112" type="curve"/>
      <point x="214" y="-112"/>
      <point x="278" y="-112"/>
      <point x="342" y="-112" type="curve"/>
      <point x="342" y="14"/>
      <point x="342" y="-112"/>
      <point x="342" y="14" type="curve"/>
      <point x="278" y="14"/>
      <point x="214" y="14"/>
      <point x="151" y="14" type="curve"/>
      <point x="238" y="14"/>
      <point x="151" y="14"/>
      <point x="238" y="14" type="curve"/>
      <point x="238" y="-57"/>
      <point x="238" y="14"/>
      <point x="238" y="-57" type="curve"/>
      <point x="238" y="199"/>
      <point x="238" y="455"/>
      <point x="238" y="711" type="curve"/>
      <point x="238" y="644"/>
      <point x="238" y="711"/>
      <point x="238" y="644" type="curve"/>
      <point x="152" y="644"/>
      <point x="238" y="644"/>
      <point x="152" y="644" type="curve"/>
      <point x="215" y="644"/>
      <point x="278" y="644"/>
      <point x="342" y="644" type="curve"/>
      <point x="342" y="769"/>
      <point x="342" y="644"/>
    </contour>
  </outline>
</glyph>
<glyph name="bracketright" format="1">
  <advance width="396"/>
  <unicode hex="005D"/>
  <outline>
    <contour>
      <point x="54" y="644" type="curve"/>
      <point x="117" y="644"/>
      <point x="180" y="644"/>
      <point x="244" y="644" type="curve"/>
      <point x="228" y="653"/>
      <point x="210" y="660"/>
      <point x="195" y="670" type="curve"/>
      <point x="180" y="681"/>
      <point x="171" y="700"/>
      <point x="157" y="711" type="curve"/>
      <point x="157" y="455"/>
      <point x="157" y="199"/>
      <point x="157" y="-57" type="curve"/>
      <point x="172" y="-45"/>
      <point x="183" y="-28"/>
      <point x="199" y="-16" type="curve"/>
      <point x="214" y="-5"/>
      <point x="230" y="3"/>
      <point x="245" y="14" type="curve"/>
      <point x="181" y="14"/>
      <point x="117" y="14"/>
      <point x="54" y="14" type="curve"/>
      <point x="54" y="-112"/>
      <point x="54" y="14"/>
      <point x="54" y="-112" type="curve"/>
      <point x="117" y="-112"/>
      <point x="181" y="-112"/>
      <point x="245" y="-112" type="curve"/>
      <point x="314" y="-112"/>
      <point x="245" y="-112"/>
      <point x="314" y="-112" type="curve"/>
      <point x="314" y="-57"/>
      <point x="314" y="-112"/>
      <point x="314" y="-57" type="curve"/>
      <point x="314" y="199"/>
      <point x="314" y="455"/>
      <point x="314" y="711" type="curve"/>
      <point x="314" y="769"/>
      <point x="314" y="711"/>
      <point x="314" y="769" type="curve"/>
      <point x="244" y="769"/>
      <point x="314" y="769"/>
      <point x="244" y="769" type="curve"/>
      <point x="180" y="769"/>
      <point x="117" y="769"/>
      <point x="54" y="769" type="curve"/>
      <point x="54" y="644"/>
      <point x="54" y="769"/>
    </contour>
  </outline>
</glyph>
<glyph name="asciicircum" format="1">
  <advance width="693"/>
  <unicode hex="005E"/>
  <outline>
    <contour>
      <point x="206" y="452" type="curve"/>
      <point x="278" y="552"/>
      <point x="351" y="651"/>
      <point x="423" y="751" type="curve"/>
      <point x="267" y="751"/>
      <point x="423" y="751"/>
      <point x="267" y="751" type="curve"/>
      <point x="194" y="651"/>
      <point x="122" y="552"/>
      <point x="51" y="452" type="curve"/>
      <point x="206" y="452"/>
      <point x="51" y="452"/>
    </contour>
    <contour>
      <point x="642" y="452" type="curve"/>
      <point x="570" y="552"/>
      <point x="496" y="651"/>
      <point x="423" y="751" type="curve"/>
      <point x="267" y="751"/>
      <point x="423" y="751"/>
      <point x="267" y="751" type="curve"/>
      <point x="339" y="651"/>
      <point x="414" y="552"/>
      <point x="487" y="452" type="curve"/>
      <point x="642" y="452"/>
      <point x="487" y="452"/>
    </contour>
  </outline>
</glyph>
<glyph name="grave" format="1">
  <advance width="433"/>
  <unicode hex="0060"/>
  <outline>
    <contour>
      <point x="408" y="538" type="line"/>
      <point x="266" y="704" type="line"/>
      <point x="64" y="704" type="line"/>
      <point x="251" y="538" type="line"/>
    </contour>
    <contour>
      <point x="318" y="539" type="move" name="_top"/>
    </contour>
  </outline>
</glyph>
<glyph name="b" format="1">
  <advance width="838"/>
  <unicode hex="0062"/>
  <outline>
    <contour>
      <point x="200" y="800" type="curve"/>
      <point x="139" y="800"/>
      <point x="100" y="800"/>
      <point x="39" y="800" type="curve"/>
      <point x="39" y="749"/>
      <point x="39" y="736"/>
      <point x="39" y="686" type="curve"/>
      <point x="111" y="685"/>
      <point x="128" y="686"/>
      <point x="200" y="685" type="curve"/>
      <point x="200" y="736"/>
      <point x="200" y="749"/>
    </contour>
    <contour>
      <point x="229" y="310" type="curve"/>
      <point x="288" y="376"/>
      <point x="352" y="419"/>
      <point x="455" y="419" type="curve"/>
      <point x="562" y="419"/>
      <point x="634" y="366"/>
      <point x="634" y="263" type="curve"/>
      <point x="637" y="162"/>
      <point x="560" y="113"/>
      <point x="455" y="114" type="curve"/>
      <point x="361" y="114"/>
      <point x="290" y="154"/>
      <point x="243" y="205" type="curve"/>
      <point x="203" y="178"/>
      <point x="190" y="169"/>
      <point x="150" y="142" type="curve"/>
      <point x="243" y="54"/>
      <point x="337" y="-5"/>
      <point x="485" y="-5" type="curve"/>
      <point x="668" y="-5"/>
      <point x="793" y="84"/>
      <point x="792" y="264" type="curve"/>
      <point x="792" y="448"/>
      <point x="666" y="539"/>
      <point x="480" y="539" type="curve"/>
      <point x="340" y="539"/>
      <point x="253" y="486"/>
      <point x="161" y="393" type="curve"/>
      <point x="193" y="360"/>
      <point x="197" y="343"/>
    </contour>
    <contour>
      <point x="276" y="0" type="curve"/>
      <point x="276" y="304"/>
      <point x="276" y="496"/>
      <point x="276" y="800" type="curve"/>
      <point x="207" y="800"/>
      <point x="189" y="800"/>
      <point x="119" y="800" type="curve"/>
      <point x="119" y="496"/>
      <point x="119" y="304"/>
      <point x="119" y="0" type="curve"/>
      <point x="189" y="0"/>
      <point x="207" y="0"/>
    </contour>
    <contour>
      <point x="200" y="114" type="curve"/>
      <point x="128" y="114"/>
      <point x="111" y="114"/>
      <point x="39" y="114" type="curve"/>
      <point x="39" y="64"/>
      <point x="39" y="51"/>
      <point x="39" y="0" type="curve"/>
      <point x="100" y="0"/>
      <point x="139" y="0"/>
      <point x="200" y="0" type="curve"/>
      <point x="200" y="51"/>
      <point x="200" y="63"/>
    </contour>
  </outline>
</glyph>
<glyph name="d" format="1">
  <advance width="829"/>
  <unicode hex="0064"/>
  <outline>
    <contour>
      <point x="628" y="800" type="curve"/>
      <point x="574" y="800"/>
      <point x="520" y="800"/>
      <point x="467" y="800" type="curve"/>
      <point x="467" y="686"/>
      <point x="467" y="800"/>
      <point x="467" y="686" type="curve"/>
      <point x="629" y="686"/>
      <point x="467" y="686"/>
      <point x="629" y="686" type="curve"/>
      <point x="629" y="799"/>
      <point x="628" y="686"/>
    </contour>
    <contour>
      <point x="630" y="0" type="curve"/>
      <point x="684" y="0"/>
      <point x="737" y="0"/>
      <point x="791" y="0" type="curve"/>
      <point x="791" y="114"/>
      <point x="791" y="0"/>
      <point x="791" y="114" type="curve"/>
      <point x="630" y="114"/>
      <point x="791" y="114"/>
      <point x="630" y="114" type="curve"/>
      <point x="630" y="-1"/>
      <point x="630" y="115"/>
    </contour>
    <contour>
      <point x="657" y="401" type="curve"/>
      <point x="578" y="487"/>
      <point x="463" y="538"/>
      <point x="350" y="538" type="curve"/>
      <point x="174" y="538"/>
      <point x="47" y="450"/>
      <point x="47" y="262" type="curve"/>
      <point x="47" y="75"/>
      <point x="174" y="-5"/>
      <point x="350" y="-5" type="curve"/>
      <point x="490" y="-5"/>
      <point x="589" y="57"/>
      <point x="660" y="156" type="curve"/>
      <point x="589" y="218"/>
      <point x="651" y="156"/>
      <point x="580" y="218" type="curve"/>
      <point x="522" y="142"/>
      <point x="456" y="110"/>
      <point x="371" y="110" type="curve"/>
      <point x="276" y="110"/>
      <point x="203" y="159"/>
      <point x="203" y="268" type="curve"/>
      <point x="203" y="377"/>
      <point x="280" y="423"/>
      <point x="376" y="423" type="curve"/>
      <point x="455" y="423"/>
      <point x="542" y="381"/>
      <point x="591" y="322" type="curve"/>
      <point x="664" y="391"/>
      <point x="584" y="332"/>
    </contour>
    <contour>
      <point x="710" y="0" type="curve"/>
      <point x="710" y="267"/>
      <point x="710" y="533"/>
      <point x="710" y="800" type="curve"/>
      <point x="547" y="800"/>
      <point x="710" y="800"/>
      <point x="547" y="800" type="curve"/>
      <point x="547" y="533"/>
      <point x="547" y="267"/>
      <point x="547" y="0" type="curve"/>
      <point x="710" y="0"/>
      <point x="547" y="0"/>
    </contour>
  </outline>
</glyph>
<glyph name="f" format="1">
  <advance width="600"/>
  <unicode hex="0066"/>
  <outline>
    <contour>
      <point x="453" y="765" type="curve"/>
      <point x="453" y="623"/>
      <point x="453" y="765"/>
      <point x="453" y="623" type="curve"/>
      <point x="572" y="623"/>
      <point x="453" y="623"/>
      <point x="572" y="623" type="curve"/>
      <point x="572" y="765"/>
      <point x="572" y="623"/>
      <point x="572" y="765" type="curve"/>
      <point x="453" y="765"/>
      <point x="572" y="765"/>
    </contour>
    <contour>
      <point x="241" y="-1" type="curve"/>
      <point x="304" y="-1"/>
      <point x="339" y="0"/>
      <point x="402" y="0" type="curve"/>
      <point x="402" y="115"/>
      <point x="402" y="0"/>
      <point x="402" y="115" type="curve"/>
      <point x="215" y="114"/>
      <point x="429" y="115"/>
      <point x="241" y="114" type="curve"/>
      <point x="241" y="-1"/>
      <point x="241" y="114"/>
    </contour>
    <contour>
      <point x="241" y="114" type="curve"/>
      <point x="53" y="115"/>
      <point x="268" y="114"/>
      <point x="80" y="115" type="curve"/>
      <point x="80" y="0"/>
      <point x="80" y="115"/>
      <point x="80" y="0" type="curve"/>
      <point x="143" y="0"/>
      <point x="179" y="-1"/>
      <point x="241" y="-1" type="curve"/>
      <point x="241" y="114"/>
      <point x="241" y="-1"/>
    </contour>
    <contour>
      <point x="29" y="419" type="curve"/>
      <point x="526" y="419" type="line"/>
      <point x="526" y="533"/>
      <point x="526" y="419"/>
      <point x="526" y="533" type="curve"/>
      <point x="29" y="533" type="line"/>
      <point x="29" y="419"/>
      <point x="29" y="533"/>
    </contour>
    <contour>
      <point x="320" y="0" type="curve"/>
      <point x="320" y="603" type="line"/>
      <point x="319" y="658"/>
      <point x="355" y="691"/>
      <point x="413" y="691" type="curve"/>
      <point x="445" y="691"/>
      <point x="478" y="685"/>
      <point x="509" y="673" type="curve"/>
      <point x="572" y="765"/>
      <point x="509" y="673"/>
      <point x="572" y="765" type="curve"/>
      <point x="521" y="785"/>
      <point x="467" y="801"/>
      <point x="413" y="801" type="curve"/>
      <point x="268" y="801"/>
      <point x="161" y="736"/>
      <point x="163" y="603" type="curve"/>
      <point x="163" y="0" type="line"/>
      <point x="320" y="0"/>
      <point x="163" y="0"/>
    </contour>
  </outline>
</glyph>
<glyph name="h" format="1">
  <advance width="798"/>
  <unicode hex="0068"/>
  <outline>
    <contour>
      <point x="632" y="-1" type="curve"/>
      <point x="695" y="-1"/>
      <point x="731" y="0"/>
      <point x="793" y="0" type="curve"/>
      <point x="793" y="114"/>
      <point x="793" y="0"/>
      <point x="793" y="114" type="curve"/>
      <point x="606" y="114"/>
      <point x="820" y="114"/>
      <point x="632" y="114" type="curve"/>
      <point x="632" y="-1"/>
      <point x="632" y="114"/>
    </contour>
    <contour>
      <point x="170" y="-1" type="curve"/>
      <point x="228" y="-1"/>
      <point x="144" y="-1"/>
      <point x="318" y="0" type="curve"/>
      <point x="318" y="114"/>
      <point x="318" y="0"/>
      <point x="318" y="114" type="curve"/>
      <point x="144" y="114"/>
      <point x="344" y="114"/>
      <point x="170" y="114" type="curve"/>
      <point x="170" y="-1"/>
      <point x="170" y="114"/>
    </contour>
    <contour>
      <point x="170" y="799" type="curve"/>
      <point x="107" y="799"/>
      <point x="71" y="800"/>
      <point x="9" y="800" type="curve"/>
      <point x="9" y="686"/>
      <point x="9" y="800"/>
      <point x="9" y="686" type="curve"/>
      <point x="197" y="685"/>
      <point x="-18" y="686"/>
      <point x="170" y="685" type="curve"/>
      <point x="170" y="799"/>
      <point x="170" y="685"/>
    </contour>
    <contour>
      <point x="170" y="114" type="curve"/>
      <point x="-18" y="114"/>
      <point x="197" y="114"/>
      <point x="9" y="114" type="curve"/>
      <point x="9" y="0"/>
      <point x="9" y="114"/>
      <point x="9" y="0" type="curve"/>
      <point x="71" y="0"/>
      <point x="107" y="-1"/>
      <point x="170" y="-1" type="curve"/>
      <point x="170" y="114"/>
      <point x="170" y="-1"/>
    </contour>
    <contour>
      <point x="213" y="271" type="curve"/>
      <point x="249" y="367"/>
      <point x="332" y="423"/>
      <point x="420" y="423" type="curve"/>
      <point x="502" y="423"/>
      <point x="555" y="373"/>
      <point x="555" y="294" type="curve"/>
      <point x="555" y="192"/>
      <point x="555" y="102"/>
      <point x="555" y="0" type="curve"/>
      <point x="712" y="0"/>
      <point x="555" y="0"/>
      <point x="712" y="0" type="curve"/>
      <point x="712" y="106"/>
      <point x="712" y="212"/>
      <point x="712" y="318" type="curve"/>
      <point x="712" y="472"/>
      <point x="609" y="538"/>
      <point x="446" y="538" type="curve"/>
      <point x="314" y="538"/>
      <point x="199" y="462"/>
      <point x="138" y="324" type="curve"/>
      <point x="216" y="267"/>
      <point x="135" y="329"/>
    </contour>
    <contour>
      <point x="248" y="0" type="curve"/>
      <point x="248" y="267"/>
      <point x="248" y="533"/>
      <point x="248" y="800" type="curve"/>
      <point x="91" y="800"/>
      <point x="248" y="800"/>
      <point x="91" y="800" type="curve"/>
      <point x="91" y="533"/>
      <point x="91" y="267"/>
      <point x="91" y="0" type="curve"/>
      <point x="248" y="0"/>
      <point x="91" y="0"/>
    </contour>
  </outline>
</glyph>
<glyph name="i" format="1">
  <advance width="375"/>
  <unicode hex="0069"/>
  <outline>
    <contour>
      <point x="193" y="114" type="curve"/>
      <point x="5" y="114"/>
      <point x="219" y="114"/>
      <point x="32" y="114" type="curve"/>
      <point x="31" y="0"/>
      <point x="32" y="114"/>
      <point x="31" y="0" type="curve"/>
      <point x="94" y="0"/>
      <point x="131" y="0"/>
      <point x="193" y="0" type="curve"/>
      <point x="193" y="114"/>
      <point x="193" y="0"/>
    </contour>
    <contour>
      <point x="193" y="0" type="curve"/>
      <point x="252" y="0"/>
      <point x="292" y="0"/>
      <point x="351" y="0" type="curve"/>
      <point x="351" y="114"/>
      <point x="351" y="0"/>
      <point x="351" y="114" type="curve"/>
      <point x="175" y="114"/>
      <point x="368" y="114"/>
      <point x="193" y="114" type="curve"/>
      <point x="193" y="0"/>
      <point x="193" y="114"/>
    </contour>
    <contour>
      <point x="193" y="533" type="curve"/>
      <point x="131" y="533"/>
      <point x="94" y="533"/>
      <point x="32" y="533" type="curve"/>
      <point x="31" y="419"/>
      <point x="32" y="533"/>
      <point x="31" y="419" type="curve"/>
      <point x="219" y="419"/>
      <point x="5" y="419"/>
      <point x="193" y="419" type="curve"/>
      <point x="193" y="533"/>
      <point x="193" y="419"/>
    </contour>
    <contour>
      <point x="276" y="0" type="curve"/>
      <point x="276" y="178"/>
      <point x="276" y="355"/>
      <point x="276" y="533" type="curve"/>
      <point x="112" y="533"/>
      <point x="276" y="533"/>
      <point x="112" y="533" type="curve"/>
      <point x="112" y="355"/>
      <point x="112" y="178"/>
      <point x="112" y="0" type="curve"/>
      <point x="276" y="0"/>
      <point x="112" y="0"/>
    </contour>
    <contour>
      <point x="283" y="685" type="curve"/>
      <point x="283" y="736"/>
      <point x="244" y="760"/>
      <point x="191" y="760" type="curve"/>
      <point x="138" y="760"/>
      <point x="101" y="733"/>
      <point x="101" y="685" type="curve"/>
      <point x="283" y="685"/>
      <point x="102" y="685"/>
      <point x="283" y="685" type="curve"/>
      <point x="283" y="633"/>
      <point x="244" y="612"/>
      <point x="190" y="612" type="curve"/>
      <point x="137" y="612"/>
      <point x="101" y="636"/>
      <point x="101" y="685" type="curve"/>
      <point x="283" y="685"/>
      <point x="102" y="685"/>
    </contour>
    <contour>
      <point x="191" y="611" type="move" name="top"/>
    </contour>
    <contour>
      <point x="263" y="13" type="move" name="bottom"/>
    </contour>
  </outline>
</glyph>
<glyph name="j" format="1">
  <advance width="379"/>
  <unicode hex="006A"/>
  <outline>
    <contour>
      <point x="207" y="533" type="curve"/>
      <point x="144" y="533"/>
      <point x="81" y="533"/>
      <point x="19" y="533" type="curve"/>
      <point x="19" y="419"/>
      <point x="19" y="533"/>
      <point x="19" y="419" type="curve"/>
      <point x="207" y="419"/>
      <point x="19" y="419"/>
      <point x="207" y="419" type="curve"/>
      <point x="207" y="533"/>
      <point x="207" y="419"/>
    </contour>
    <contour>
      <point x="-20" y="-302" type="curve"/>
      <point x="-8" y="-303"/>
      <point x="6" y="-305"/>
      <point x="22" y="-305" type="curve"/>
      <point x="167" y="-305"/>
      <point x="286" y="-250"/>
      <point x="286" y="-119" type="curve"/>
      <point x="286" y="99"/>
      <point x="286" y="316"/>
      <point x="286" y="534" type="curve"/>
      <point x="130" y="534"/>
      <point x="286" y="534"/>
      <point x="130" y="534" type="curve"/>
      <point x="130" y="316"/>
      <point x="130" y="99"/>
      <point x="130" y="-119" type="curve"/>
      <point x="130" y="-171"/>
      <point x="86" y="-195"/>
      <point x="29" y="-195" type="curve"/>
      <point x="20" y="-195"/>
      <point x="8" y="-195"/>
      <point x="1" y="-194" type="curve"/>
      <point x="-20" y="-302"/>
      <point x="1" y="-194"/>
    </contour>
    <contour>
      <point x="301" y="684" type="curve"/>
      <point x="301" y="735"/>
      <point x="262" y="759"/>
      <point x="209" y="759" type="curve"/>
      <point x="156" y="759"/>
      <point x="119" y="732"/>
      <point x="119" y="684" type="curve"/>
      <point x="301" y="684"/>
      <point x="120" y="684"/>
      <point x="301" y="684" type="curve"/>
      <point x="301" y="633"/>
      <point x="262" y="611"/>
      <point x="208" y="611" type="curve"/>
      <point x="155" y="611"/>
      <point x="119" y="635"/>
      <point x="119" y="684" type="curve"/>
      <point x="301" y="684"/>
      <point x="120" y="684"/>
    </contour>
  </outline>
</glyph>
<glyph name="k" format="1">
  <advance width="744"/>
  <unicode hex="006B"/>
  <outline>
    <contour>
      <point x="168" y="114" type="curve"/>
      <point x="-19" y="114"/>
      <point x="195" y="114"/>
      <point x="8" y="114" type="curve"/>
      <point x="8" y="0"/>
      <point x="8" y="114"/>
      <point x="8" y="0" type="curve"/>
      <point x="70" y="0"/>
      <point x="106" y="-1"/>
      <point x="168" y="-1" type="curve"/>
      <point x="168" y="114"/>
      <point x="168" y="-1"/>
    </contour>
    <contour>
      <point x="553" y="-1" type="curve"/>
      <point x="622" y="-1"/>
      <point x="648" y="0"/>
      <point x="716" y="0" type="curve"/>
      <point x="716" y="114"/>
      <point x="716" y="0"/>
      <point x="716" y="114" type="curve"/>
      <point x="509" y="114"/>
      <point x="760" y="114"/>
      <point x="553" y="114" type="curve"/>
      <point x="553" y="-1"/>
      <point x="553" y="114"/>
    </contour>
    <contour>
      <point x="558" y="419" type="curve"/>
      <point x="733" y="419"/>
      <point x="514" y="419"/>
      <point x="688" y="419" type="curve"/>
      <point x="688" y="533"/>
      <point x="688" y="419"/>
      <point x="688" y="533" type="curve"/>
      <point x="630" y="533"/>
      <point x="616" y="533"/>
      <point x="558" y="533" type="curve"/>
      <point x="558" y="419"/>
      <point x="558" y="533"/>
    </contour>
    <contour>
      <point x="168" y="-1" type="curve"/>
      <point x="216" y="-1"/>
      <point x="168" y="-1"/>
      <point x="310" y="0" type="curve"/>
      <point x="310" y="114"/>
      <point x="310" y="0"/>
      <point x="310" y="114" type="curve"/>
      <point x="168" y="114"/>
      <point x="310" y="114"/>
      <point x="168" y="114" type="curve"/>
      <point x="168" y="-1"/>
      <point x="168" y="114"/>
    </contour>
    <contour>
      <point x="578" y="533" type="curve"/>
      <point x="488" y="533"/>
      <point x="408" y="533"/>
      <point x="319" y="533" type="curve"/>
      <point x="319" y="419"/>
      <point x="319" y="533"/>
      <point x="319" y="419" type="curve"/>
      <point x="587" y="419"/>
      <point x="310" y="419"/>
      <point x="578" y="419" type="curve"/>
      <point x="578" y="533"/>
      <point x="578" y="419"/>
    </contour>
    <contour>
      <point x="171" y="799" type="curve"/>
      <point x="108" y="799"/>
      <point x="73" y="800"/>
      <point x="10" y="800" type="curve"/>
      <point x="10" y="686"/>
      <point x="10" y="800"/>
      <point x="10" y="686" type="curve"/>
      <point x="198" y="685"/>
      <point x="-17" y="686"/>
      <point x="171" y="685" type="curve"/>
      <point x="171" y="799"/>
      <point x="171" y="685"/>
    </contour>
    <contour>
      <point x="248" y="0" type="curve"/>
      <point x="248" y="800" type="line"/>
      <point x="91" y="800"/>
      <point x="248" y="800"/>
      <point x="91" y="800" type="curve"/>
      <point x="91" y="533"/>
      <point x="91" y="267"/>
      <point x="91" y="0" type="curve"/>
      <point x="248" y="0"/>
      <point x="91" y="0"/>
    </contour>
    <contour>
      <point x="509" y="533" type="curve"/>
      <point x="205" y="275" type="line"/>
      <point x="394" y="275"/>
      <point x="205" y="275"/>
      <point x="394" y="275" type="curve"/>
      <point x="668" y="488" type="line"/>
      <point x="455" y="488"/>
      <point x="722" y="533"/>
    </contour>
    <contour>
      <point x="687" y="59" type="curve"/>
      <point x="393" y="275" type="line"/>
      <point x="205" y="275"/>
      <point x="393" y="275"/>
      <point x="205" y="275" type="curve"/>
      <point x="540" y="0" type="line"/>
      <point x="752" y="0"/>
      <point x="475" y="59"/>
    </contour>
    <contour>
      <point x="420" y="-3" type="move" name="bottom"/>
    </contour>
  </outline>
</glyph>
<glyph name="l" format="1">
  <advance width="420"/>
  <unicode hex="006C"/>
  <outline>
    <contour>
      <point x="211" y="114" type="curve"/>
      <point x="23" y="114"/>
      <point x="211" y="114"/>
      <point x="23" y="114" type="curve"/>
      <point x="23" y="0"/>
      <point x="23" y="114"/>
      <point x="23" y="0" type="curve"/>
      <point x="86" y="0"/>
      <point x="148" y="-1"/>
      <point x="211" y="-1" type="curve"/>
      <point x="211" y="114"/>
      <point x="211" y="-1"/>
    </contour>
    <contour>
      <point x="214" y="799" type="curve"/>
      <point x="151" y="799"/>
      <point x="88" y="800"/>
      <point x="26" y="800" type="curve"/>
      <point x="26" y="686"/>
      <point x="26" y="800"/>
      <point x="26" y="686" type="curve"/>
      <point x="214" y="685"/>
      <point x="26" y="686"/>
      <point x="214" y="685" type="curve"/>
      <point x="214" y="799"/>
      <point x="214" y="686"/>
    </contour>
    <contour>
      <point x="211" y="-1" type="curve"/>
      <point x="274" y="-1"/>
      <point x="336" y="0"/>
      <point x="399" y="0" type="curve"/>
      <point x="399" y="114"/>
      <point x="399" y="0"/>
      <point x="399" y="114" type="curve"/>
      <point x="211" y="114"/>
      <point x="399" y="114"/>
      <point x="211" y="114" type="curve"/>
      <point x="211" y="-1"/>
      <point x="211" y="114"/>
    </contour>
    <contour>
      <point x="288" y="0" type="curve"/>
      <point x="288" y="267"/>
      <point x="288" y="533"/>
      <point x="288" y="800" type="curve"/>
      <point x="132" y="800"/>
      <point x="288" y="800"/>
      <point x="132" y="800" type="curve"/>
      <point x="132" y="533"/>
      <point x="132" y="267"/>
      <point x="132" y="0" type="curve"/>
      <point x="288" y="0"/>
      <point x="132" y="0"/>
    </contour>
    <contour>
      <point x="210" y="877" type="move" name="top"/>
    </contour>
    <contour>
      <point x="267" y="11" type="move" name="bottom"/>
    </contour>
  </outline>
</glyph>
<glyph name="m" format="1">
  <advance width="1228"/>
  <unicode hex="006D"/>
  <outline>
    <contour>
      <point x="634" y="0" type="curve"/>
      <point x="770" y="0"/>
      <point x="634" y="0"/>
      <point x="770" y="0" type="curve"/>
      <point x="770" y="114"/>
      <point x="770" y="0"/>
      <point x="770" y="114" type="curve"/>
      <point x="634" y="114"/>
      <point x="770" y="114"/>
      <point x="634" y="114" type="curve"/>
      <point x="634" y="0"/>
      <point x="634" y="114"/>
    </contour>
    <contour>
      <point x="1049" y="0" type="curve"/>
      <point x="1094" y="0"/>
      <point x="1138" y="0"/>
      <point x="1184" y="0" type="curve"/>
      <point x="1184" y="114"/>
      <point x="1184" y="0"/>
      <point x="1184" y="114" type="curve"/>
      <point x="1049" y="114"/>
      <point x="1184" y="114"/>
      <point x="1049" y="114" type="curve"/>
      <point x="1049" y="0"/>
      <point x="1049" y="114"/>
    </contour>
    <contour>
      <point x="221" y="114" type="curve"/>
      <point x="59" y="114"/>
      <point x="221" y="114"/>
      <point x="59" y="114" type="curve"/>
      <point x="59" y="0"/>
      <point x="59" y="114"/>
      <point x="59" y="0" type="curve"/>
      <point x="113" y="0"/>
      <point x="167" y="0"/>
      <point x="221" y="0" type="curve"/>
      <point x="221" y="114"/>
      <point x="221" y="0"/>
    </contour>
    <contour>
      <point x="221" y="0" type="curve"/>
      <point x="266" y="0"/>
      <point x="221" y="0"/>
      <point x="357" y="0" type="curve"/>
      <point x="357" y="114"/>
      <point x="357" y="0"/>
      <point x="357" y="114" type="curve"/>
      <point x="221" y="114"/>
      <point x="357" y="114"/>
      <point x="221" y="114" type="curve"/>
      <point x="221" y="0"/>
      <point x="221" y="114"/>
    </contour>
    <contour>
      <point x="221" y="533" type="curve"/>
      <point x="167" y="533"/>
      <point x="113" y="533"/>
      <point x="59" y="533" type="curve"/>
      <point x="59" y="419"/>
      <point x="59" y="533"/>
      <point x="59" y="419" type="curve"/>
      <point x="221" y="419"/>
      <point x="59" y="419"/>
      <point x="221" y="419" type="curve"/>
      <point x="221" y="533"/>
      <point x="221" y="419"/>
    </contour>
    <contour>
      <point x="677" y="259" type="curve"/>
      <point x="723" y="353"/>
      <point x="774" y="419"/>
      <point x="857" y="419" type="curve"/>
      <point x="935" y="419"/>
      <point x="970" y="384"/>
      <point x="970" y="306" type="curve"/>
      <point x="970" y="205"/>
      <point x="970" y="102"/>
      <point x="970" y="0" type="curve"/>
      <point x="1126" y="0"/>
      <point x="970" y="0"/>
      <point x="1126" y="0" type="curve"/>
      <point x="1126" y="106"/>
      <point x="1126" y="212"/>
      <point x="1126" y="318" type="curve"/>
      <point x="1126" y="473"/>
      <point x="1049" y="538"/>
      <point x="891" y="538" type="curve"/>
      <point x="759" y="538"/>
      <point x="675" y="454"/>
      <point x="600" y="318" type="curve"/>
      <point x="677" y="260"/>
      <point x="599" y="318"/>
    </contour>
    <contour>
      <point x="264" y="265" type="curve"/>
      <point x="309" y="358"/>
      <point x="360" y="419"/>
      <point x="443" y="419" type="curve"/>
      <point x="520" y="419"/>
      <point x="556" y="384"/>
      <point x="556" y="306" type="curve"/>
      <point x="556" y="205"/>
      <point x="556" y="102"/>
      <point x="556" y="0" type="curve"/>
      <point x="712" y="0"/>
      <point x="556" y="0"/>
      <point x="712" y="0" type="curve"/>
      <point x="712" y="106"/>
      <point x="712" y="212"/>
      <point x="712" y="318" type="curve"/>
      <point x="712" y="473"/>
      <point x="637" y="538"/>
      <point x="480" y="538" type="curve"/>
      <point x="345" y="538"/>
      <point x="277" y="463"/>
      <point x="186" y="323" type="curve"/>
      <point x="264" y="265"/>
      <point x="185" y="323"/>
    </contour>
    <contour>
      <point x="299" y="0" type="curve"/>
      <point x="299" y="178"/>
      <point x="299" y="355"/>
      <point x="299" y="533" type="curve"/>
      <point x="142" y="533"/>
      <point x="299" y="533"/>
      <point x="142" y="533" type="curve"/>
      <point x="142" y="355"/>
      <point x="142" y="178"/>
      <point x="142" y="0" type="curve"/>
      <point x="299" y="0"/>
      <point x="142" y="0"/>
    </contour>
  </outline>
</glyph>
<glyph name="p" format="1">
  <advance width="806"/>
  <unicode hex="0070"/>
  <outline>
    <contour>
      <point x="168" y="-185" type="curve"/>
      <point x="-20" y="-185"/>
      <point x="195" y="-185"/>
      <point x="7" y="-185" type="curve"/>
      <point x="7" y="-300"/>
      <point x="7" y="-185"/>
      <point x="7" y="-300" type="curve"/>
      <point x="70" y="-300"/>
      <point x="105" y="-300"/>
      <point x="168" y="-300" type="curve"/>
      <point x="168" y="-185"/>
      <point x="168" y="-300"/>
    </contour>
    <contour>
      <point x="168" y="-300" type="curve"/>
      <point x="227" y="-300"/>
      <point x="259" y="-300"/>
      <point x="318" y="-300" type="curve"/>
      <point x="318" y="-185"/>
      <point x="318" y="-300"/>
      <point x="318" y="-185" type="curve"/>
      <point x="142" y="-186"/>
      <point x="344" y="-185"/>
      <point x="168" y="-186" type="curve"/>
      <point x="168" y="-300"/>
      <point x="168" y="-186"/>
    </contour>
    <contour>
      <point x="169" y="533" type="curve"/>
      <point x="107" y="533"/>
      <point x="71" y="533"/>
      <point x="9" y="533" type="curve"/>
      <point x="8" y="419"/>
      <point x="9" y="533"/>
      <point x="8" y="419" type="curve"/>
      <point x="196" y="419"/>
      <point x="-19" y="419"/>
      <point x="169" y="419" type="curve"/>
      <point x="169" y="533"/>
      <point x="169" y="419"/>
    </contour>
    <contour>
      <point x="194" y="284" type="curve"/>
      <point x="261" y="376"/>
      <point x="330" y="428"/>
      <point x="439" y="428" type="curve"/>
      <point x="538" y="428"/>
      <point x="605" y="367"/>
      <point x="605" y="263" type="curve"/>
      <point x="607" y="162"/>
      <point x="535" y="108"/>
      <point x="432" y="109" type="curve"/>
      <point x="342" y="109"/>
      <point x="267" y="140"/>
      <point x="196" y="193" type="curve"/>
      <point x="160" y="167"/>
      <point x="160" y="140"/>
      <point x="124" y="115" type="curve"/>
      <point x="210" y="38"/>
      <point x="319" y="-5"/>
      <point x="451" y="-5" type="curve"/>
      <point x="634" y="-5"/>
      <point x="762" y="91"/>
      <point x="761" y="269" type="curve"/>
      <point x="761" y="441"/>
      <point x="641" y="540"/>
      <point x="465" y="540" type="curve"/>
      <point x="318" y="540"/>
      <point x="219" y="481"/>
      <point x="134" y="367" type="curve"/>
      <point x="164" y="330"/>
      <point x="164" y="321"/>
    </contour>
    <contour>
      <point x="246" y="-300" type="curve"/>
      <point x="246" y="-22"/>
      <point x="246" y="255"/>
      <point x="246" y="533" type="curve"/>
      <point x="91" y="533"/>
      <point x="246" y="533"/>
      <point x="91" y="533" type="curve"/>
      <point x="91" y="255"/>
      <point x="91" y="-22"/>
      <point x="91" y="-300" type="curve"/>
      <point x="246" y="-300"/>
      <point x="91" y="-300"/>
    </contour>
  </outline>
</glyph>
<glyph name="s" format="1">
  <advance width="665"/>
  <unicode hex="0073"/>
  <outline>
    <contour>
      <point x="62" y="46" type="curve"/>
      <point x="159" y="14"/>
      <point x="231" y="-5"/>
      <point x="329" y="-5" type="curve"/>
      <point x="492" y="-5"/>
      <point x="619" y="29"/>
      <point x="619" y="163" type="curve"/>
      <point x="619" y="290"/>
      <point x="493" y="298"/>
      <point x="350" y="329" type="curve"/>
      <point x="280" y="344"/>
      <point x="207" y="351"/>
      <point x="207" y="388" type="curve"/>
      <point x="207" y="411"/>
      <point x="256" y="423"/>
      <point x="314" y="423" type="curve"/>
      <point x="373" y="423"/>
      <point x="447" y="408"/>
      <point x="488" y="390" type="curve"/>
      <point x="559" y="493"/>
      <point x="488" y="390"/>
      <point x="559" y="493" type="curve"/>
      <point x="503" y="518"/>
      <point x="401" y="538"/>
      <point x="320" y="538" type="curve"/>
      <point x="176" y="538"/>
      <point x="65" y="504"/>
      <point x="65" y="387" type="curve"/>
      <point x="65" y="273"/>
      <point x="168" y="245"/>
      <point x="300" y="218" type="curve"/>
      <point x="379" y="200"/>
      <point x="469" y="198"/>
      <point x="469" y="160" type="curve"/>
      <point x="469" y="128"/>
      <point x="414" y="110"/>
      <point x="349" y="110" type="curve"/>
      <point x="270" y="110"/>
      <point x="218" y="123"/>
      <point x="140" y="150" type="curve"/>
      <point x="62" y="46"/>
      <point x="140" y="150"/>
    </contour>
    <contour>
      <point x="440" y="493" type="curve"/>
      <point x="440" y="372"/>
      <point x="440" y="477"/>
      <point x="440" y="356" type="curve"/>
      <point x="559" y="356"/>
      <point x="440" y="356"/>
      <point x="559" y="356" type="curve"/>
      <point x="559" y="477"/>
      <point x="559" y="372"/>
      <point x="559" y="493" type="curve"/>
      <point x="440" y="493"/>
      <point x="559" y="493"/>
    </contour>
    <contour>
      <point x="179" y="46" type="curve"/>
      <point x="179" y="168"/>
      <point x="179" y="70"/>
      <point x="179" y="192" type="curve"/>
      <point x="59" y="192"/>
      <point x="179" y="192"/>
      <point x="59" y="192" type="curve"/>
      <point x="59" y="70"/>
      <point x="59" y="168"/>
      <point x="59" y="46" type="curve"/>
      <point x="179" y="46"/>
      <point x="59" y="46"/>
    </contour>
    <contour>
      <point x="323" y="611" type="move" name="top"/>
    </contour>
    <contour>
      <point x="356" y="11" type="move" name="bottom"/>
    </contour>
  </outline>
</glyph>
<glyph name="t" format="1">
  <advance width="498"/>
  <unicode hex="0074"/>
  <outline>
    <contour>
      <point x="15" y="419" type="curve"/>
      <point x="456" y="419" type="line"/>
      <point x="456" y="534"/>
      <point x="456" y="419"/>
      <point x="456" y="534" type="curve"/>
      <point x="15" y="534" type="line"/>
      <point x="15" y="419"/>
      <point x="15" y="534"/>
    </contour>
    <contour>
      <point x="446" y="129" type="curve"/>
      <point x="414" y="116"/>
      <point x="390" y="113"/>
      <point x="357" y="113" type="curve"/>
      <point x="311" y="113"/>
      <point x="284" y="132"/>
      <point x="284" y="177" type="curve"/>
      <point x="284" y="692" type="line"/>
      <point x="270" y="683"/>
      <point x="143" y="617"/>
      <point x="129" y="608" type="curve"/>
      <point x="129" y="171" type="line"/>
      <point x="129" y="46"/>
      <point x="213" y="-6"/>
      <point x="342" y="-6" type="curve"/>
      <point x="405" y="-6"/>
      <point x="448" y="10"/>
      <point x="486" y="27" type="curve"/>
      <point x="446" y="129"/>
      <point x="486" y="27"/>
    </contour>
    <contour>
      <point x="361" y="10" type="move" name="bottom"/>
    </contour>
  </outline>
</glyph>
<glyph name="v" format="1">
  <advance width="782"/>
  <unicode hex="0076"/>
  <outline>
    <contour>
      <point x="156" y="533" type="curve"/>
      <point x="112" y="533"/>
      <point x="67" y="533"/>
      <point x="24" y="533" type="curve"/>
      <point x="24" y="419"/>
      <point x="24" y="533"/>
      <point x="24" y="419" type="curve"/>
      <point x="156" y="419"/>
      <point x="24" y="419"/>
      <point x="156" y="419" type="curve"/>
      <point x="156" y="533"/>
      <point x="156" y="419"/>
    </contour>
    <contour>
      <point x="156" y="419" type="curve"/>
      <point x="317" y="419"/>
      <point x="156" y="419"/>
      <point x="317" y="419" type="curve"/>
      <point x="317" y="533"/>
      <point x="317" y="419"/>
      <point x="317" y="533" type="curve"/>
      <point x="263" y="533"/>
      <point x="209" y="533"/>
      <point x="156" y="533" type="curve"/>
      <point x="156" y="419"/>
      <point x="156" y="533"/>
    </contour>
    <contour>
      <point x="631" y="533" type="curve"/>
      <point x="578" y="533"/>
      <point x="524" y="533"/>
      <point x="470" y="533" type="curve"/>
      <point x="470" y="419"/>
      <point x="470" y="533"/>
      <point x="470" y="419" type="curve"/>
      <point x="632" y="419"/>
      <point x="470" y="419"/>
      <point x="631" y="419" type="curve"/>
      <point x="631" y="533"/>
      <point x="631" y="419"/>
    </contour>
    <contour>
      <point x="631" y="419" type="curve"/>
      <point x="772" y="419"/>
      <point x="631" y="419"/>
      <point x="772" y="419" type="curve"/>
      <point x="772" y="533"/>
      <point x="772" y="419"/>
      <point x="772" y="533" type="curve"/>
      <point x="725" y="533"/>
      <point x="678" y="533"/>
      <point x="631" y="533" type="curve"/>
      <point x="631" y="419"/>
      <point x="631" y="533"/>
    </contour>
    <contour>
      <point x="46" y="533" type="curve"/>
      <point x="132" y="355"/>
      <point x="219" y="178"/>
      <point x="305" y="0" type="curve"/>
      <point x="460" y="0"/>
      <point x="305" y="0"/>
      <point x="460" y="0" type="curve"/>
      <point x="375" y="178"/>
      <point x="290" y="355"/>
      <point x="205" y="533" type="curve"/>
      <point x="46" y="533"/>
      <point x="205" y="533"/>
    </contour>
    <contour>
      <point x="584" y="533" type="curve"/>
      <point x="313" y="0" type="line"/>
      <point x="469" y="0"/>
      <point x="313" y="0"/>
      <point x="469" y="0" type="curve"/>
      <point x="560" y="178"/>
      <point x="650" y="355"/>
      <point x="741" y="533" type="curve"/>
      <point x="584" y="533"/>
      <point x="741" y="533"/>
    </contour>
  </outline>
</glyph>
<glyph name="w" format="1">
  <advance width="1197"/>
  <unicode hex="0077"/>
  <outline>
    <contour>
      <point x="1031" y="419" type="curve"/>
      <point x="1182" y="419"/>
      <point x="1031" y="419"/>
      <point x="1182" y="419" type="curve"/>
      <point x="1182" y="533"/>
      <point x="1182" y="419"/>
      <point x="1182" y="533" type="curve"/>
      <point x="1131" y="533"/>
      <point x="1081" y="533"/>
      <point x="1031" y="533" type="curve"/>
      <point x="1031" y="419"/>
      <point x="1031" y="533"/>
    </contour>
    <contour>
      <point x="1031" y="533" type="curve"/>
      <point x="980" y="533"/>
      <point x="930" y="533"/>
      <point x="880" y="533" type="curve"/>
      <point x="880" y="419"/>
      <point x="880" y="533"/>
      <point x="880" y="419" type="curve"/>
      <point x="1031" y="419"/>
      <point x="880" y="419"/>
      <point x="1031" y="419" type="curve"/>
      <point x="1031" y="533"/>
      <point x="1031" y="419"/>
    </contour>
    <contour>
      <point x="170" y="533" type="curve"/>
      <point x="120" y="533"/>
      <point x="70" y="533"/>
      <point x="19" y="533" type="curve"/>
      <point x="19" y="419"/>
      <point x="19" y="533"/>
      <point x="19" y="419" type="curve"/>
      <point x="170" y="419"/>
      <point x="19" y="419"/>
      <point x="170" y="419" type="curve"/>
      <point x="170" y="533"/>
      <point x="170" y="419"/>
    </contour>
    <contour>
      <point x="170" y="419" type="curve"/>
      <point x="320" y="419"/>
      <point x="170" y="419"/>
      <point x="320" y="419" type="curve"/>
      <point x="320" y="533"/>
      <point x="320" y="419"/>
      <point x="320" y="533" type="curve"/>
      <point x="270" y="533"/>
      <point x="221" y="533"/>
      <point x="170" y="533" type="curve"/>
      <point x="170" y="419"/>
      <point x="170" y="533"/>
    </contour>
    <contour>
      <point x="430" y="0" type="curve"/>
      <point x="514" y="178"/>
      <point x="599" y="355"/>
      <point x="683" y="533" type="curve"/>
      <point x="527" y="533"/>
      <point x="683" y="533"/>
      <point x="527" y="533" type="curve"/>
      <point x="443" y="355"/>
      <point x="361" y="178"/>
      <point x="277" y="0" type="curve"/>
      <point x="430" y="0"/>
      <point x="277" y="0"/>
    </contour>
    <contour>
      <point x="996" y="533" type="curve"/>
      <point x="919" y="355"/>
      <point x="841" y="178"/>
      <point x="763" y="0" type="curve"/>
      <point x="916" y="0"/>
      <point x="763" y="0"/>
      <point x="916" y="0" type="curve"/>
      <point x="995" y="178"/>
      <point x="1074" y="355"/>
      <point x="1153" y="533" type="curve"/>
      <point x="996" y="533"/>
      <point x="1153" y="533"/>
    </contour>
    <contour>
      <point x="534" y="533" type="curve"/>
      <point x="610" y="355"/>
      <point x="686" y="178"/>
      <point x="761" y="0" type="curve"/>
      <point x="915" y="0"/>
      <point x="761" y="0"/>
      <point x="915" y="0" type="curve"/>
      <point x="840" y="178"/>
      <point x="764" y="355"/>
      <point x="689" y="533" type="curve"/>
      <point x="534" y="533"/>
      <point x="689" y="533"/>
    </contour>
    <contour>
      <point x="49" y="533" type="curve"/>
      <point x="125" y="355"/>
      <point x="201" y="178"/>
      <point x="276" y="0" type="curve"/>
      <point x="429" y="0"/>
      <point x="276" y="0"/>
      <point x="429" y="0" type="curve"/>
      <point x="354" y="178"/>
      <point x="279" y="355"/>
      <point x="205" y="533" type="curve"/>
      <point x="49" y="533"/>
      <point x="205" y="533"/>
    </contour>
  </outline>
</glyph>
<glyph name="x" format="1">
  <advance width="752"/>
  <unicode hex="0078"/>
  <outline>
    <contour>
      <point x="127" y="114" type="curve"/>
      <point x="-38" y="114"/>
      <point x="179" y="114"/>
      <point x="15" y="114" type="curve"/>
      <point x="15" y="0"/>
      <point x="15" y="114"/>
      <point x="15" y="0" type="curve"/>
      <point x="70" y="0"/>
      <point x="72" y="0"/>
      <point x="127" y="0" type="curve"/>
      <point x="127" y="114"/>
      <point x="127" y="0"/>
    </contour>
    <contour>
      <point x="618" y="114" type="curve"/>
      <point x="394" y="114"/>
      <point x="637" y="114"/>
      <point x="413" y="114" type="curve"/>
      <point x="413" y="-1"/>
      <point x="413" y="114"/>
      <point x="413" y="-1" type="curve"/>
      <point x="487" y="-1"/>
      <point x="544" y="0"/>
      <point x="618" y="0" type="curve"/>
      <point x="618" y="114"/>
      <point x="618" y="0"/>
    </contour>
    <contour>
      <point x="616" y="0" type="curve"/>
      <point x="668" y="0"/>
      <point x="691" y="0"/>
      <point x="742" y="0" type="curve"/>
      <point x="742" y="114"/>
      <point x="742" y="0"/>
      <point x="742" y="114" type="curve"/>
      <point x="587" y="114"/>
      <point x="771" y="114"/>
      <point x="616" y="114" type="curve"/>
      <point x="616" y="0"/>
      <point x="616" y="114"/>
    </contour>
    <contour>
      <point x="125" y="0" type="curve"/>
      <point x="200" y="0"/>
      <point x="114" y="0"/>
      <point x="339" y="0" type="curve"/>
      <point x="339" y="114"/>
      <point x="339" y="0"/>
      <point x="339" y="114" type="curve"/>
      <point x="114" y="114"/>
      <point x="350" y="114"/>
      <point x="125" y="114" type="curve"/>
      <point x="125" y="0"/>
      <point x="125" y="114"/>
    </contour>
    <contour>
      <point x="597" y="419" type="curve"/>
      <point x="761" y="419"/>
      <point x="564" y="419"/>
      <point x="728" y="419" type="curve"/>
      <point x="728" y="533"/>
      <point x="728" y="419"/>
      <point x="728" y="533" type="curve"/>
      <point x="674" y="533"/>
      <point x="651" y="533"/>
      <point x="597" y="533" type="curve"/>
      <point x="597" y="419"/>
      <point x="597" y="533"/>
    </contour>
    <contour>
      <point x="173" y="533" type="curve"/>
      <point x="117" y="533"/>
      <point x="96" y="533"/>
      <point x="41" y="533" type="curve"/>
      <point x="41" y="419"/>
      <point x="41" y="533"/>
      <point x="41" y="419" type="curve"/>
      <point x="206" y="419"/>
      <point x="7" y="419"/>
      <point x="173" y="419" type="curve"/>
      <point x="173" y="533"/>
      <point x="173" y="419"/>
    </contour>
    <contour>
      <point x="143" y="419" type="curve"/>
      <point x="357" y="419"/>
      <point x="127" y="419"/>
      <point x="341" y="419" type="curve"/>
      <point x="341" y="533"/>
      <point x="341" y="419"/>
      <point x="341" y="533" type="curve"/>
      <point x="270" y="533"/>
      <point x="214" y="533"/>
      <point x="143" y="533" type="curve"/>
      <point x="143" y="419"/>
      <point x="143" y="533"/>
    </contour>
    <contour>
      <point x="600" y="533" type="curve"/>
      <point x="537" y="533"/>
      <point x="484" y="533"/>
      <point x="422" y="533" type="curve"/>
      <point x="422" y="419"/>
      <point x="422" y="533"/>
      <point x="422" y="419" type="curve"/>
      <point x="611" y="419"/>
      <point x="411" y="419"/>
      <point x="600" y="419" type="curve"/>
      <point x="600" y="533"/>
      <point x="600" y="419"/>
    </contour>
    <contour>
      <point x="708" y="52" type="curve"/>
      <point x="704" y="55"/>
      <point x="184" y="529"/>
      <point x="180" y="533" type="curve"/>
      <point x="20" y="533"/>
      <point x="223" y="480"/>
      <point x="62" y="480" type="curve"/>
      <point x="66" y="477"/>
      <point x="571" y="7"/>
      <point x="574" y="4" type="curve"/>
      <point x="749" y="4"/>
      <point x="532" y="52"/>
    </contour>
    <contour>
      <point x="598" y="533" type="curve"/>
      <point x="595" y="529"/>
      <point x="44" y="54"/>
      <point x="40" y="51" type="curve"/>
      <point x="220" y="51"/>
      <point x="-8" y="0"/>
      <point x="173" y="0" type="curve"/>
      <point x="176" y="4"/>
      <point x="695" y="468"/>
      <point x="699" y="472" type="curve"/>
      <point x="538" y="472"/>
      <point x="759" y="533"/>
    </contour>
  </outline>
</glyph>
<glyph name="braceleft" format="1">
  <advance width="384"/>
  <unicode hex="007B"/>
  <outline>
    <contour>
      <point x="329" y="7" type="curve"/>
      <point x="284" y="7"/>
      <point x="255" y="27"/>
      <point x="255" y="68" type="curve"/>
      <point x="255" y="118"/>
      <point x="255" y="168"/>
      <point x="255" y="220" type="curve"/>
      <point x="255" y="337"/>
      <point x="166" y="402"/>
      <point x="41" y="402" type="curve"/>
      <point x="41" y="281"/>
      <point x="41" y="402"/>
      <point x="41" y="281" type="curve"/>
      <point x="82" y="281"/>
      <point x="113" y="268"/>
      <point x="113" y="230" type="curve"/>
      <point x="113" y="178"/>
      <point x="113" y="126"/>
      <point x="113" y="74" type="curve"/>
      <point x="113" y="-46"/>
      <point x="202" y="-107"/>
      <point x="329" y="-107" type="curve"/>
      <point x="329" y="7"/>
      <point x="329" y="-107"/>
    </contour>
    <contour>
      <point x="329" y="789" type="curve"/>
      <point x="202" y="789"/>
      <point x="113" y="731"/>
      <point x="113" y="612" type="curve"/>
      <point x="113" y="558"/>
      <point x="113" y="503"/>
      <point x="113" y="449" type="curve"/>
      <point x="113" y="412"/>
      <point x="81" y="402"/>
      <point x="41" y="402" type="curve"/>
      <point x="41" y="281"/>
      <point x="41" y="402"/>
      <point x="41" y="281" type="curve"/>
      <point x="167" y="281"/>
      <point x="255" y="344"/>
      <point x="255" y="465" type="curve"/>
      <point x="255" y="514"/>
      <point x="255" y="563"/>
      <point x="255" y="612" type="curve"/>
      <point x="255" y="654"/>
      <point x="284" y="675"/>
      <point x="329" y="675" type="curve"/>
      <point x="329" y="789"/>
      <point x="329" y="675"/>
    </contour>
  </outline>
</glyph>
<glyph name="braceright" format="1">
  <advance width="385"/>
  <unicode hex="007D"/>
  <outline>
    <contour>
      <point x="57" y="-107" type="curve"/>
      <point x="183" y="-107"/>
      <point x="271" y="-46"/>
      <point x="271" y="74" type="curve"/>
      <point x="271" y="126"/>
      <point x="271" y="178"/>
      <point x="271" y="230" type="curve"/>
      <point x="271" y="268"/>
      <point x="303" y="281"/>
      <point x="344" y="281" type="curve"/>
      <point x="344" y="402"/>
      <point x="344" y="281"/>
      <point x="344" y="402" type="curve"/>
      <point x="219" y="402"/>
      <point x="129" y="337"/>
      <point x="129" y="220" type="curve"/>
      <point x="129" y="168"/>
      <point x="129" y="118"/>
      <point x="129" y="68" type="curve"/>
      <point x="129" y="27"/>
      <point x="100" y="7"/>
      <point x="57" y="7" type="curve"/>
      <point x="57" y="-107"/>
      <point x="57" y="7"/>
    </contour>
    <contour>
      <point x="57" y="675" type="curve"/>
      <point x="101" y="675"/>
      <point x="129" y="654"/>
      <point x="129" y="612" type="curve"/>
      <point x="129" y="563"/>
      <point x="129" y="514"/>
      <point x="129" y="465" type="curve"/>
      <point x="129" y="344"/>
      <point x="218" y="281"/>
      <point x="344" y="281" type="curve"/>
      <point x="344" y="402"/>
      <point x="344" y="281"/>
      <point x="344" y="402" type="curve"/>
      <point x="303" y="402"/>
      <point x="271" y="412"/>
      <point x="271" y="449" type="curve"/>
      <point x="271" y="503"/>
      <point x="271" y="558"/>
      <point x="271" y="612" type="curve"/>
      <point x="271" y="731"/>
      <point x="183" y="789"/>
      <point x="57" y="789" type="curve"/>
      <point x="57" y="675"/>
      <point x="57" y="789"/>
    </contour>
  </outline>
</glyph>
<glyph name="asciitilde" format="1">
  <advance width="842"/>
  <unicode hex="007E"/>
  <outline>
    <contour>
      <point x="656" y="380" type="curve"/>
      <point x="636" y="337"/>
      <point x="621" y="305"/>
      <point x="576" y="305" type="curve"/>
      <point x="528" y="305"/>
      <point x="500" y="313"/>
      <point x="458" y="337" type="curve"/>
      <point x="393" y="376"/>
      <point x="352" y="395"/>
      <point x="275" y="395" type="curve"/>
      <point x="167" y="395"/>
      <point x="105" y="350"/>
      <point x="66" y="250" type="curve"/>
      <point x="108" y="229"/>
      <point x="133" y="218"/>
      <point x="176" y="199" type="curve"/>
      <point x="195" y="248"/>
      <point x="217" y="280"/>
      <point x="268" y="280" type="curve"/>
      <point x="308" y="280"/>
      <point x="331" y="272"/>
      <point x="366" y="252" type="curve"/>
      <point x="437" y="211"/>
      <point x="481" y="192"/>
      <point x="563" y="191" type="curve"/>
      <point x="670" y="191"/>
      <point x="729" y="232"/>
      <point x="775" y="328" type="curve"/>
      <point x="729" y="349"/>
      <point x="703" y="360"/>
    </contour>
  </outline>
</glyph>
<glyph name="cent" format="1">
  <advance width="838"/>
  <unicode hex="00A2"/>
  <outline>
    <contour>
      <point x="523" y="-53" type="curve"/>
      <point x="523" y="-13"/>
      <point x="523" y="27"/>
      <point x="523" y="67" type="curve"/>
      <point x="367" y="67"/>
      <point x="523" y="67"/>
      <point x="367" y="67" type="curve"/>
      <point x="367" y="27"/>
      <point x="367" y="-13"/>
      <point x="367" y="-53" type="curve"/>
      <point x="523" y="-53"/>
      <point x="367" y="-53"/>
    </contour>
    <contour>
      <point x="393" y="778" type="curve"/>
      <point x="393" y="742"/>
      <point x="393" y="706"/>
      <point x="393" y="670" type="curve"/>
      <point x="549" y="670"/>
      <point x="393" y="670"/>
      <point x="549" y="670" type="curve"/>
      <point x="549" y="706"/>
      <point x="549" y="742"/>
      <point x="549" y="778" type="curve"/>
      <point x="393" y="778"/>
      <point x="549" y="778"/>
    </contour>
    <contour>
      <point x="777" y="619" type="curve"/>
      <point x="675" y="669"/>
      <point x="595" y="687"/>
      <point x="482" y="687" type="curve"/>
      <point x="238" y="687"/>
      <point x="54" y="587"/>
      <point x="54" y="363" type="curve"/>
      <point x="54" y="153"/>
      <point x="213" y="44"/>
      <point x="437" y="44" type="curve"/>
      <point x="570" y="44"/>
      <point x="664" y="69"/>
      <point x="779" y="135" type="curve"/>
      <point x="697" y="236"/>
      <point x="779" y="135"/>
      <point x="697" y="236" type="curve"/>
      <point x="603" y="185"/>
      <point x="541" y="165"/>
      <point x="451" y="165" type="curve"/>
      <point x="309" y="165"/>
      <point x="211" y="235"/>
      <point x="211" y="369" type="curve"/>
      <point x="211" y="505"/>
      <point x="320" y="567"/>
      <point x="467" y="567" type="curve"/>
      <point x="554" y="567"/>
      <point x="615" y="553"/>
      <point x="709" y="513" type="curve"/>
      <point x="777" y="619"/>
      <point x="709" y="513"/>
    </contour>
    <contour>
      <point x="658" y="619" type="curve"/>
      <point x="658" y="492"/>
      <point x="658" y="589"/>
      <point x="658" y="462" type="curve"/>
      <point x="777" y="462"/>
      <point x="658" y="462"/>
      <point x="777" y="462" type="curve"/>
      <point x="777" y="589"/>
      <point x="777" y="492"/>
      <point x="777" y="619" type="curve"/>
      <point x="658" y="619"/>
      <point x="777" y="619"/>
    </contour>
  </outline>
</glyph>
<glyph name="sterling" format="1">
  <advance width="642"/>
  <unicode hex="00A3"/>
  <outline>
    <contour>
      <point x="560" y="115" type="curve"/>
      <point x="392" y="115"/>
      <point x="224" y="115"/>
      <point x="57" y="115" type="curve"/>
      <point x="57" y="0"/>
      <point x="57" y="115"/>
      <point x="57" y="0" type="curve"/>
      <point x="224" y="0"/>
      <point x="392" y="0"/>
      <point x="560" y="0" type="curve"/>
      <point x="560" y="115"/>
      <point x="560" y="0"/>
    </contour>
    <contour>
      <point x="500" y="432" type="curve"/>
      <point x="367" y="432"/>
      <point x="233" y="432"/>
      <point x="100" y="432" type="curve"/>
      <point x="100" y="317"/>
      <point x="100" y="432"/>
      <point x="100" y="317" type="curve"/>
      <point x="233" y="317"/>
      <point x="367" y="317"/>
      <point x="500" y="317" type="curve"/>
      <point x="500" y="432"/>
      <point x="500" y="317"/>
    </contour>
    <contour>
      <point x="599" y="661" type="curve"/>
      <point x="536" y="707"/>
      <point x="483" y="720"/>
      <point x="407" y="720" type="curve"/>
      <point x="213" y="720"/>
      <point x="99" y="561"/>
      <point x="156" y="363" type="curve"/>
      <point x="194" y="230"/>
      <point x="160" y="115"/>
      <point x="57" y="115" type="curve"/>
      <point x="57" y="0"/>
      <point x="57" y="115"/>
      <point x="57" y="0" type="curve"/>
      <point x="264" y="0"/>
      <point x="371" y="175"/>
      <point x="311" y="386" type="curve"/>
      <point x="276" y="507"/>
      <point x="311" y="611"/>
      <point x="400" y="611" type="curve"/>
      <point x="449" y="611"/>
      <point x="482" y="600"/>
      <point x="526" y="576" type="curve"/>
      <point x="599" y="661"/>
      <point x="526" y="576"/>
    </contour>
  </outline>
</glyph>
<glyph name="currency" format="1">
  <advance width="798"/>
  <unicode hex="00A4"/>
  <outline>
    <contour>
      <point x="294" y="317" type="curve"/>
      <point x="294" y="371"/>
      <point x="338" y="398"/>
      <point x="396" y="398" type="curve"/>
      <point x="460" y="398"/>
      <point x="505" y="372"/>
      <point x="505" y="315" type="curve"/>
      <point x="505" y="260"/>
      <point x="465" y="231"/>
      <point x="408" y="231" type="curve"/>
      <point x="342" y="231"/>
      <point x="294" y="257"/>
      <point x="294" y="317" type="curve"/>
      <point x="138" y="317"/>
      <point x="295" y="317"/>
      <point x="139" y="317" type="curve"/>
      <point x="139" y="179"/>
      <point x="252" y="117"/>
      <point x="402" y="117" type="curve"/>
      <point x="551" y="117"/>
      <point x="661" y="183"/>
      <point x="661" y="320" type="curve"/>
      <point x="661" y="451"/>
      <point x="553" y="512"/>
      <point x="411" y="512" type="curve"/>
      <point x="257" y="512"/>
      <point x="139" y="455"/>
      <point x="139" y="317" type="curve"/>
      <point x="295" y="317"/>
      <point x="138" y="317"/>
    </contour>
    <contour>
      <point x="566" y="295" type="line"/>
      <point x="738" y="453" type="line"/>
      <point x="616" y="576" type="line"/>
      <point x="458" y="404" type="line"/>
    </contour>
    <contour>
      <point x="459" y="230" type="line"/>
      <point x="617" y="58" type="line"/>
      <point x="740" y="181" type="line"/>
      <point x="568" y="339" type="line"/>
    </contour>
    <contour>
      <point x="231" y="341" type="line"/>
      <point x="59" y="183" type="line"/>
      <point x="181" y="61" type="line"/>
      <point x="339" y="233" type="line"/>
    </contour>
    <contour>
      <point x="340" y="406" type="line"/>
      <point x="182" y="578" type="line"/>
      <point x="60" y="455" type="line"/>
      <point x="232" y="297" type="line"/>
    </contour>
  </outline>
</glyph>
<glyph name="yen" format="1">
  <advance width="831"/>
  <unicode hex="00A5"/>
  <outline>
    <contour>
      <point x="693" y="449" type="curve"/>
      <point x="605" y="449"/>
      <point x="518" y="449"/>
      <point x="430" y="449" type="curve"/>
      <point x="430" y="323"/>
      <point x="430" y="449"/>
      <point x="430" y="323" type="curve"/>
      <point x="518" y="323"/>
      <point x="605" y="323"/>
      <point x="693" y="323" type="curve"/>
      <point x="693" y="449"/>
      <point x="693" y="323"/>
    </contour>
    <contour>
      <point x="394" y="449" type="curve"/>
      <point x="308" y="449"/>
      <point x="222" y="449"/>
      <point x="136" y="449" type="curve"/>
      <point x="136" y="323"/>
      <point x="136" y="449"/>
      <point x="136" y="323" type="curve"/>
      <point x="222" y="323"/>
      <point x="308" y="323"/>
      <point x="394" y="323" type="curve"/>
      <point x="394" y="449"/>
      <point x="394" y="323"/>
    </contour>
    <contour>
      <point x="693" y="282" type="curve"/>
      <point x="508" y="282"/>
      <point x="322" y="282"/>
      <point x="136" y="282" type="curve"/>
      <point x="136" y="156"/>
      <point x="136" y="282"/>
      <point x="136" y="156" type="curve"/>
      <point x="322" y="156"/>
      <point x="508" y="156"/>
      <point x="693" y="156" type="curve"/>
      <point x="693" y="282"/>
      <point x="693" y="156"/>
    </contour>
    <contour>
      <point x="408" y="114" type="curve"/>
      <point x="246" y="114"/>
      <point x="408" y="114"/>
      <point x="246" y="114" type="curve"/>
      <point x="246" y="0"/>
      <point x="246" y="114"/>
      <point x="246" y="0" type="curve"/>
      <point x="300" y="0"/>
      <point x="353" y="0"/>
      <point x="408" y="0" type="curve"/>
      <point x="408" y="114"/>
      <point x="408" y="0"/>
    </contour>
    <contour>
      <point x="408" y="0" type="curve"/>
      <point x="462" y="0"/>
      <point x="515" y="0"/>
      <point x="570" y="0" type="curve"/>
      <point x="570" y="114"/>
      <point x="570" y="0"/>
      <point x="570" y="114" type="curve"/>
      <point x="408" y="114"/>
      <point x="570" y="114"/>
      <point x="408" y="114" type="curve"/>
      <point x="408" y="0"/>
      <point x="408" y="114"/>
    </contour>
    <contour>
      <point x="644" y="722" type="curve"/>
      <point x="590" y="722"/>
      <point x="537" y="722"/>
      <point x="483" y="722" type="curve"/>
      <point x="483" y="608"/>
      <point x="483" y="722"/>
      <point x="483" y="608" type="curve"/>
      <point x="644" y="608"/>
      <point x="483" y="608"/>
      <point x="644" y="608" type="curve"/>
      <point x="644" y="722"/>
      <point x="644" y="608"/>
    </contour>
    <contour>
      <point x="183" y="722" type="curve"/>
      <point x="136" y="722"/>
      <point x="89" y="722"/>
      <point x="42" y="722" type="curve"/>
      <point x="42" y="608"/>
      <point x="42" y="722"/>
      <point x="42" y="608" type="curve"/>
      <point x="183" y="608"/>
      <point x="42" y="608"/>
      <point x="183" y="608" type="curve"/>
      <point x="183" y="722"/>
      <point x="183" y="608"/>
    </contour>
    <contour>
      <point x="185" y="608" type="curve"/>
      <point x="346" y="608"/>
      <point x="185" y="608"/>
      <point x="346" y="608" type="curve"/>
      <point x="346" y="722"/>
      <point x="346" y="608"/>
      <point x="346" y="722" type="curve"/>
      <point x="292" y="722"/>
      <point x="239" y="722"/>
      <point x="185" y="722" type="curve"/>
      <point x="185" y="608"/>
      <point x="185" y="722"/>
    </contour>
    <contour>
      <point x="646" y="608" type="curve"/>
      <point x="788" y="608"/>
      <point x="646" y="608"/>
      <point x="788" y="608" type="curve"/>
      <point x="788" y="722"/>
      <point x="788" y="608"/>
      <point x="788" y="722" type="curve"/>
      <point x="741" y="722"/>
      <point x="693" y="722"/>
      <point x="646" y="722" type="curve"/>
      <point x="646" y="608"/>
      <point x="646" y="722"/>
    </contour>
    <contour>
      <point x="66" y="685" type="curve"/>
      <point x="154" y="569"/>
      <point x="240" y="453"/>
      <point x="328" y="337" type="curve"/>
      <point x="486" y="337"/>
      <point x="326" y="337"/>
      <point x="484" y="337" type="curve"/>
      <point x="387" y="465"/>
      <point x="291" y="594"/>
      <point x="194" y="722" type="curve"/>
      <point x="66" y="722"/>
      <point x="194" y="685"/>
    </contour>
    <contour>
      <point x="638" y="722" type="curve"/>
      <point x="535" y="593"/>
      <point x="433" y="465"/>
      <point x="331" y="337" type="curve"/>
      <point x="488" y="337"/>
      <point x="329" y="337"/>
      <point x="487" y="337" type="curve"/>
      <point x="581" y="454"/>
      <point x="673" y="571"/>
      <point x="767" y="688" type="curve"/>
      <point x="638" y="688"/>
      <point x="767" y="722"/>
    </contour>
    <contour>
      <point x="493" y="0" type="curve"/>
      <point x="493" y="115"/>
      <point x="493" y="230"/>
      <point x="493" y="345" type="curve"/>
      <point x="322" y="345"/>
      <point x="493" y="345"/>
      <point x="322" y="345" type="curve"/>
      <point x="322" y="230"/>
      <point x="322" y="115"/>
      <point x="322" y="0" type="curve"/>
      <point x="493" y="0"/>
      <point x="322" y="0"/>
    </contour>
  </outline>
</glyph>
<glyph name="section" format="1">
  <advance width="677"/>
  <unicode hex="00A7"/>
  <outline>
    <contour>
      <point x="549" y="703" type="curve"/>
      <point x="476" y="732"/>
      <point x="422" y="748"/>
      <point x="344" y="748" type="curve"/>
      <point x="206" y="748"/>
      <point x="100" y="707"/>
      <point x="100" y="592" type="curve"/>
      <point x="100" y="491"/>
      <point x="181" y="449"/>
      <point x="286" y="423" type="curve"/>
      <point x="366" y="404"/>
      <point x="465" y="406"/>
      <point x="465" y="353" type="curve"/>
      <point x="465" y="299"/>
      <point x="404" y="293"/>
      <point x="337" y="284" type="curve"/>
      <point x="429" y="192"/>
      <point x="337" y="284"/>
      <point x="429" y="192" type="curve"/>
      <point x="540" y="212"/>
      <point x="621" y="257"/>
      <point x="621" y="361" type="curve"/>
      <point x="620" y="486"/>
      <point x="497" y="503"/>
      <point x="364" y="531" type="curve"/>
      <point x="311" y="544"/>
      <point x="255" y="548"/>
      <point x="255" y="592" type="curve"/>
      <point x="255" y="627"/>
      <point x="289" y="634"/>
      <point x="331" y="634" type="curve"/>
      <point x="387" y="634"/>
      <point x="426" y="627"/>
      <point x="489" y="604" type="curve"/>
      <point x="549" y="703"/>
      <point x="489" y="604"/>
    </contour>
    <contour>
      <point x="246" y="529" type="curve"/>
      <point x="141" y="506"/>
      <point x="58" y="467"/>
      <point x="58" y="366" type="curve"/>
      <point x="58" y="249"/>
      <point x="164" y="220"/>
      <point x="288" y="193" type="curve"/>
      <point x="353" y="177"/>
      <point x="430" y="172"/>
      <point x="430" y="129" type="curve"/>
      <point x="430" y="93"/>
      <point x="389" y="88"/>
      <point x="343" y="88" type="curve"/>
      <point x="281" y="88"/>
      <point x="239" y="98"/>
      <point x="168" y="127" type="curve"/>
      <point x="98" y="34"/>
      <point x="168" y="127"/>
      <point x="98" y="34" type="curve"/>
      <point x="179" y="-9"/>
      <point x="245" y="-26"/>
      <point x="336" y="-26" type="curve"/>
      <point x="473" y="-26"/>
      <point x="585" y="12"/>
      <point x="585" y="134" type="curve"/>
      <point x="584" y="239"/>
      <point x="496" y="278"/>
      <point x="388" y="301" type="curve"/>
      <point x="308" y="320"/>
      <point x="214" y="317"/>
      <point x="214" y="377" type="curve"/>
      <point x="214" y="423"/>
      <point x="266" y="430"/>
      <point x="323" y="443" type="curve"/>
      <point x="246" y="529"/>
      <point x="323" y="443"/>
    </contour>
    <contour>
      <point x="217" y="34" type="curve"/>
      <point x="217" y="154"/>
      <point x="217" y="42"/>
      <point x="217" y="162" type="curve"/>
      <point x="98" y="162"/>
      <point x="217" y="162"/>
      <point x="98" y="162" type="curve"/>
      <point x="98" y="42"/>
      <point x="98" y="154"/>
      <point x="98" y="34" type="curve"/>
      <point x="217" y="34"/>
      <point x="98" y="34"/>
    </contour>
    <contour>
      <point x="549" y="574" type="curve"/>
      <point x="549" y="694"/>
      <point x="549" y="583"/>
      <point x="549" y="703" type="curve"/>
      <point x="430" y="703"/>
      <point x="549" y="703"/>
      <point x="430" y="703" type="curve"/>
      <point x="430" y="583"/>
      <point x="430" y="694"/>
      <point x="430" y="574" type="curve"/>
      <point x="549" y="574"/>
      <point x="430" y="574"/>
    </contour>
  </outline>
</glyph>
<glyph name="dieresis" format="1">
  <advance width="459"/>
  <unicode hex="00A8"/>
  <outline>
    <contour>
      <point x="210" y="580" type="curve"/>
      <point x="210" y="631"/>
      <point x="171" y="654"/>
      <point x="118" y="654" type="curve"/>
      <point x="64" y="654"/>
      <point x="28" y="628"/>
      <point x="28" y="580" type="curve"/>
      <point x="209" y="580"/>
      <point x="28" y="580"/>
      <point x="210" y="580" type="curve"/>
      <point x="210" y="528"/>
      <point x="171" y="507"/>
      <point x="117" y="507" type="curve"/>
      <point x="64" y="507"/>
      <point x="28" y="531"/>
      <point x="28" y="580" type="curve"/>
      <point x="209" y="580"/>
      <point x="28" y="580"/>
    </contour>
    <contour>
      <point x="445" y="580" type="curve"/>
      <point x="445" y="631"/>
      <point x="406" y="654"/>
      <point x="353" y="654" type="curve"/>
      <point x="300" y="654"/>
      <point x="263" y="628"/>
      <point x="263" y="580" type="curve"/>
      <point x="445" y="580"/>
      <point x="264" y="580"/>
      <point x="445" y="580" type="curve"/>
      <point x="445" y="528"/>
      <point x="406" y="507"/>
      <point x="352" y="507" type="curve"/>
      <point x="299" y="507"/>
      <point x="263" y="531"/>
      <point x="263" y="580" type="curve"/>
      <point x="445" y="580"/>
      <point x="264" y="580"/>
    </contour>
    <contour>
      <point x="236" y="510" type="move" name="_top"/>
    </contour>
  </outline>
</glyph>
<glyph name="copyright" format="1">
  <advance width="1000"/>
  <unicode hex="00A9"/>
  <outline>
    <contour>
      <point x="186" y="325" type="curve"/>
      <point x="186" y="482"/>
      <point x="331" y="553"/>
      <point x="505" y="553" type="curve"/>
      <point x="674" y="553"/>
      <point x="815" y="479"/>
      <point x="815" y="322" type="curve"/>
      <point x="815" y="171"/>
      <point x="679" y="98"/>
      <point x="514" y="98" type="curve"/>
      <point x="339" y="98"/>
      <point x="186" y="165"/>
      <point x="186" y="325" type="curve"/>
      <point x="61" y="325"/>
      <point x="186" y="325"/>
      <point x="61" y="325" type="curve"/>
      <point x="61" y="105"/>
      <point x="265" y="7"/>
      <point x="509" y="7" type="curve"/>
      <point x="745" y="7"/>
      <point x="940" y="111"/>
      <point x="940" y="327" type="curve"/>
      <point x="940" y="543"/>
      <point x="742" y="645"/>
      <point x="505" y="645" type="curve"/>
      <point x="264" y="645"/>
      <point x="61" y="545"/>
      <point x="61" y="325" type="curve"/>
      <point x="186" y="325"/>
      <point x="61" y="325"/>
    </contour>
    <contour>
      <point x="576" y="412" type="curve"/>
      <point x="576" y="400"/>
      <point x="576" y="391"/>
      <point x="576" y="377" type="curve"/>
      <point x="690" y="377"/>
      <point x="578" y="377"/>
      <point x="692" y="377" type="curve"/>
      <point x="692" y="408"/>
      <point x="692" y="440"/>
      <point x="692" y="470" type="curve"/>
      <point x="578" y="419"/>
      <point x="690" y="463"/>
    </contour>
    <contour>
      <point x="692" y="470" type="curve"/>
      <point x="639" y="500"/>
      <point x="580" y="514"/>
      <point x="510" y="514" type="curve"/>
      <point x="366" y="514"/>
      <point x="257" y="454"/>
      <point x="257" y="323" type="curve"/>
      <point x="257" y="197"/>
      <point x="356" y="138"/>
      <point x="491" y="138" type="curve"/>
      <point x="570" y="138"/>
      <point x="626" y="147"/>
      <point x="694" y="188" type="curve"/>
      <point x="635" y="260"/>
      <point x="694" y="188"/>
      <point x="635" y="260" type="curve"/>
      <point x="575" y="236"/>
      <point x="542" y="229"/>
      <point x="496" y="229" type="curve"/>
      <point x="428" y="229"/>
      <point x="381" y="263"/>
      <point x="381" y="328" type="curve"/>
      <point x="381" y="393"/>
      <point x="433" y="422"/>
      <point x="505" y="422" type="curve"/>
      <point x="534" y="422"/>
      <point x="558" y="418"/>
      <point x="576" y="412" type="curve"/>
      <point x="690" y="463"/>
      <point x="578" y="419"/>
    </contour>
  </outline>
</glyph>
<glyph name="ordfeminine" format="1">
  <advance width="557"/>
  <unicode hex="00AA"/>
  <outline>
    <contour>
      <point x="78" y="735" type="curve"/>
      <point x="78" y="656"/>
      <point x="78" y="730"/>
      <point x="78" y="651" type="curve"/>
      <point x="159" y="651"/>
      <point x="78" y="651"/>
      <point x="159" y="651" type="curve"/>
      <point x="159" y="730"/>
      <point x="159" y="656"/>
      <point x="159" y="735" type="curve"/>
      <point x="78" y="735"/>
      <point x="159" y="735"/>
    </contour>
    <contour>
      <point x="451" y="426" type="curve"/>
      <point x="451" y="509"/>
      <point x="451" y="586"/>
      <point x="451" y="669" type="curve"/>
      <point x="451" y="765"/>
      <point x="366" y="785"/>
      <point x="262" y="785" type="curve"/>
      <point x="184" y="785"/>
      <point x="126" y="766"/>
      <point x="78" y="735" type="curve"/>
      <point x="117" y="670"/>
      <point x="84" y="731"/>
      <point x="123" y="666" type="curve"/>
      <point x="150" y="688"/>
      <point x="192" y="708"/>
      <point x="248" y="708" type="curve"/>
      <point x="300" y="708"/>
      <point x="346" y="700"/>
      <point x="346" y="651" type="curve"/>
      <point x="346" y="575"/>
      <point x="346" y="501"/>
      <point x="346" y="426" type="curve"/>
      <point x="451" y="426"/>
      <point x="347" y="426"/>
    </contour>
    <contour>
      <point x="401" y="426" type="curve"/>
      <point x="434" y="426"/>
      <point x="466" y="426"/>
      <point x="500" y="426" type="curve"/>
      <point x="500" y="503"/>
      <point x="500" y="426"/>
      <point x="500" y="503" type="curve"/>
      <point x="402" y="503"/>
      <point x="499" y="503"/>
      <point x="401" y="503" type="curve"/>
      <point x="401" y="426"/>
      <point x="401" y="503"/>
    </contour>
    <contour>
      <point x="396" y="659" type="curve"/>
      <point x="331" y="653"/>
      <point x="292" y="651"/>
      <point x="226" y="645" type="curve"/>
      <point x="129" y="636"/>
      <point x="53" y="622"/>
      <point x="53" y="536" type="curve"/>
      <point x="53" y="452"/>
      <point x="119" y="422"/>
      <point x="213" y="422" type="curve"/>
      <point x="306" y="422"/>
      <point x="350" y="461"/>
      <point x="421" y="528" type="curve"/>
      <point x="373" y="567"/>
      <point x="420" y="528"/>
      <point x="372" y="567" type="curve"/>
      <point x="325" y="526"/>
      <point x="287" y="497"/>
      <point x="229" y="497" type="curve"/>
      <point x="187" y="497"/>
      <point x="156" y="505"/>
      <point x="156" y="536" type="curve"/>
      <point x="156" y="568"/>
      <point x="188" y="573"/>
      <point x="223" y="576" type="curve"/>
      <point x="292" y="582"/>
      <point x="331" y="587"/>
      <point x="401" y="594" type="curve"/>
      <point x="396" y="659"/>
      <point x="401" y="594"/>
    </contour>
  </outline>
</glyph>
<glyph name="guillemotleft" format="1">
  <advance width="688"/>
  <unicode hex="00AB"/>
  <outline>
    <contour>
      <point x="314" y="481" type="curve"/>
      <point x="244" y="448"/>
      <point x="122" y="385"/>
      <point x="52" y="351" type="curve"/>
      <point x="52" y="225"/>
      <point x="52" y="349"/>
      <point x="52" y="223" type="curve"/>
      <point x="122" y="257"/>
      <point x="244" y="320"/>
      <point x="314" y="355" type="curve"/>
      <point x="314" y="480"/>
      <point x="314" y="356"/>
    </contour>
    <contour>
      <point x="314" y="223" type="curve"/>
      <point x="244" y="256"/>
      <point x="122" y="317"/>
      <point x="52" y="351" type="curve"/>
      <point x="52" y="225"/>
      <point x="52" y="349"/>
      <point x="52" y="223" type="curve"/>
      <point x="122" y="190"/>
      <point x="244" y="130"/>
      <point x="314" y="96" type="curve"/>
      <point x="314" y="222"/>
      <point x="314" y="97"/>
    </contour>
    <contour>
      <point x="608" y="481" type="curve"/>
      <point x="539" y="448"/>
      <point x="416" y="385"/>
      <point x="347" y="351" type="curve"/>
      <point x="347" y="225"/>
      <point x="347" y="349"/>
      <point x="347" y="223" type="curve"/>
      <point x="416" y="257"/>
      <point x="539" y="320"/>
      <point x="608" y="355" type="curve"/>
      <point x="608" y="480"/>
      <point x="608" y="356"/>
    </contour>
    <contour>
      <point x="608" y="223" type="curve"/>
      <point x="539" y="256"/>
      <point x="416" y="317"/>
      <point x="347" y="351" type="curve"/>
      <point x="347" y="225"/>
      <point x="347" y="349"/>
      <point x="347" y="223" type="curve"/>
      <point x="416" y="190"/>
      <point x="539" y="130"/>
      <point x="608" y="96" type="curve"/>
      <point x="608" y="222"/>
      <point x="608" y="97"/>
    </contour>
  </outline>
</glyph>
<glyph name="logicalnot" format="1">
  <advance width="781"/>
  <unicode hex="00AC"/>
  <outline>
    <contour>
      <point x="83" y="251" type="curve"/>
      <point x="702" y="251" type="line"/>
      <point x="702" y="376"/>
      <point x="702" y="251"/>
      <point x="702" y="376" type="curve"/>
      <point x="83" y="376" type="line"/>
      <point x="83" y="251"/>
      <point x="83" y="376"/>
    </contour>
    <contour>
      <point x="702" y="139" type="curve"/>
      <point x="702" y="376" type="line"/>
      <point x="547" y="376"/>
      <point x="711" y="376"/>
      <point x="556" y="376" type="curve"/>
      <point x="556" y="139" type="line"/>
      <point x="711" y="139"/>
      <point x="547" y="139"/>
    </contour>
  </outline>
</glyph>
<glyph name="registered" format="1">
  <advance width="1004"/>
  <unicode hex="00AE"/>
  <outline>
    <contour>
      <point x="177" y="325" type="curve"/>
      <point x="177" y="495"/>
      <point x="319" y="563"/>
      <point x="507" y="563" type="curve"/>
      <point x="691" y="563"/>
      <point x="829" y="490"/>
      <point x="829" y="322" type="curve"/>
      <point x="829" y="158"/>
      <point x="695" y="88"/>
      <point x="516" y="88" type="curve"/>
      <point x="324" y="88"/>
      <point x="177" y="152"/>
      <point x="177" y="325" type="curve"/>
      <point x="134" y="325"/>
      <point x="105" y="325"/>
      <point x="62" y="325" type="curve"/>
      <point x="62" y="95"/>
      <point x="257" y="6"/>
      <point x="511" y="6" type="curve"/>
      <point x="758" y="6"/>
      <point x="942" y="102"/>
      <point x="942" y="327" type="curve"/>
      <point x="942" y="552"/>
      <point x="755" y="645"/>
      <point x="507" y="645" type="curve"/>
      <point x="254" y="645"/>
      <point x="62" y="553"/>
      <point x="62" y="325" type="curve"/>
      <point x="105" y="325"/>
      <point x="134" y="325"/>
    </contour>
    <contour>
      <point x="595" y="140" type="curve"/>
      <point x="643" y="140"/>
      <point x="671" y="140"/>
      <point x="719" y="140" type="curve"/>
      <point x="719" y="232"/>
      <point x="719" y="140"/>
      <point x="719" y="232" type="curve"/>
      <point x="701" y="232"/>
      <point x="701" y="232"/>
      <point x="684" y="232" type="curve"/>
      <point x="593" y="140"/>
      <point x="687" y="232"/>
    </contour>
    <contour>
      <point x="475" y="510" type="curve"/>
      <point x="415" y="510"/>
      <point x="367" y="510"/>
      <point x="309" y="510" type="curve"/>
      <point x="309" y="418"/>
      <point x="309" y="510"/>
      <point x="309" y="418" type="curve"/>
      <point x="326" y="418"/>
      <point x="332" y="418"/>
      <point x="349" y="418" type="curve"/>
      <point x="475" y="510"/>
      <point x="349" y="418"/>
    </contour>
    <contour>
      <point x="475" y="232" type="curve"/>
      <point x="415" y="232"/>
      <point x="367" y="232"/>
      <point x="309" y="232" type="curve"/>
      <point x="309" y="140"/>
      <point x="309" y="232"/>
      <point x="309" y="140" type="curve"/>
      <point x="326" y="140"/>
      <point x="332" y="140"/>
      <point x="349" y="140" type="curve"/>
      <point x="475" y="232"/>
      <point x="349" y="140"/>
    </contour>
    <contour>
      <point x="349" y="140" type="curve"/>
      <point x="405" y="140"/>
      <point x="446" y="140"/>
      <point x="502" y="140" type="curve"/>
      <point x="502" y="232"/>
      <point x="502" y="140"/>
      <point x="502" y="232" type="curve"/>
      <point x="488" y="232"/>
      <point x="488" y="232"/>
      <point x="475" y="232" type="curve"/>
      <point x="349" y="140"/>
      <point x="475" y="232"/>
    </contour>
    <contour>
      <point x="461" y="316" type="curve"/>
      <point x="505" y="265"/>
      <point x="553" y="192"/>
      <point x="595" y="140" type="curve"/>
      <point x="687" y="232"/>
      <point x="593" y="140"/>
      <point x="684" y="232" type="curve"/>
      <point x="663" y="258"/>
      <point x="633" y="290"/>
      <point x="612" y="316" type="curve"/>
      <point x="458" y="316"/>
      <point x="615" y="316"/>
    </contour>
    <contour>
      <point x="474" y="232" type="curve"/>
      <point x="474" y="325"/>
      <point x="474" y="417"/>
      <point x="474" y="510" type="curve"/>
      <point x="348" y="418"/>
      <point x="475" y="510"/>
      <point x="349" y="418" type="curve"/>
      <point x="349" y="326"/>
      <point x="349" y="233"/>
      <point x="349" y="140" type="curve"/>
      <point x="475" y="232"/>
      <point x="348" y="140"/>
    </contour>
    <contour>
      <point x="414" y="268" type="curve"/>
      <point x="438" y="268"/>
      <point x="462" y="268"/>
      <point x="486" y="268" type="curve"/>
      <point x="598" y="268"/>
      <point x="684" y="290"/>
      <point x="684" y="392" type="curve"/>
      <point x="684" y="478"/>
      <point x="607" y="510"/>
      <point x="512" y="510" type="curve"/>
      <point x="499" y="510"/>
      <point x="487" y="510"/>
      <point x="475" y="510" type="curve"/>
      <point x="349" y="418"/>
      <point x="475" y="510"/>
      <point x="349" y="418" type="curve"/>
      <point x="396" y="418"/>
      <point x="443" y="418"/>
      <point x="489" y="418" type="curve"/>
      <point x="527" y="418"/>
      <point x="561" y="419"/>
      <point x="561" y="387" type="curve"/>
      <point x="561" y="359"/>
      <point x="534" y="359"/>
      <point x="504" y="359" type="curve"/>
      <point x="474" y="359"/>
      <point x="444" y="359"/>
      <point x="414" y="359" type="curve"/>
      <point x="414" y="268"/>
      <point x="414" y="359"/>
    </contour>
  </outline>
</glyph>
<glyph name="macron" format="1">
  <advance width="367"/>
  <unicode hex="00AF"/>
  <outline>
    <contour>
      <point x="320" y="659" type="curve"/>
      <point x="226" y="659"/>
      <point x="133" y="659"/>
      <point x="39" y="659" type="curve"/>
      <point x="39" y="545"/>
      <point x="39" y="659"/>
      <point x="39" y="545" type="curve"/>
      <point x="133" y="545"/>
      <point x="226" y="545"/>
      <point x="320" y="545" type="curve"/>
      <point x="320" y="659"/>
      <point x="320" y="545"/>
    </contour>
    <contour>
      <point x="181" y="545" type="move" name="_top"/>
    </contour>
  </outline>
</glyph>
<glyph name="degree" format="1">
  <advance width="621"/>
  <unicode hex="00B0"/>
  <outline>
    <contour>
      <point x="560" y="497" type="curve"/>
      <point x="560" y="635"/>
      <point x="457" y="709"/>
      <point x="312" y="709" type="curve"/>
      <point x="166" y="709"/>
      <point x="61" y="637"/>
      <point x="61" y="499" type="curve"/>
      <point x="191" y="499"/>
      <point x="68" y="499"/>
      <point x="198" y="499" type="curve"/>
      <point x="198" y="560"/>
      <point x="241" y="598"/>
      <point x="310" y="598" type="curve"/>
      <point x="374" y="598"/>
      <point x="421" y="563"/>
      <point x="421" y="497" type="curve"/>
      <point x="421" y="431"/>
      <point x="378" y="390"/>
      <point x="312" y="390" type="curve"/>
      <point x="243" y="390"/>
      <point x="198" y="432"/>
      <point x="198" y="499" type="curve"/>
      <point x="68" y="499"/>
      <point x="191" y="499"/>
      <point x="61" y="499" type="curve"/>
      <point x="61" y="358"/>
      <point x="161" y="280"/>
      <point x="307" y="280" type="curve"/>
      <point x="455" y="280"/>
      <point x="560" y="356"/>
    </contour>
  </outline>
</glyph>
<glyph name="plusminus" format="1">
  <advance width="765"/>
  <unicode hex="00B1"/>
  <outline>
    <contour>
      <point x="66" y="22" type="line"/>
      <point x="699" y="22" type="line"/>
      <point x="699" y="147" type="line"/>
      <point x="66" y="147" type="line"/>
    </contour>
    <contour>
      <point x="66" y="251" type="curve"/>
      <point x="699" y="251" type="line"/>
      <point x="699" y="376"/>
      <point x="699" y="251"/>
      <point x="699" y="376" type="curve"/>
      <point x="66" y="376" type="line"/>
      <point x="66" y="251"/>
      <point x="66" y="376"/>
    </contour>
    <contour>
      <point x="460" y="22" type="curve"/>
      <point x="460" y="587" type="line"/>
      <point x="304" y="587"/>
      <point x="469" y="587"/>
      <point x="314" y="587" type="curve"/>
      <point x="314" y="22" type="line"/>
      <point x="469" y="22"/>
      <point x="304" y="22"/>
    </contour>
  </outline>
</glyph>
<glyph name="twosuperior" format="1">
  <advance width="602"/>
  <unicode hex="00B2"/>
  <outline>
    <contour>
      <point x="548" y="264" type="curve"/>
      <point x="548" y="314"/>
      <point x="548" y="364"/>
      <point x="548" y="414" type="curve"/>
      <point x="436" y="414"/>
      <point x="550" y="414"/>
      <point x="438" y="414" type="curve"/>
      <point x="438" y="402"/>
      <point x="438" y="389"/>
      <point x="438" y="376" type="curve"/>
      <point x="560" y="277"/>
      <point x="424" y="363"/>
    </contour>
    <contour>
      <point x="70" y="264" type="curve"/>
      <point x="272" y="264"/>
      <point x="411" y="264"/>
      <point x="548" y="264" type="curve"/>
      <point x="424" y="363"/>
      <point x="560" y="277"/>
      <point x="438" y="376" type="curve"/>
      <point x="316" y="376"/>
      <point x="192" y="376"/>
      <point x="70" y="376" type="curve"/>
      <point x="70" y="264"/>
      <point x="70" y="376"/>
    </contour>
    <contour>
      <point x="177" y="556" type="curve"/>
      <point x="213" y="590"/>
      <point x="243" y="604"/>
      <point x="284" y="604" type="curve"/>
      <point x="326" y="604"/>
      <point x="362" y="594"/>
      <point x="362" y="565" type="curve"/>
      <point x="362" y="532"/>
      <point x="332" y="518"/>
      <point x="303" y="499" type="curve"/>
      <point x="225" y="457"/>
      <point x="147" y="417"/>
      <point x="70" y="376" type="curve"/>
      <point x="70" y="267"/>
      <point x="74" y="376"/>
      <point x="74" y="267" type="curve"/>
      <point x="203" y="330"/>
      <point x="298" y="368"/>
      <point x="380" y="414" type="curve"/>
      <point x="453" y="459"/>
      <point x="516" y="491"/>
      <point x="516" y="569" type="curve"/>
      <point x="516" y="677"/>
      <point x="421" y="717"/>
      <point x="302" y="717" type="curve"/>
      <point x="204" y="717"/>
      <point x="127" y="690"/>
      <point x="75" y="623" type="curve"/>
      <point x="177" y="556"/>
      <point x="75" y="623"/>
    </contour>
    <contour>
      <point x="286" y="716" type="move" name="_top"/>
    </contour>
    <contour>
      <point x="316" y="265" type="move" name="_bottom"/>
    </contour>
  </outline>
</glyph>
<glyph name="threesuperior" format="1">
  <advance width="541"/>
  <unicode hex="00B3"/>
  <outline>
    <contour>
      <point x="122" y="570" type="curve"/>
      <point x="160" y="599"/>
      <point x="202" y="606"/>
      <point x="231" y="606" type="curve"/>
      <point x="274" y="606"/>
      <point x="309" y="602"/>
      <point x="309" y="573" type="curve"/>
      <point x="309" y="538"/>
      <point x="239" y="537"/>
      <point x="180" y="536" type="curve"/>
      <point x="180" y="444"/>
      <point x="180" y="536"/>
      <point x="180" y="444" type="curve"/>
      <point x="328" y="445"/>
      <point x="462" y="457"/>
      <point x="462" y="580" type="curve"/>
      <point x="462" y="686"/>
      <point x="366" y="714"/>
      <point x="247" y="714" type="curve" name=""/>
      <point x="176" y="714"/>
      <point x="110" y="692"/>
      <point x="57" y="651" type="curve"/>
      <point x="122" y="570"/>
      <point x="57" y="651"/>
    </contour>
    <contour>
      <point x="56" y="297" type="curve"/>
      <point x="110" y="273"/>
      <point x="162" y="257"/>
      <point x="220" y="257" type="curve"/>
      <point x="366" y="253"/>
      <point x="485" y="280"/>
      <point x="482" y="404" type="curve"/>
      <point x="482" y="537"/>
      <point x="334" y="524"/>
      <point x="180" y="526" type="curve"/>
      <point x="180" y="443"/>
      <point x="180" y="526"/>
      <point x="180" y="443" type="curve"/>
      <point x="254" y="442"/>
      <point x="328" y="443"/>
      <point x="328" y="404" type="curve"/>
      <point x="328" y="367"/>
      <point x="284" y="360"/>
      <point x="235" y="361" type="curve"/>
      <point x="200" y="361"/>
      <point x="165" y="368"/>
      <point x="114" y="384" type="curve"/>
      <point x="56" y="297"/>
      <point x="114" y="384"/>
    </contour>
    <contour>
      <point x="263" y="716" type="move" name="_top"/>
    </contour>
    <contour>
      <point x="248" y="256" type="move" name="_bottom"/>
    </contour>
  </outline>
</glyph>
<glyph name="acute" format="1">
  <advance width="592"/>
  <unicode hex="00B4"/>
  <outline>
    <contour>
      <point x="217" y="587" type="line"/>
      <point x="404" y="753" type="line"/>
      <point x="201" y="753" type="line"/>
      <point x="63" y="587" type="line"/>
    </contour>
    <contour>
      <point x="154" y="588" type="move" name="_top"/>
    </contour>
  </outline>
</glyph>
<glyph name="paragraph" format="1">
  <advance width="999"/>
  <unicode hex="00B6"/>
  <outline>
    <contour>
      <point x="570" y="608" type="curve"/>
      <point x="759" y="608"/>
      <point x="570" y="608"/>
      <point x="759" y="608" type="curve"/>
      <point x="759" y="722"/>
      <point x="759" y="608"/>
      <point x="759" y="722" type="curve"/>
      <point x="696" y="722"/>
      <point x="633" y="722"/>
      <point x="570" y="722" type="curve"/>
      <point x="570" y="608"/>
      <point x="570" y="722"/>
    </contour>
    <contour>
      <point x="570" y="0" type="curve"/>
      <point x="633" y="0"/>
      <point x="696" y="0"/>
      <point x="759" y="0" type="curve"/>
      <point x="759" y="114"/>
      <point x="759" y="0"/>
      <point x="759" y="114" type="curve"/>
      <point x="570" y="114"/>
      <point x="759" y="114"/>
      <point x="570" y="114" type="curve"/>
      <point x="570" y="0"/>
      <point x="570" y="114"/>
    </contour>
    <contour>
      <point x="570" y="114" type="curve"/>
      <point x="382" y="114"/>
      <point x="570" y="114"/>
      <point x="382" y="114" type="curve"/>
      <point x="382" y="0"/>
      <point x="382" y="114"/>
      <point x="382" y="0" type="curve"/>
      <point x="570" y="0"/>
      <point x="507" y="0"/>
      <point x="570" y="0" type="curve"/>
      <point x="570" y="114"/>
      <point x="570" y="0"/>
    </contour>
    <contour>
      <point x="543" y="391" type="curve"/>
      <point x="482" y="369"/>
      <point x="434" y="358"/>
      <point x="369" y="358" type="curve"/>
      <point x="275" y="358"/>
      <point x="197" y="389"/>
      <point x="197" y="473" type="curve"/>
      <point x="197" y="578"/>
      <point x="299" y="608"/>
      <point x="419" y="608" type="curve"/>
      <point x="468" y="608"/>
      <point x="518" y="608"/>
      <point x="567" y="608" type="curve"/>
      <point x="567" y="722"/>
      <point x="567" y="608"/>
      <point x="567" y="722" type="curve"/>
      <point x="510" y="722"/>
      <point x="454" y="722"/>
      <point x="398" y="722" type="curve"/>
      <point x="202" y="722"/>
      <point x="41" y="654"/>
      <point x="41" y="478" type="curve"/>
      <point x="41" y="310"/>
      <point x="195" y="247"/>
      <point x="383" y="244" type="curve"/>
      <point x="459" y="244"/>
      <point x="522" y="263"/>
      <point x="593" y="289" type="curve"/>
      <point x="543" y="391"/>
      <point x="593" y="289"/>
    </contour>
    <contour>
      <point x="649" y="0" type="curve"/>
      <point x="649" y="241"/>
      <point x="649" y="481"/>
      <point x="649" y="722" type="curve"/>
      <point x="494" y="722"/>
      <point x="649" y="722"/>
      <point x="494" y="722" type="curve"/>
      <point x="494" y="481"/>
      <point x="494" y="241"/>
      <point x="494" y="0" type="curve"/>
      <point x="649" y="0"/>
      <point x="494" y="0"/>
    </contour>
    <contour>
      <point x="907" y="0" type="curve"/>
      <point x="907" y="241"/>
      <point x="907" y="481"/>
      <point x="907" y="722" type="curve"/>
      <point x="751" y="722"/>
      <point x="907" y="722"/>
      <point x="751" y="722" type="curve"/>
      <point x="751" y="481"/>
      <point x="751" y="241"/>
      <point x="751" y="0" type="curve"/>
      <point x="907" y="0"/>
      <point x="751" y="0"/>
    </contour>
  </outline>
</glyph>
<glyph name="periodcentered" format="1">
  <advance width="307"/>
  <unicode hex="00B7"/>
  <outline>
    <contour>
      <point x="244" y="440" type="curve"/>
      <point x="244" y="491"/>
      <point x="205" y="514"/>
      <point x="152" y="514" type="curve"/>
      <point x="99" y="514"/>
      <point x="62" y="488"/>
      <point x="62" y="440" type="curve"/>
      <point x="244" y="440"/>
      <point x="63" y="440"/>
      <point x="244" y="440" type="curve"/>
      <point x="244" y="388"/>
      <point x="205" y="367"/>
      <point x="151" y="367" type="curve"/>
      <point x="98" y="367"/>
      <point x="62" y="391"/>
      <point x="62" y="440" type="curve"/>
      <point x="244" y="440"/>
      <point x="63" y="440"/>
    </contour>
  </outline>
</glyph>
<glyph name="cedilla" format="1">
  <advance width="464"/>
  <unicode hex="00B8"/>
  <outline>
    <contour>
      <point x="201" y="178" type="curve"/>
      <point x="185" y="157"/>
      <point x="106" y="53"/>
      <point x="90" y="31" type="curve"/>
      <point x="196" y="-61"/>
      <point x="90" y="31"/>
      <point x="196" y="-61" type="curve"/>
      <point x="217" y="-34"/>
      <point x="302" y="73"/>
      <point x="322" y="99" type="curve"/>
      <point x="201" y="178"/>
      <point x="322" y="99"/>
    </contour>
    <contour>
      <point x="196" y="-61" type="curve"/>
      <point x="201" y="-57"/>
      <point x="205" y="-55"/>
      <point x="210" y="-55" type="curve"/>
      <point x="219" y="-55"/>
      <point x="226" y="-57"/>
      <point x="226" y="-65" type="curve"/>
      <point x="226" y="-78"/>
      <point x="212" y="-81"/>
      <point x="198" y="-81" type="curve"/>
      <point x="172" y="-81"/>
      <point x="149" y="-73"/>
      <point x="113" y="-59" type="curve"/>
      <point x="69" y="-147"/>
      <point x="113" y="-59"/>
      <point x="69" y="-147" type="curve"/>
      <point x="112" y="-164"/>
      <point x="145" y="-175"/>
      <point x="191" y="-175" type="curve"/>
      <point x="290" y="-175"/>
      <point x="369" y="-148"/>
      <point x="369" y="-61" type="curve"/>
      <point x="369" y="19"/>
      <point x="304" y="55"/>
      <point x="218" y="55" type="curve"/>
      <point x="170" y="55"/>
      <point x="136" y="47"/>
      <point x="90" y="31" type="curve"/>
      <point x="196" y="-61"/>
      <point x="90" y="31"/>
    </contour>
    <contour>
      <point x="295" y="99" type="move" name="_bottom"/>
    </contour>
  </outline>
</glyph>
<glyph name="onesuperior" format="1">
  <advance width="449"/>
  <unicode hex="00B9"/>
  <outline>
    <contour>
      <point x="180" y="265" type="curve"/>
      <point x="248" y="265"/>
      <point x="318" y="265"/>
      <point x="387" y="265" type="curve"/>
      <point x="387" y="377"/>
      <point x="387" y="256"/>
      <point x="387" y="368" type="curve"/>
      <point x="370" y="368"/>
      <point x="351" y="368"/>
      <point x="333" y="368" type="curve"/>
      <point x="180" y="256"/>
      <point x="333" y="377"/>
    </contour>
    <contour>
      <point x="333" y="368" type="curve"/>
      <point x="262" y="368"/>
      <point x="191" y="368"/>
      <point x="121" y="368" type="curve"/>
      <point x="121" y="256"/>
      <point x="121" y="377"/>
      <point x="121" y="265" type="curve"/>
      <point x="140" y="265"/>
      <point x="160" y="265"/>
      <point x="180" y="265" type="curve"/>
      <point x="333" y="377"/>
      <point x="180" y="256"/>
    </contour>
    <contour>
      <point x="109" y="517" type="line"/>
      <point x="333" y="706" type="line"/>
      <point x="180" y="707" type="line"/>
      <point x="43" y="598" type="line"/>
    </contour>
    <contour>
      <point x="333" y="368" type="curve"/>
      <point x="333" y="707" type="line"/>
      <point x="180" y="707" type="line"/>
      <point x="180" y="265" type="line"/>
      <point x="333" y="377"/>
      <point x="180" y="256"/>
    </contour>
    <contour>
      <point x="246" y="706" type="move" name="_top"/>
    </contour>
    <contour>
      <point x="260" y="265" type="move" name="_bottom"/>
    </contour>
  </outline>
</glyph>
<glyph name="ordmasculine" format="1">
  <advance width="554"/>
  <unicode hex="00BA"/>
  <outline>
    <contour>
      <point x="153" y="605" type="curve"/>
      <point x="153" y="672"/>
      <point x="199" y="711"/>
      <point x="272" y="711" type="curve"/>
      <point x="350" y="711"/>
      <point x="401" y="673"/>
      <point x="401" y="605" type="curve"/>
      <point x="401" y="533"/>
      <point x="351" y="499"/>
      <point x="280" y="499" type="curve"/>
      <point x="205" y="499"/>
      <point x="153" y="533"/>
      <point x="153" y="605" type="curve"/>
      <point x="56" y="605"/>
      <point x="144" y="605"/>
      <point x="47" y="605" type="curve"/>
      <point x="47" y="478"/>
      <point x="142" y="421"/>
      <point x="275" y="421" type="curve"/>
      <point x="410" y="421"/>
      <point x="507" y="477"/>
      <point x="507" y="605" type="curve"/>
      <point x="507" y="726"/>
      <point x="413" y="789"/>
      <point x="277" y="789" type="curve"/>
      <point x="141" y="789"/>
      <point x="47" y="726"/>
      <point x="47" y="605" type="curve"/>
      <point x="144" y="605"/>
      <point x="56" y="605"/>
    </contour>
  </outline>
</glyph>
<glyph name="guillemotright" format="1">
  <advance width="688"/>
  <unicode hex="00BB"/>
  <outline>
    <contour>
      <point x="374" y="481" type="curve"/>
      <point x="444" y="448"/>
      <point x="566" y="385"/>
      <point x="635" y="351" type="curve"/>
      <point x="635" y="225"/>
      <point x="635" y="349"/>
      <point x="635" y="223" type="curve"/>
      <point x="566" y="257"/>
      <point x="444" y="320"/>
      <point x="374" y="355" type="curve"/>
      <point x="374" y="480"/>
      <point x="374" y="356"/>
    </contour>
    <contour>
      <point x="374" y="223" type="curve"/>
      <point x="444" y="256"/>
      <point x="566" y="317"/>
      <point x="635" y="351" type="curve"/>
      <point x="635" y="225"/>
      <point x="635" y="349"/>
      <point x="635" y="223" type="curve"/>
      <point x="566" y="190"/>
      <point x="444" y="130"/>
      <point x="374" y="96" type="curve"/>
      <point x="374" y="222"/>
      <point x="374" y="97"/>
    </contour>
    <contour>
      <point x="80" y="481" type="curve"/>
      <point x="149" y="448"/>
      <point x="271" y="385"/>
      <point x="341" y="351" type="curve"/>
      <point x="341" y="225"/>
      <point x="341" y="349"/>
      <point x="341" y="223" type="curve"/>
      <point x="271" y="257"/>
      <point x="149" y="320"/>
      <point x="80" y="355" type="curve"/>
      <point x="80" y="480"/>
      <point x="80" y="356"/>
    </contour>
    <contour>
      <point x="80" y="223" type="curve"/>
      <point x="149" y="256"/>
      <point x="271" y="317"/>
      <point x="341" y="351" type="curve"/>
      <point x="341" y="225"/>
      <point x="341" y="349"/>
      <point x="341" y="223" type="curve"/>
      <point x="271" y="190"/>
      <point x="149" y="130"/>
      <point x="80" y="96" type="curve"/>
      <point x="80" y="222"/>
      <point x="80" y="97"/>
    </contour>
  </outline>
</glyph>
<glyph name="onequarter" format="1">
  <advance width="1166"/>
  <unicode hex="00BC"/>
  <outline>
    <contour>
      <point x="389" y="-33" type="line"/>
      <point x="920" y="704" type="line"/>
      <point x="778" y="704" type="line"/>
      <point x="247" y="-33" type="line"/>
    </contour>
    <contour>
      <point x="173" y="264" type="curve"/>
      <point x="242" y="264"/>
      <point x="312" y="264"/>
      <point x="381" y="264" type="curve"/>
      <point x="381" y="377"/>
      <point x="381" y="255"/>
      <point x="381" y="368" type="curve"/>
      <point x="364" y="368"/>
      <point x="344" y="368"/>
      <point x="327" y="368" type="curve"/>
      <point x="173" y="255"/>
      <point x="327" y="377"/>
    </contour>
    <contour>
      <point x="327" y="368" type="curve"/>
      <point x="256" y="368"/>
      <point x="185" y="368"/>
      <point x="114" y="368" type="curve"/>
      <point x="114" y="255"/>
      <point x="114" y="377"/>
      <point x="114" y="264" type="curve"/>
      <point x="133" y="264"/>
      <point x="154" y="264"/>
      <point x="173" y="264" type="curve"/>
      <point x="327" y="377"/>
      <point x="173" y="255"/>
    </contour>
    <contour>
      <point x="103" y="517" type="line"/>
      <point x="327" y="706" type="line"/>
      <point x="173" y="706" type="line"/>
      <point x="37" y="598" type="line"/>
    </contour>
    <contour>
      <point x="327" y="368" type="curve"/>
      <point x="327" y="706" type="line"/>
      <point x="173" y="706" type="line"/>
      <point x="173" y="264" type="line"/>
      <point x="327" y="377"/>
      <point x="173" y="255"/>
    </contour>
    <contour>
      <point x="1117" y="208" type="line"/>
      <point x="654" y="208" type="line"/>
      <point x="654" y="101" type="line"/>
      <point x="1117" y="101" type="line"/>
    </contour>
    <contour>
      <point x="686" y="115" type="line"/>
      <point x="996" y="409" type="line"/>
      <point x="876" y="425" type="line"/>
      <point x="654" y="208" type="line"/>
    </contour>
    <contour>
      <point x="1030" y="-37" type="line"/>
      <point x="1030" y="425" type="line"/>
      <point x="876" y="425" type="line"/>
      <point x="876" y="-37" type="line"/>
    </contour>
    <contour>
      <point x="954" y="66" type="line"/>
      <point x="815" y="66" type="line"/>
      <point x="815" y="-37" type="line"/>
      <point x="954" y="-37" type="line"/>
    </contour>
    <contour>
      <point x="954" y="-37" type="line"/>
      <point x="1091" y="-37" type="line"/>
      <point x="1091" y="66" type="line"/>
      <point x="954" y="66" type="line"/>
    </contour>
  </outline>
</glyph>
<glyph name="onehalf" format="1">
  <advance width="1217"/>
  <unicode hex="00BD"/>
  <outline>
    <contour>
      <point x="393" y="-33" type="line"/>
      <point x="924" y="704" type="line"/>
      <point x="782" y="704" type="line"/>
      <point x="251" y="-33" type="line"/>
    </contour>
    <contour>
      <point x="173" y="264" type="curve"/>
      <point x="242" y="264"/>
      <point x="312" y="264"/>
      <point x="381" y="264" type="curve"/>
      <point x="381" y="377"/>
      <point x="381" y="255"/>
      <point x="381" y="368" type="curve"/>
      <point x="363" y="368"/>
      <point x="344" y="368"/>
      <point x="327" y="368" type="curve"/>
      <point x="173" y="255"/>
      <point x="327" y="377"/>
    </contour>
    <contour>
      <point x="327" y="368" type="curve"/>
      <point x="256" y="368"/>
      <point x="185" y="368"/>
      <point x="114" y="368" type="curve"/>
      <point x="114" y="255"/>
      <point x="114" y="377"/>
      <point x="114" y="264" type="curve"/>
      <point x="133" y="264"/>
      <point x="154" y="264"/>
      <point x="173" y="264" type="curve"/>
      <point x="327" y="377"/>
      <point x="173" y="255"/>
    </contour>
    <contour>
      <point x="103" y="517" type="line"/>
      <point x="327" y="706" type="line"/>
      <point x="173" y="706" type="line"/>
      <point x="36" y="598" type="line"/>
    </contour>
    <contour>
      <point x="327" y="368" type="curve"/>
      <point x="327" y="706" type="line"/>
      <point x="173" y="706" type="line"/>
      <point x="173" y="264" type="line"/>
      <point x="327" y="377"/>
      <point x="173" y="255"/>
    </contour>
    <contour>
      <point x="1178" y="-38" type="curve"/>
      <point x="1178" y="12"/>
      <point x="1178" y="62"/>
      <point x="1178" y="112" type="curve"/>
      <point x="1066" y="112"/>
      <point x="1180" y="112"/>
      <point x="1068" y="112" type="curve"/>
      <point x="1068" y="99"/>
      <point x="1068" y="87"/>
      <point x="1068" y="74" type="curve"/>
      <point x="1191" y="-25"/>
      <point x="1055" y="61"/>
    </contour>
    <contour>
      <point x="701" y="-38" type="curve"/>
      <point x="903" y="-38"/>
      <point x="1042" y="-38"/>
      <point x="1178" y="-38" type="curve"/>
      <point x="1055" y="61"/>
      <point x="1191" y="-25"/>
      <point x="1068" y="74" type="curve"/>
      <point x="947" y="74"/>
      <point x="823" y="74"/>
      <point x="701" y="74" type="curve"/>
      <point x="701" y="-38"/>
      <point x="701" y="74"/>
    </contour>
    <contour>
      <point x="808" y="254" type="curve"/>
      <point x="843" y="288"/>
      <point x="874" y="302"/>
      <point x="915" y="302" type="curve"/>
      <point x="957" y="302"/>
      <point x="993" y="292"/>
      <point x="993" y="263" type="curve"/>
      <point x="993" y="230"/>
      <point x="962" y="216"/>
      <point x="934" y="197" type="curve"/>
      <point x="856" y="155"/>
      <point x="778" y="115"/>
      <point x="701" y="74" type="curve"/>
      <point x="701" y="-35"/>
      <point x="705" y="74"/>
      <point x="705" y="-35" type="curve"/>
      <point x="833" y="28"/>
      <point x="929" y="66"/>
      <point x="1011" y="111" type="curve"/>
      <point x="1084" y="157"/>
      <point x="1147" y="189"/>
      <point x="1147" y="267" type="curve"/>
      <point x="1147" y="375"/>
      <point x="1052" y="414"/>
      <point x="933" y="414" type="curve"/>
      <point x="835" y="414"/>
      <point x="758" y="388"/>
      <point x="706" y="321" type="curve"/>
      <point x="808" y="254"/>
      <point x="706" y="321"/>
    </contour>
  </outline>
</glyph>
<glyph name="threequarters" format="1">
  <advance width="1159"/>
  <unicode hex="00BE"/>
  <outline>
    <contour>
      <point x="406" y="-33" type="line"/>
      <point x="937" y="704" type="line"/>
      <point x="795" y="704" type="line"/>
      <point x="264" y="-33" type="line"/>
    </contour>
    <contour>
      <point x="110" y="559" type="curve"/>
      <point x="149" y="588"/>
      <point x="191" y="596"/>
      <point x="220" y="596" type="curve"/>
      <point x="263" y="596"/>
      <point x="297" y="591"/>
      <point x="297" y="562" type="curve"/>
      <point x="297" y="528"/>
      <point x="228" y="526"/>
      <point x="169" y="525" type="curve"/>
      <point x="169" y="433"/>
      <point x="169" y="525"/>
      <point x="169" y="433" type="curve"/>
      <point x="317" y="434"/>
      <point x="451" y="446"/>
      <point x="451" y="569" type="curve"/>
      <point x="451" y="675"/>
      <point x="355" y="703"/>
      <point x="236" y="703" type="curve" name=""/>
      <point x="165" y="703"/>
      <point x="98" y="681"/>
      <point x="46" y="640" type="curve"/>
      <point x="110" y="559"/>
      <point x="46" y="640"/>
    </contour>
    <contour>
      <point x="44" y="286" type="curve"/>
      <point x="99" y="262"/>
      <point x="150" y="246"/>
      <point x="209" y="246" type="curve"/>
      <point x="354" y="242"/>
      <point x="474" y="269"/>
      <point x="470" y="393" type="curve"/>
      <point x="470" y="526"/>
      <point x="322" y="513"/>
      <point x="169" y="515" type="curve"/>
      <point x="169" y="432"/>
      <point x="169" y="515"/>
      <point x="169" y="432" type="curve"/>
      <point x="242" y="431"/>
      <point x="317" y="432"/>
      <point x="317" y="393" type="curve"/>
      <point x="317" y="356"/>
      <point x="273" y="349"/>
      <point x="224" y="350" type="curve"/>
      <point x="189" y="350"/>
      <point x="154" y="357"/>
      <point x="103" y="373" type="curve"/>
      <point x="44" y="286"/>
      <point x="103" y="373"/>
    </contour>
    <contour>
      <point x="1117" y="208" type="line"/>
      <point x="654" y="208" type="line"/>
      <point x="654" y="101" type="line"/>
      <point x="1117" y="101" type="line"/>
    </contour>
    <contour>
      <point x="685" y="115" type="line"/>
      <point x="995" y="409" type="line"/>
      <point x="876" y="425" type="line"/>
      <point x="654" y="208" type="line"/>
    </contour>
    <contour>
      <point x="1030" y="-37" type="line"/>
      <point x="1030" y="425" type="line"/>
      <point x="876" y="425" type="line"/>
      <point x="876" y="-37" type="line"/>
    </contour>
    <contour>
      <point x="953" y="66" type="line"/>
      <point x="814" y="66" type="line"/>
      <point x="814" y="-37" type="line"/>
      <point x="953" y="-37" type="line"/>
    </contour>
    <contour>
      <point x="953" y="-37" type="line"/>
      <point x="1091" y="-37" type="line"/>
      <point x="1091" y="66" type="line"/>
      <point x="953" y="66" type="line"/>
    </contour>
  </outline>
</glyph>
<glyph name="questiondown" format="1">
  <advance width="653"/>
  <unicode hex="00BF"/>
  <outline>
    <contour>
      <point x="441" y="321" type="curve"/>
      <point x="441" y="358"/>
      <point x="441" y="446"/>
      <point x="441" y="483" type="curve"/>
      <point x="287" y="483"/>
      <point x="441" y="483"/>
      <point x="287" y="483" type="curve"/>
      <point x="287" y="446"/>
      <point x="287" y="358"/>
      <point x="287" y="321" type="curve"/>
      <point x="441" y="321"/>
      <point x="287" y="321"/>
    </contour>
    <contour>
      <point x="537" y="141" type="line"/>
      <point x="497" y="102"/>
      <point x="431" y="67"/>
      <point x="358" y="67" type="curve"/>
      <point x="270" y="67"/>
      <point x="199" y="102"/>
      <point x="199" y="185" type="curve"/>
      <point x="199" y="278"/>
      <point x="298" y="321"/>
      <point x="424" y="321" type="curve"/>
      <point x="424" y="363"/>
      <point x="424" y="393"/>
      <point x="424" y="435" type="curve"/>
      <point x="213" y="435"/>
      <point x="50" y="353"/>
      <point x="50" y="185" type="curve"/>
      <point x="50" y="27"/>
      <point x="180" y="-52"/>
      <point x="350" y="-52" type="curve"/>
      <point x="458" y="-52"/>
      <point x="541" y="-18"/>
      <point x="616" y="53" type="curve"/>
    </contour>
    <contour>
      <point x="271" y="682" type="curve"/>
      <point x="271" y="631"/>
      <point x="310" y="607"/>
      <point x="363" y="607" type="curve"/>
      <point x="416" y="607"/>
      <point x="452" y="634"/>
      <point x="452" y="682" type="curve"/>
      <point x="271" y="682"/>
      <point x="452" y="682"/>
      <point x="271" y="682" type="curve"/>
      <point x="271" y="733"/>
      <point x="310" y="755"/>
      <point x="364" y="755" type="curve"/>
      <point x="417" y="755"/>
      <point x="452" y="730"/>
      <point x="452" y="682" type="curve"/>
      <point x="271" y="682"/>
      <point x="452" y="682"/>
    </contour>
  </outline>
</glyph>
